<?xml version="1.0" encoding="UTF-8" standalone="no"?>
<!DOCTYPE svg PUBLIC "-//W3C//DTD SVG 1.1//EN" "http://www.w3.org/Graphics/SVG/1.1/DTD/svg11.dtd">
<svg width="100%" height="100%" viewBox="0 0 3816 429" version="1.1" xmlns="http://www.w3.org/2000/svg" xmlns:xlink="http://www.w3.org/1999/xlink" xml:space="preserve" xmlns:serif="http://www.serif.com/" style="fill-rule:evenodd;clip-rule:evenodd;stroke-linejoin:round;stroke-miterlimit:2;">
    <g transform="matrix(1,0,0,1,-374.072917,-770.645859)">
        <g transform="matrix(1.333333,0,0,1.333333,0,0.000025)">
            <clipPath id="_clip1">
                <path d="M1615.25,853.199C1608.75,853.199 1603.48,858.469 1603.48,864.969C1603.48,871.469 1608.75,876.738 1615.25,876.738C1621.75,876.738 1627.02,871.469 1627.02,864.969C1627.02,858.469 1621.75,853.199 1615.25,853.199Z"/>
            </clipPath>
            <g clip-path="url(#_clip1)">
                <g transform="matrix(1,0,0,1,1603,853)">
                    <g>
                        <g>
                            <g>
                                <clipPath id="_clip2">
                                    <path d="M12.25,0.199C5.75,0.199 0.48,5.469 0.48,11.969C0.48,18.469 5.75,23.738 12.25,23.738C18.75,23.738 24.02,18.469 24.02,11.969C24.02,5.469 18.75,0.199 12.25,0.199Z"/>
                                </clipPath>
                                <g clip-path="url(#_clip2)">
                                    <rect x="0.48" y="0.199" width="23.539" height="23.539" style="fill:rgb(52,52,52);fill-rule:nonzero;"/>
                                </g>
                            </g>
                        </g>
                    </g>
                </g>
            </g>
        </g>
        <g transform="matrix(1.333333,0,0,1.333333,0,0.000025)">
            <clipPath id="_clip3">
                <path d="M2403.328,853.199C2396.828,853.199 2391.562,858.469 2391.562,864.969C2391.562,871.469 2396.828,876.738 2403.328,876.738C2409.828,876.738 2415.098,871.469 2415.098,864.969C2415.098,858.469 2409.828,853.199 2403.328,853.199Z"/>
            </clipPath>
            <g clip-path="url(#_clip3)">
                <g transform="matrix(1,0,0,1,2391,853)">
                    <g>
                        <g>
                            <g>
                                <clipPath id="_clip4">
                                    <path d="M12.328,0.199C5.828,0.199 0.562,5.469 0.562,11.969C0.562,18.469 5.828,23.738 12.328,23.738C18.828,23.738 24.098,18.469 24.098,11.969C24.098,5.469 18.828,0.199 12.328,0.199Z"/>
                                </clipPath>
                                <g clip-path="url(#_clip4)">
                                    <rect x="0.562" y="0.199" width="23.535" height="23.539" style="fill:rgb(52,52,52);fill-rule:nonzero;"/>
                                </g>
                            </g>
                        </g>
                    </g>
                </g>
            </g>
        </g>
        <g transform="matrix(1.333333,0,0,1.333333,1530.666667,729.333359)">
            <g>
                <g transform="matrix(1,0,0,1,0.913249,243.613745)">
                    <g>
                        <path d="M85.773,3.777C122.883,3.777 147.324,-19.555 152.66,-57.551L132.215,-57.551C128.438,-29.109 111.328,-14.664 86.441,-14.664C54.219,-14.664 35.332,-39.555 35.332,-79.105C35.332,-118.66 54.441,-142.66 86.441,-142.66C108.219,-142.66 124.66,-131.328 129.551,-110.438L150.66,-110.438C145.77,-141.547 118.66,-161.102 85.551,-161.102C41.996,-161.102 14.223,-127.551 14.223,-79.105C14.223,-31.109 41.332,3.777 85.773,3.777Z" style="fill:rgb(52,52,52);fill-rule:nonzero;"/>
                    </g>
                </g>
            </g>
            <g>
                <g transform="matrix(1,0,0,1,186.429493,243.613745)">
                    <g>
                        <path d="M39.555,-158.215L18.887,-158.215L18.887,0L121.992,0L121.992,-18L39.555,-18L39.555,-158.215Z" style="fill:rgb(52,52,52);fill-rule:nonzero;"/>
                    </g>
                </g>
            </g>
            <g>
                <g transform="matrix(1,0,0,1,341.286851,243.613745)">
                    <g>
                        <rect x="18.887" y="-158.215" width="20.668" height="158.215" style="fill:rgb(52,52,52);fill-rule:nonzero;"/>
                    </g>
                </g>
            </g>
            <g>
                <g transform="matrix(1,0,0,1,422.607395,243.613745)">
                    <g>
                        <path d="M103.551,-37.332L98.219,-21.555L92.883,-37.332L47.996,-158.215L18.887,-158.215L18.887,0L37.777,0L37.777,-104.883L37.109,-133.551L47.555,-108.66L88.441,0L107.996,0L145.77,-105.105L157.102,-133.328L156.66,-104.883L156.66,0L175.547,0L175.547,-158.215L146.883,-158.215L103.551,-37.332Z" style="fill:rgb(52,52,52);fill-rule:nonzero;"/>
                    </g>
                </g>
            </g>
            <g>
                <g transform="matrix(1,0,0,1,639.893362,243.613745)">
                    <g>
                        <path d="M152.438,0L91.328,-158.215L67.996,-158.215L6.668,0L28.664,0L45.777,-46.441L112.883,-46.441L129.551,0L152.438,0ZM74.441,-124.438L79.773,-140.883L84.883,-124.438L106.438,-64.441L52.441,-64.441L74.441,-124.438Z" style="fill:rgb(52,52,52);fill-rule:nonzero;"/>
                    </g>
                </g>
            </g>
            <g>
                <g transform="matrix(1,0,0,1,904.730701,243.613745)">
                    <g>
                        <path d="M75.996,3.332C119.773,3.332 137.105,-18.445 137.105,-43.555C137.105,-68.219 121.105,-82.219 91.773,-88.441L63.996,-94.441C44.219,-98.66 36.441,-105.773 36.441,-118.215C36.441,-134.883 49.773,-144.438 72.441,-144.438C96.66,-144.438 110.66,-133.77 112.438,-113.773L132.215,-113.773C129.551,-144.215 108.219,-161.324 73.109,-161.324C36.664,-161.324 16.887,-143.105 16.887,-116.438C16.887,-91.328 35.555,-80.664 61.332,-75.328L83.551,-70.664C108.219,-65.551 117.105,-57.332 117.105,-42.441C117.105,-24.664 103.773,-13.555 76.664,-13.555C49.332,-13.555 33.332,-24.887 31.109,-51.109L11.332,-51.109C14,-14.664 36.441,3.332 75.996,3.332Z" style="fill:rgb(52,52,52);fill-rule:nonzero;"/>
                    </g>
                </g>
            </g>
            <g>
                <g transform="matrix(1,0,0,1,1076.02834,243.613745)">
                    <g>
                        <path d="M39.555,-72.441L123.773,-72.441L123.773,-90.441L39.555,-90.441L39.555,-140.215L130.883,-140.215L130.883,-158.215L18.887,-158.215L18.887,0L132.883,0L132.883,-18L39.555,-18L39.555,-72.441Z" style="fill:rgb(52,52,52);fill-rule:nonzero;"/>
                    </g>
                </g>
            </g>
            <g>
                <g transform="matrix(1,0,0,1,1246.215139,243.613745)">
                    <g>
                        <path d="M136.66,-50.441C135.105,-65.109 126.215,-74.219 112.438,-76.887C129.105,-81.551 140.66,-95.996 140.66,-116.438C140.66,-141.77 122.438,-158.215 92.219,-158.215L18.887,-158.215L18.887,0L39.555,0L39.555,-68.219L88.441,-68.219C106.883,-68.219 114.883,-60.887 116.883,-42.219L121.551,0L142.438,0L136.66,-50.441ZM39.555,-86.219L39.555,-140.215L88.664,-140.215C108.66,-140.215 119.551,-131.105 119.551,-114.438C119.551,-96.441 106.66,-86.219 85.105,-86.219L39.555,-86.219Z" style="fill:rgb(52,52,52);fill-rule:nonzero;"/>
                    </g>
                </g>
            </g>
            <g>
                <g transform="matrix(1,0,0,1,1420.399448,243.613745)">
                    <g>
                        <path d="M83.773,-45.777L75.996,-21.777L68.219,-45.777L29.555,-158.215L6.668,-158.215L63.773,0L87.551,0L144.215,-158.215L122.215,-158.215L83.773,-45.777Z" style="fill:rgb(52,52,52);fill-rule:nonzero;"/>
                    </g>
                </g>
            </g>
            <g>
                <g transform="matrix(1,0,0,1,1594.140813,243.613745)">
                    <g>
                        <rect x="18.887" y="-158.215" width="20.668" height="158.215" style="fill:rgb(52,52,52);fill-rule:nonzero;"/>
                    </g>
                </g>
            </g>
            <g>
                <g transform="matrix(1,0,0,1,1675.461415,243.613745)">
                    <g>
                        <path d="M85.773,3.777C122.883,3.777 147.324,-19.555 152.66,-57.551L132.215,-57.551C128.438,-29.109 111.328,-14.664 86.441,-14.664C54.219,-14.664 35.332,-39.555 35.332,-79.105C35.332,-118.66 54.441,-142.66 86.441,-142.66C108.219,-142.66 124.66,-131.328 129.551,-110.438L150.66,-110.438C145.77,-141.547 118.66,-161.102 85.551,-161.102C41.996,-161.102 14.223,-127.551 14.223,-79.105C14.223,-31.109 41.332,3.777 85.773,3.777Z" style="fill:rgb(52,52,52);fill-rule:nonzero;"/>
                    </g>
                </g>
            </g>
            <g>
                <g transform="matrix(1,0,0,1,1860.977716,243.613745)">
                    <g>
                        <path d="M39.555,-72.441L123.773,-72.441L123.773,-90.441L39.555,-90.441L39.555,-140.215L130.883,-140.215L130.883,-158.215L18.887,-158.215L18.887,0L132.883,0L132.883,-18L39.555,-18L39.555,-72.441Z" style="fill:rgb(52,52,52);fill-rule:nonzero;"/>
                    </g>
                </g>
            </g>
        </g>
        <g transform="matrix(1.333333,0,0,1.333333,1546.666667,1081.333359)">
            <g>
                <g transform="matrix(1,0,0,1,1.085865,71.737944)">
                    <g>
                        <path d="M11.016,-24.379L39.234,-24.379L39.234,-28.148L11.016,-28.148L11.016,-46.84L41.438,-46.84L41.438,-50.609L6.754,-50.609L6.754,0L42.363,0L42.363,-3.766L11.016,-3.766L11.016,-24.379Z" style="fill:rgb(52,52,52);fill-rule:nonzero;"/>
                    </g>
                </g>
            </g>
            <g>
                <g transform="matrix(1,0,0,1,55.675102,71.737944)">
                    <g>
                        <path d="M41.652,-11.516C41.652,-9.383 41.652,-7.605 41.723,-5.969L38.738,-10.734L11.371,-50.609L6.754,-50.609L6.754,0L10.805,0L10.805,-39.094C10.805,-41.156 10.805,-42.934 10.734,-44.566L13.789,-39.805L40.941,0L45.773,0L45.773,-50.609L41.652,-50.609L41.652,-11.516Z" style="fill:rgb(52,52,52);fill-rule:nonzero;"/>
                    </g>
                </g>
            </g>
            <g>
                <g transform="matrix(1,0,0,1,115.524213,71.737944)">
                    <g>
                        <path d="M11.016,-24.379L39.234,-24.379L39.234,-28.148L11.016,-28.148L11.016,-46.84L41.438,-46.84L41.438,-50.609L6.754,-50.609L6.754,0L42.363,0L42.363,-3.766L11.016,-3.766L11.016,-24.379Z" style="fill:rgb(52,52,52);fill-rule:nonzero;"/>
                    </g>
                </g>
            </g>
            <g>
                <g transform="matrix(1,0,0,1,170.11345,71.737944)">
                    <g>
                        <path d="M43.215,-15.07C42.578,-20.398 39.945,-23.742 34.473,-24.594C40.586,-25.871 44.566,-30.422 44.566,-37.316C44.566,-45.492 38.809,-50.609 29.57,-50.609L6.754,-50.609L6.754,0L11.016,0L11.016,-22.746L27.934,-22.746C36.18,-22.746 38.383,-19.406 39.094,-13.434L40.586,0L44.922,0L43.215,-15.07ZM11.016,-26.582L11.016,-46.84L28.859,-46.84C36.109,-46.84 40.16,-43.215 40.16,-36.961C40.16,-30.352 35.539,-26.582 27.793,-26.582L11.016,-26.582Z" style="fill:rgb(52,52,52);fill-rule:nonzero;"/>
                    </g>
                </g>
            </g>
            <g>
                <g transform="matrix(1,0,0,1,228.398861,71.737944)">
                    <g>
                        <path d="M51.035,-26.086L29.426,-26.086L29.426,-22.32L46.77,-22.32L46.77,-18.906C45.277,-8.812 38.598,-2.844 28.645,-2.844C16.418,-2.844 9.453,-12.082 9.453,-25.305C9.453,-39.023 16.562,-47.625 29,-47.625C38.879,-47.625 44.852,-42.648 46.203,-35.398L50.324,-35.684C48.617,-45.633 40.375,-51.531 28.789,-51.531C13.859,-51.531 5.047,-41.156 5.047,-25.445C5.047,-9.453 14.359,1.066 28.574,1.066C37.176,1.066 43.5,-2.773 46.984,-9.453L47.766,0L51.035,0L51.035,-26.086Z" style="fill:rgb(52,52,52);fill-rule:nonzero;"/>
                    </g>
                </g>
            </g>
            <g>
                <g transform="matrix(1,0,0,1,293.507938,71.737944)">
                    <g>
                        <rect x="6.754" y="-50.609" width="4.262" height="50.609" style="fill:rgb(52,52,52);fill-rule:nonzero;"/>
                    </g>
                </g>
            </g>
            <g>
                <g transform="matrix(1,0,0,1,318.598996,71.737944)">
                    <g>
                        <path d="M48.477,0L27.863,-50.609L23.102,-50.609L2.418,0L7.035,0L13.363,-15.852L37.457,-15.852L43.715,0L48.477,0ZM24.379,-43.359L25.516,-46.914L26.656,-43.359L35.965,-19.617L14.855,-19.617L24.379,-43.359Z" style="fill:rgb(52,52,52);fill-rule:nonzero;"/>
                    </g>
                </g>
            </g>
            <g>
                <g transform="matrix(1,0,0,1,541.122374,71.737944)">
                    <g>
                        <path d="M27.648,1.066C39.164,1.066 47.41,-6.539 48.617,-17.84L44.355,-17.84C43.359,-8.387 36.676,-2.844 27.793,-2.844C16.207,-2.844 9.453,-11.871 9.453,-25.375C9.453,-39.164 16.562,-47.625 27.723,-47.625C36.039,-47.625 42.363,-42.859 43.855,-35.328L48.262,-35.328C46.84,-44.922 38.312,-51.531 27.578,-51.531C13.93,-51.531 5.047,-41.012 5.047,-25.375C5.047,-10.094 13.504,1.066 27.648,1.066Z" style="fill:rgb(52,52,52);fill-rule:nonzero;"/>
                    </g>
                </g>
            </g>
            <g>
                <g transform="matrix(1,0,0,1,600.616103,71.737944)">
                    <g>
                        <path d="M11.016,-50.609L6.754,-50.609L6.754,0L39.309,0L39.309,-3.766L11.016,-3.766L11.016,-50.609Z" style="fill:rgb(52,52,52);fill-rule:nonzero;"/>
                    </g>
                </g>
            </g>
            <g>
                <g transform="matrix(1,0,0,1,650.727269,71.737944)">
                    <g>
                        <rect x="6.754" y="-50.609" width="4.262" height="50.609" style="fill:rgb(52,52,52);fill-rule:nonzero;"/>
                    </g>
                </g>
            </g>
            <g>
                <g transform="matrix(1,0,0,1,675.818327,71.737944)">
                    <g>
                        <path d="M32.98,-8.387L31.629,-4.477L30.281,-8.387L12.723,-50.609L6.754,-50.609L6.754,0L10.66,0L10.66,-39.164L10.52,-45.492L29.57,0L33.621,0L49.754,-39.234L52.242,-45.418L52.102,-39.164L52.102,0L56.082,0L56.082,-50.609L50.184,-50.609L32.98,-8.387Z" style="fill:rgb(52,52,52);fill-rule:nonzero;"/>
                    </g>
                </g>
            </g>
            <g>
                <g transform="matrix(1,0,0,1,745.974068,71.737944)">
                    <g>
                        <path d="M48.477,0L27.863,-50.609L23.102,-50.609L2.418,0L7.035,0L13.363,-15.852L37.457,-15.852L43.715,0L48.477,0ZM24.379,-43.359L25.516,-46.914L26.656,-43.359L35.965,-19.617L14.855,-19.617L24.379,-43.359Z" style="fill:rgb(52,52,52);fill-rule:nonzero;"/>
                    </g>
                </g>
            </g>
            <g>
                <g transform="matrix(1,0,0,1,797.364773,71.737944)">
                    <g>
                        <path d="M3.055,-50.609L3.055,-46.84L20.684,-46.84L20.684,0L25.02,0L25.02,-46.84L42.719,-46.84L42.719,-50.609L3.055,-50.609Z" style="fill:rgb(52,52,52);fill-rule:nonzero;"/>
                    </g>
                </g>
            </g>
            <g>
                <g transform="matrix(1,0,0,1,850.461349,71.737944)">
                    <g>
                        <rect x="6.754" y="-50.609" width="4.262" height="50.609" style="fill:rgb(52,52,52);fill-rule:nonzero;"/>
                    </g>
                </g>
            </g>
            <g>
                <g transform="matrix(1,0,0,1,875.552408,71.737944)">
                    <g>
                        <path d="M21.324,-3.91C17.414,-3.91 12.793,-3.91 9.242,-3.695C11.727,-6.754 14.215,-9.879 16.562,-12.938L42.363,-47.125L42.363,-50.609L6.539,-50.609L6.539,-46.699L25.73,-46.699C29.426,-46.699 33.691,-46.699 37.246,-46.84C35.043,-44.141 32.84,-41.438 30.848,-38.738L4.691,-4.195L4.691,0L43.43,0L43.43,-3.91L21.324,-3.91Z" style="fill:rgb(52,52,52);fill-rule:nonzero;"/>
                    </g>
                </g>
            </g>
            <g>
                <g transform="matrix(1,0,0,1,930.99458,71.737944)">
                    <g>
                        <path d="M48.477,0L27.863,-50.609L23.102,-50.609L2.418,0L7.035,0L13.363,-15.852L37.457,-15.852L43.715,0L48.477,0ZM24.379,-43.359L25.516,-46.914L26.656,-43.359L35.965,-19.617L14.855,-19.617L24.379,-43.359Z" style="fill:rgb(52,52,52);fill-rule:nonzero;"/>
                    </g>
                </g>
            </g>
            <g>
                <g transform="matrix(1,0,0,1,987.076476,71.737944)">
                    <g>
                        <path d="M44.355,-17.84C43.359,-8.387 36.676,-2.844 27.793,-2.844C16.207,-2.844 9.453,-11.871 9.453,-25.375C9.453,-39.164 16.562,-47.625 27.723,-47.625C36.039,-47.625 42.363,-42.859 43.855,-35.328L48.262,-35.328C46.84,-44.922 38.312,-51.531 27.578,-51.531C13.93,-51.531 5.047,-41.012 5.047,-25.375C5.047,-11.016 12.512,-0.285 25.234,0.926L22.531,5.262L23.883,7.465L26.867,7.465C29.641,7.465 30.777,8.531 30.777,10.379C30.777,12.438 29.215,13.789 25.16,13.789L22.957,13.789L22.957,16.492L25.445,16.492C30.992,16.492 34.188,14.074 34.188,10.234C34.188,6.68 31.773,4.621 27.508,4.621L25.59,4.621L27.863,1.066C39.234,0.996 47.41,-6.609 48.617,-17.84L44.355,-17.84Z" style="fill:rgb(52,52,52);fill-rule:nonzero;"/>
                    </g>
                </g>
            </g>
            <g>
                <g transform="matrix(1,0,0,1,1046.570205,71.737944)">
                    <g>
                        <path d="M19.617,-63.402C24.453,-63.402 24.664,-56.012 31.133,-56.012C35.398,-56.012 38.312,-58.996 38.453,-66.672L35.184,-66.672C34.973,-61.27 33.691,-59.281 31.133,-59.281C26.371,-59.281 26.086,-66.672 19.617,-66.672C15.496,-66.672 12.438,-63.617 12.297,-56.012L15.566,-56.012C15.781,-61.34 17.129,-63.402 19.617,-63.402ZM48.477,0L27.863,-50.609L23.102,-50.609L2.418,0L7.035,0L13.363,-15.852L37.457,-15.852L43.715,0L48.477,0ZM24.379,-43.359L25.516,-46.914L26.656,-43.359L35.965,-19.617L14.855,-19.617L24.379,-43.359Z" style="fill:rgb(52,52,52);fill-rule:nonzero;"/>
                    </g>
                </g>
            </g>
            <g>
                <g transform="matrix(1,0,0,1,1102.652101,71.737944)">
                    <g>
                        <path d="M28.645,1.066C42.934,1.066 52.312,-9.879 52.312,-25.305C52.312,-40.656 42.934,-51.531 28.645,-51.531C14.43,-51.531 5.047,-40.656 5.047,-25.305C5.047,-9.949 14.43,1.066 28.645,1.066ZM28.645,-2.844C17.129,-2.844 9.453,-11.871 9.453,-25.305C9.453,-38.738 17.129,-47.625 28.645,-47.625C40.23,-47.625 47.906,-38.738 47.906,-25.305C47.906,-11.801 40.375,-2.844 28.645,-2.844Z" style="fill:rgb(52,52,52);fill-rule:nonzero;"/>
                    </g>
                </g>
            </g>
            <g>
                <g transform="matrix(1,0,0,1,1331.69513,71.737944)">
                    <g>
                        <path d="M43.215,-15.07C42.578,-20.398 39.945,-23.742 34.473,-24.594C40.586,-25.871 44.566,-30.422 44.566,-37.316C44.566,-45.492 38.809,-50.609 29.57,-50.609L6.754,-50.609L6.754,0L11.016,0L11.016,-22.746L27.934,-22.746C36.18,-22.746 38.383,-19.406 39.094,-13.434L40.586,0L44.922,0L43.215,-15.07ZM11.016,-26.582L11.016,-46.84L28.859,-46.84C36.109,-46.84 40.16,-43.215 40.16,-36.961C40.16,-30.352 35.539,-26.582 27.793,-26.582L11.016,-26.582Z" style="fill:rgb(52,52,52);fill-rule:nonzero;"/>
                    </g>
                </g>
            </g>
            <g>
                <g transform="matrix(1,0,0,1,1389.980541,71.737944)">
                    <g>
                        <path d="M11.016,-24.379L39.234,-24.379L39.234,-28.148L11.016,-28.148L11.016,-46.84L41.438,-46.84L41.438,-50.609L6.754,-50.609L6.754,0L42.363,0L42.363,-3.766L11.016,-3.766L11.016,-24.379Z" style="fill:rgb(52,52,52);fill-rule:nonzero;"/>
                    </g>
                </g>
            </g>
            <g>
                <g transform="matrix(1,0,0,1,1444.569778,71.737944)">
                    <g>
                        <path d="M40.941,-50.609L6.754,-50.609L6.754,0L11.016,0L11.016,-24.238L36.395,-24.238L36.395,-28.078L11.016,-28.078L11.016,-46.84L40.941,-46.84L40.941,-50.609Z" style="fill:rgb(52,52,52);fill-rule:nonzero;"/>
                    </g>
                </g>
            </g>
            <g>
                <g transform="matrix(1,0,0,1,1494.894246,71.737944)">
                    <g>
                        <path d="M43.215,-15.07C42.578,-20.398 39.945,-23.742 34.473,-24.594C40.586,-25.871 44.566,-30.422 44.566,-37.316C44.566,-45.492 38.809,-50.609 29.57,-50.609L6.754,-50.609L6.754,0L11.016,0L11.016,-22.746L27.934,-22.746C36.18,-22.746 38.383,-19.406 39.094,-13.434L40.586,0L44.922,0L43.215,-15.07ZM11.016,-26.582L11.016,-46.84L28.859,-46.84C36.109,-46.84 40.16,-43.215 40.16,-36.961C40.16,-30.352 35.539,-26.582 27.793,-26.582L11.016,-26.582Z" style="fill:rgb(52,52,52);fill-rule:nonzero;"/>
                    </g>
                </g>
            </g>
            <g>
                <g transform="matrix(1,0,0,1,1553.179657,71.737944)">
                    <g>
                        <rect x="6.754" y="-50.609" width="4.262" height="50.609" style="fill:rgb(52,52,52);fill-rule:nonzero;"/>
                    </g>
                </g>
            </g>
            <g>
                <g transform="matrix(1,0,0,1,1578.270715,71.737944)">
                    <g>
                        <path d="M51.035,-26.086L29.426,-26.086L29.426,-22.32L46.77,-22.32L46.77,-18.906C45.277,-8.812 38.598,-2.844 28.645,-2.844C16.418,-2.844 9.453,-12.082 9.453,-25.305C9.453,-39.023 16.562,-47.625 29,-47.625C38.879,-47.625 44.852,-42.648 46.203,-35.398L50.324,-35.684C48.617,-45.633 40.375,-51.531 28.789,-51.531C13.859,-51.531 5.047,-41.156 5.047,-25.445C5.047,-9.453 14.359,1.066 28.574,1.066C37.176,1.066 43.5,-2.773 46.984,-9.453L47.766,0L51.035,0L51.035,-26.086Z" style="fill:rgb(52,52,52);fill-rule:nonzero;"/>
                    </g>
                </g>
            </g>
            <g>
                <g transform="matrix(1,0,0,1,1643.379792,71.737944)">
                    <g>
                        <path d="M11.016,-24.379L39.234,-24.379L39.234,-28.148L11.016,-28.148L11.016,-46.84L41.438,-46.84L41.438,-50.609L6.754,-50.609L6.754,0L42.363,0L42.363,-3.766L11.016,-3.766L11.016,-24.379Z" style="fill:rgb(52,52,52);fill-rule:nonzero;"/>
                    </g>
                </g>
            </g>
            <g>
                <g transform="matrix(1,0,0,1,1697.969028,71.737944)">
                    <g>
                        <path d="M43.215,-15.07C42.578,-20.398 39.945,-23.742 34.473,-24.594C40.586,-25.871 44.566,-30.422 44.566,-37.316C44.566,-45.492 38.809,-50.609 29.57,-50.609L6.754,-50.609L6.754,0L11.016,0L11.016,-22.746L27.934,-22.746C36.18,-22.746 38.383,-19.406 39.094,-13.434L40.586,0L44.922,0L43.215,-15.07ZM11.016,-26.582L11.016,-46.84L28.859,-46.84C36.109,-46.84 40.16,-43.215 40.16,-36.961C40.16,-30.352 35.539,-26.582 27.793,-26.582L11.016,-26.582Z" style="fill:rgb(52,52,52);fill-rule:nonzero;"/>
                    </g>
                </g>
            </g>
            <g>
                <g transform="matrix(1,0,0,1,1756.25444,71.737944)">
                    <g>
                        <path d="M48.477,0L27.863,-50.609L23.102,-50.609L2.418,0L7.035,0L13.363,-15.852L37.457,-15.852L43.715,0L48.477,0ZM24.379,-43.359L25.516,-46.914L26.656,-43.359L35.965,-19.617L14.855,-19.617L24.379,-43.359Z" style="fill:rgb(52,52,52);fill-rule:nonzero;"/>
                    </g>
                </g>
            </g>
            <g>
                <g transform="matrix(1,0,0,1,1812.336336,71.737944)">
                    <g>
                        <path d="M44.355,-17.84C43.359,-8.387 36.676,-2.844 27.793,-2.844C16.207,-2.844 9.453,-11.871 9.453,-25.375C9.453,-39.164 16.562,-47.625 27.723,-47.625C36.039,-47.625 42.363,-42.859 43.855,-35.328L48.262,-35.328C46.84,-44.922 38.312,-51.531 27.578,-51.531C13.93,-51.531 5.047,-41.012 5.047,-25.375C5.047,-11.016 12.512,-0.285 25.234,0.926L22.531,5.262L23.883,7.465L26.867,7.465C29.641,7.465 30.777,8.531 30.777,10.379C30.777,12.438 29.215,13.789 25.16,13.789L22.957,13.789L22.957,16.492L25.445,16.492C30.992,16.492 34.188,14.074 34.188,10.234C34.188,6.68 31.773,4.621 27.508,4.621L25.59,4.621L27.863,1.066C39.234,0.996 47.41,-6.609 48.617,-17.84L44.355,-17.84Z" style="fill:rgb(52,52,52);fill-rule:nonzero;"/>
                    </g>
                </g>
            </g>
            <g>
                <g transform="matrix(1,0,0,1,1871.830065,71.737944)">
                    <g>
                        <path d="M19.617,-63.402C24.453,-63.402 24.664,-56.012 31.133,-56.012C35.398,-56.012 38.312,-58.996 38.453,-66.672L35.184,-66.672C34.973,-61.27 33.691,-59.281 31.133,-59.281C26.371,-59.281 26.086,-66.672 19.617,-66.672C15.496,-66.672 12.438,-63.617 12.297,-56.012L15.566,-56.012C15.781,-61.34 17.129,-63.402 19.617,-63.402ZM48.477,0L27.863,-50.609L23.102,-50.609L2.418,0L7.035,0L13.363,-15.852L37.457,-15.852L43.715,0L48.477,0ZM24.379,-43.359L25.516,-46.914L26.656,-43.359L35.965,-19.617L14.855,-19.617L24.379,-43.359Z" style="fill:rgb(52,52,52);fill-rule:nonzero;"/>
                    </g>
                </g>
            </g>
            <g>
                <g transform="matrix(1,0,0,1,1927.911962,71.737944)">
                    <g>
                        <path d="M28.645,1.066C42.934,1.066 52.312,-9.879 52.312,-25.305C52.312,-40.656 42.934,-51.531 28.645,-51.531C14.43,-51.531 5.047,-40.656 5.047,-25.305C5.047,-9.949 14.43,1.066 28.645,1.066ZM28.645,-2.844C17.129,-2.844 9.453,-11.871 9.453,-25.305C9.453,-38.738 17.129,-47.625 28.645,-47.625C40.23,-47.625 47.906,-38.738 47.906,-25.305C47.906,-11.801 40.375,-2.844 28.645,-2.844Z" style="fill:rgb(52,52,52);fill-rule:nonzero;"/>
                    </g>
                </g>
            </g>
        </g>
        <g transform="matrix(1.333333,0,0,1.333333,0,0.000025)">
            <path d="M424.516,577.996C503.691,578.004 568.918,578.316 569.473,578.691C570.02,579.066 585.77,599.168 604.477,623.359L638.48,667.344L638.477,757.812C638.473,816.5 638.137,849.477 637.523,851.691C636.062,856.949 629.535,866.102 621.66,873.926C616.117,879.434 612.613,881.977 606.008,885.285L597.492,889.547L340.371,889.547L425.652,804.25L551.781,803.773L552.258,664.219L366.793,664.219L366.793,788.945L280.555,875.164L280.555,577.984L424.516,577.996Z" style="fill:rgb(0,51,102);fill-rule:nonzero;"/>
        </g>
        <g transform="matrix(1.333333,0,0,1.333333,0,0.000025)">
            <path d="M1046.48,664.219L774.789,664.219L774.789,692.039L1009.852,692.082L1015.113,694.246C1026.512,698.934 1037.598,708.895 1043.102,719.391L1046.016,724.957L1046.52,889.547L688.555,889.547L688.555,804.238L960.242,804.238L960.242,777.348L688.555,777.348L688.555,667.035L757.434,577.984L1046.48,577.984L1046.48,664.219Z" style="fill:rgb(0,51,102);fill-rule:nonzero;"/>
        </g>
        <g transform="matrix(1.333333,0,0,1.333333,0,0.000025)">
            <path d="M700.145,618.785L663.453,670.625C663.453,670.625 626.547,618.754 626.426,618.785L700.145,618.785Z" style="fill:rgb(62,194,244);fill-rule:nonzero;"/>
        </g>
        <g transform="matrix(1.333333,0,0,1.333333,0,0.000025)">
            <path d="M598.609,577.984L727.965,577.984C727.941,577.984 715.91,596.066 715.91,596.066L705.059,612.293L621.906,612.293L610.664,596.066L598.609,577.984Z" style="fill:rgb(29,124,180);fill-rule:nonzero;"/>
        </g>
    </g>
</svg>
