<svg xmlns="http://www.w3.org/2000/svg" xmlns:xlink="http://www.w3.org/1999/xlink" width="4535" zoomAndPan="magnify" viewBox="0 0 3401.25 1417.499962" height="1890" preserveAspectRatio="xMidYMid meet" version="1.0"><defs><g/><clipPath id="a61dd92fcb"><path d="M 1603.480469 853.199219 L 1627.019531 853.199219 L 1627.019531 876.738281 L 1603.480469 876.738281 Z M 1603.480469 853.199219 " clip-rule="nonzero"/></clipPath><clipPath id="0a296d9063"><path d="M 1615.25 853.199219 C 1608.75 853.199219 1603.480469 858.46875 1603.480469 864.96875 C 1603.480469 871.46875 1608.75 876.738281 1615.25 876.738281 C 1621.75 876.738281 1627.019531 871.46875 1627.019531 864.96875 C 1627.019531 858.46875 1621.75 853.199219 1615.25 853.199219 Z M 1615.25 853.199219 " clip-rule="nonzero"/></clipPath><clipPath id="68ffee21d7"><path d="M 0.480469 0.199219 L 24.019531 0.199219 L 24.019531 23.738281 L 0.480469 23.738281 Z M 0.480469 0.199219 " clip-rule="nonzero"/></clipPath><clipPath id="4c14507c79"><path d="M 12.25 0.199219 C 5.75 0.199219 0.480469 5.46875 0.480469 11.96875 C 0.480469 18.46875 5.75 23.738281 12.25 23.738281 C 18.75 23.738281 24.019531 18.46875 24.019531 11.96875 C 24.019531 5.46875 18.75 0.199219 12.25 0.199219 Z M 12.25 0.199219 " clip-rule="nonzero"/></clipPath><clipPath id="04d4051618"><rect x="0" width="25" y="0" height="24"/></clipPath><clipPath id="52cf30f5a1"><path d="M 2391.5625 853.199219 L 2415.097656 853.199219 L 2415.097656 876.738281 L 2391.5625 876.738281 Z M 2391.5625 853.199219 " clip-rule="nonzero"/></clipPath><clipPath id="518f606fde"><path d="M 2403.328125 853.199219 C 2396.828125 853.199219 2391.5625 858.46875 2391.5625 864.96875 C 2391.5625 871.46875 2396.828125 876.738281 2403.328125 876.738281 C 2409.828125 876.738281 2415.097656 871.46875 2415.097656 864.96875 C 2415.097656 858.46875 2409.828125 853.199219 2403.328125 853.199219 Z M 2403.328125 853.199219 " clip-rule="nonzero"/></clipPath><clipPath id="a716cf8fc3"><path d="M 0.5625 0.199219 L 24.097656 0.199219 L 24.097656 23.738281 L 0.5625 23.738281 Z M 0.5625 0.199219 " clip-rule="nonzero"/></clipPath><clipPath id="e57a631152"><path d="M 12.328125 0.199219 C 5.828125 0.199219 0.5625 5.46875 0.5625 11.96875 C 0.5625 18.46875 5.828125 23.738281 12.328125 23.738281 C 18.828125 23.738281 24.097656 18.46875 24.097656 11.96875 C 24.097656 5.46875 18.828125 0.199219 12.328125 0.199219 Z M 12.328125 0.199219 " clip-rule="nonzero"/></clipPath><clipPath id="3ac3eb30f2"><rect x="0" width="25" y="0" height="24"/></clipPath><clipPath id="1f721dff17"><rect x="0" width="2034" y="0" height="328"/></clipPath><clipPath id="9ef230dd56"><rect x="0" width="1998" y="0" height="102"/></clipPath><clipPath id="53a6103a74"><path d="M 280.554688 577.984375 L 639 577.984375 L 639 889.875 L 280.554688 889.875 Z M 280.554688 577.984375 " clip-rule="nonzero"/></clipPath><clipPath id="3495fc2f01"><path d="M 688 577.984375 L 1047 577.984375 L 1047 889.875 L 688 889.875 Z M 688 577.984375 " clip-rule="nonzero"/></clipPath><clipPath id="27c1c299c0"><path d="M 598 577.984375 L 729 577.984375 L 729 613 L 598 613 Z M 598 577.984375 " clip-rule="nonzero"/></clipPath></defs><g clip-path="url(#a61dd92fcb)"><g clip-path="url(#0a296d9063)"><g transform="matrix(1, 0, 0, 1, 1603, 853)"><g clip-path="url(#04d4051618)"><g clip-path="url(#68ffee21d7)"><g clip-path="url(#4c14507c79)"><path fill="#ffffff" d="M 0.480469 0.199219 L 24.019531 0.199219 L 24.019531 23.738281 L 0.480469 23.738281 Z M 0.480469 0.199219 " fill-opacity="1" fill-rule="nonzero"/></g></g></g></g></g></g><g clip-path="url(#52cf30f5a1)"><g clip-path="url(#518f606fde)"><g transform="matrix(1, 0, 0, 1, 2391, 853)"><g clip-path="url(#3ac3eb30f2)"><g clip-path="url(#a716cf8fc3)"><g clip-path="url(#e57a631152)"><path fill="#ffffff" d="M 0.5625 0.199219 L 24.097656 0.199219 L 24.097656 23.738281 L 0.5625 23.738281 Z M 0.5625 0.199219 " fill-opacity="1" fill-rule="nonzero"/></g></g></g></g></g></g><g transform="matrix(1, 0, 0, 1, 1148, 547)"><g clip-path="url(#1f721dff17)"><g fill="#ffffff" fill-opacity="1"><g transform="translate(0.913249, 243.613745)"><g><path d="M 85.773438 3.777344 C 122.882812 3.777344 147.324219 -19.554688 152.660156 -57.550781 L 132.214844 -57.550781 C 128.4375 -29.109375 111.328125 -14.664062 86.441406 -14.664062 C 54.21875 -14.664062 35.332031 -39.554688 35.332031 -79.105469 C 35.332031 -118.660156 54.441406 -142.660156 86.441406 -142.660156 C 108.21875 -142.660156 124.660156 -131.328125 129.550781 -110.4375 L 150.660156 -110.4375 C 145.769531 -141.546875 118.660156 -161.101562 85.550781 -161.101562 C 41.996094 -161.101562 14.222656 -127.550781 14.222656 -79.105469 C 14.222656 -31.109375 41.332031 3.777344 85.773438 3.777344 Z M 85.773438 3.777344 "/></g></g></g><g fill="#ffffff" fill-opacity="1"><g transform="translate(186.429493, 243.613745)"><g><path d="M 39.554688 -158.214844 L 18.886719 -158.214844 L 18.886719 0 L 121.992188 0 L 121.992188 -18 L 39.554688 -18 Z M 39.554688 -158.214844 "/></g></g></g><g fill="#ffffff" fill-opacity="1"><g transform="translate(341.286851, 243.613745)"><g><path d="M 39.554688 0 L 39.554688 -158.214844 L 18.886719 -158.214844 L 18.886719 0 Z M 39.554688 0 "/></g></g></g><g fill="#ffffff" fill-opacity="1"><g transform="translate(422.607395, 243.613745)"><g><path d="M 103.550781 -37.332031 L 98.21875 -21.554688 L 92.882812 -37.332031 L 47.996094 -158.214844 L 18.886719 -158.214844 L 18.886719 0 L 37.777344 0 L 37.777344 -104.882812 L 37.109375 -133.550781 L 47.554688 -108.660156 L 88.441406 0 L 107.996094 0 L 145.769531 -105.105469 L 157.101562 -133.328125 L 156.660156 -104.882812 L 156.660156 0 L 175.546875 0 L 175.546875 -158.214844 L 146.882812 -158.214844 Z M 103.550781 -37.332031 "/></g></g></g><g fill="#ffffff" fill-opacity="1"><g transform="translate(639.893362, 243.613745)"><g><path d="M 152.4375 0 L 91.328125 -158.214844 L 67.996094 -158.214844 L 6.667969 0 L 28.664062 0 L 45.777344 -46.441406 L 112.882812 -46.441406 L 129.550781 0 Z M 74.441406 -124.4375 L 79.773438 -140.882812 L 84.882812 -124.4375 L 106.4375 -64.441406 L 52.441406 -64.441406 Z M 74.441406 -124.4375 "/></g></g></g><g fill="#ffffff" fill-opacity="1"><g transform="translate(821.854982, 243.613745)"><g/></g></g><g fill="#ffffff" fill-opacity="1"><g transform="translate(904.730701, 243.613745)"><g><path d="M 75.996094 3.332031 C 119.773438 3.332031 137.105469 -18.445312 137.105469 -43.554688 C 137.105469 -68.21875 121.105469 -82.21875 91.773438 -88.441406 L 63.996094 -94.441406 C 44.21875 -98.660156 36.441406 -105.773438 36.441406 -118.214844 C 36.441406 -134.882812 49.773438 -144.4375 72.441406 -144.4375 C 96.660156 -144.4375 110.660156 -133.769531 112.4375 -113.773438 L 132.214844 -113.773438 C 129.550781 -144.214844 108.21875 -161.324219 73.109375 -161.324219 C 36.664062 -161.324219 16.886719 -143.105469 16.886719 -116.4375 C 16.886719 -91.328125 35.554688 -80.664062 61.332031 -75.328125 L 83.550781 -70.664062 C 108.21875 -65.550781 117.105469 -57.332031 117.105469 -42.441406 C 117.105469 -24.664062 103.773438 -13.554688 76.664062 -13.554688 C 49.332031 -13.554688 33.332031 -24.886719 31.109375 -51.109375 L 11.332031 -51.109375 C 14 -14.664062 36.441406 3.332031 75.996094 3.332031 Z M 75.996094 3.332031 "/></g></g></g><g fill="#ffffff" fill-opacity="1"><g transform="translate(1076.02834, 243.613745)"><g><path d="M 39.554688 -72.441406 L 123.773438 -72.441406 L 123.773438 -90.441406 L 39.554688 -90.441406 L 39.554688 -140.214844 L 130.882812 -140.214844 L 130.882812 -158.214844 L 18.886719 -158.214844 L 18.886719 0 L 132.882812 0 L 132.882812 -18 L 39.554688 -18 Z M 39.554688 -72.441406 "/></g></g></g><g fill="#ffffff" fill-opacity="1"><g transform="translate(1246.215139, 243.613745)"><g><path d="M 136.660156 -50.441406 C 135.105469 -65.109375 126.214844 -74.21875 112.4375 -76.886719 C 129.105469 -81.550781 140.660156 -95.996094 140.660156 -116.4375 C 140.660156 -141.769531 122.4375 -158.214844 92.21875 -158.214844 L 18.886719 -158.214844 L 18.886719 0 L 39.554688 0 L 39.554688 -68.21875 L 88.441406 -68.21875 C 106.882812 -68.21875 114.882812 -60.886719 116.882812 -42.21875 L 121.550781 0 L 142.4375 0 Z M 39.554688 -86.21875 L 39.554688 -140.214844 L 88.664062 -140.214844 C 108.660156 -140.214844 119.550781 -131.105469 119.550781 -114.4375 C 119.550781 -96.441406 106.660156 -86.21875 85.105469 -86.21875 Z M 39.554688 -86.21875 "/></g></g></g><g fill="#ffffff" fill-opacity="1"><g transform="translate(1420.399448, 243.613745)"><g><path d="M 83.773438 -45.777344 L 75.996094 -21.777344 L 68.21875 -45.777344 L 29.554688 -158.214844 L 6.667969 -158.214844 L 63.773438 0 L 87.550781 0 L 144.214844 -158.214844 L 122.214844 -158.214844 Z M 83.773438 -45.777344 "/></g></g></g><g fill="#ffffff" fill-opacity="1"><g transform="translate(1594.140813, 243.613745)"><g><path d="M 39.554688 0 L 39.554688 -158.214844 L 18.886719 -158.214844 L 18.886719 0 Z M 39.554688 0 "/></g></g></g><g fill="#ffffff" fill-opacity="1"><g transform="translate(1675.461415, 243.613745)"><g><path d="M 85.773438 3.777344 C 122.882812 3.777344 147.324219 -19.554688 152.660156 -57.550781 L 132.214844 -57.550781 C 128.4375 -29.109375 111.328125 -14.664062 86.441406 -14.664062 C 54.21875 -14.664062 35.332031 -39.554688 35.332031 -79.105469 C 35.332031 -118.660156 54.441406 -142.660156 86.441406 -142.660156 C 108.21875 -142.660156 124.660156 -131.328125 129.550781 -110.4375 L 150.660156 -110.4375 C 145.769531 -141.546875 118.660156 -161.101562 85.550781 -161.101562 C 41.996094 -161.101562 14.222656 -127.550781 14.222656 -79.105469 C 14.222656 -31.109375 41.332031 3.777344 85.773438 3.777344 Z M 85.773438 3.777344 "/></g></g></g><g fill="#ffffff" fill-opacity="1"><g transform="translate(1860.977716, 243.613745)"><g><path d="M 39.554688 -72.441406 L 123.773438 -72.441406 L 123.773438 -90.441406 L 39.554688 -90.441406 L 39.554688 -140.214844 L 130.882812 -140.214844 L 130.882812 -158.214844 L 18.886719 -158.214844 L 18.886719 0 L 132.882812 0 L 132.882812 -18 L 39.554688 -18 Z M 39.554688 -72.441406 "/></g></g></g></g></g><g transform="matrix(1, 0, 0, 1, 1160, 811)"><g clip-path="url(#9ef230dd56)"><g fill="#ffffff" fill-opacity="1"><g transform="translate(1.085865, 71.737944)"><g><path d="M 11.015625 -24.378906 L 39.234375 -24.378906 L 39.234375 -28.148438 L 11.015625 -28.148438 L 11.015625 -46.839844 L 41.4375 -46.839844 L 41.4375 -50.609375 L 6.753906 -50.609375 L 6.753906 0 L 42.363281 0 L 42.363281 -3.765625 L 11.015625 -3.765625 Z M 11.015625 -24.378906 "/></g></g></g><g fill="#ffffff" fill-opacity="1"><g transform="translate(55.675102, 71.737944)"><g><path d="M 41.652344 -11.515625 C 41.652344 -9.382812 41.652344 -7.605469 41.722656 -5.96875 L 38.738281 -10.734375 L 11.371094 -50.609375 L 6.753906 -50.609375 L 6.753906 0 L 10.804688 0 L 10.804688 -39.09375 C 10.804688 -41.15625 10.804688 -42.933594 10.734375 -44.566406 L 13.789062 -39.804688 L 40.941406 0 L 45.773438 0 L 45.773438 -50.609375 L 41.652344 -50.609375 Z M 41.652344 -11.515625 "/></g></g></g><g fill="#ffffff" fill-opacity="1"><g transform="translate(115.524213, 71.737944)"><g><path d="M 11.015625 -24.378906 L 39.234375 -24.378906 L 39.234375 -28.148438 L 11.015625 -28.148438 L 11.015625 -46.839844 L 41.4375 -46.839844 L 41.4375 -50.609375 L 6.753906 -50.609375 L 6.753906 0 L 42.363281 0 L 42.363281 -3.765625 L 11.015625 -3.765625 Z M 11.015625 -24.378906 "/></g></g></g><g fill="#ffffff" fill-opacity="1"><g transform="translate(170.11345, 71.737944)"><g><path d="M 43.214844 -15.070312 C 42.578125 -20.398438 39.945312 -23.742188 34.472656 -24.59375 C 40.585938 -25.871094 44.566406 -30.421875 44.566406 -37.316406 C 44.566406 -45.492188 38.808594 -50.609375 29.570312 -50.609375 L 6.753906 -50.609375 L 6.753906 0 L 11.015625 0 L 11.015625 -22.746094 L 27.933594 -22.746094 C 36.179688 -22.746094 38.382812 -19.40625 39.09375 -13.433594 L 40.585938 0 L 44.921875 0 Z M 11.015625 -26.582031 L 11.015625 -46.839844 L 28.859375 -46.839844 C 36.109375 -46.839844 40.160156 -43.214844 40.160156 -36.960938 C 40.160156 -30.351562 35.539062 -26.582031 27.792969 -26.582031 Z M 11.015625 -26.582031 "/></g></g></g><g fill="#ffffff" fill-opacity="1"><g transform="translate(228.398861, 71.737944)"><g><path d="M 51.035156 -26.085938 L 29.425781 -26.085938 L 29.425781 -22.320312 L 46.769531 -22.320312 L 46.769531 -18.90625 C 45.277344 -8.8125 38.597656 -2.84375 28.644531 -2.84375 C 16.417969 -2.84375 9.453125 -12.082031 9.453125 -25.304688 C 9.453125 -39.023438 16.5625 -47.625 29 -47.625 C 38.878906 -47.625 44.851562 -42.648438 46.203125 -35.398438 L 50.324219 -35.683594 C 48.617188 -45.632812 40.375 -51.53125 28.789062 -51.53125 C 13.859375 -51.53125 5.046875 -41.15625 5.046875 -25.445312 C 5.046875 -9.453125 14.359375 1.066406 28.574219 1.066406 C 37.175781 1.066406 43.5 -2.773438 46.984375 -9.453125 L 47.765625 0 L 51.035156 0 Z M 51.035156 -26.085938 "/></g></g></g><g fill="#ffffff" fill-opacity="1"><g transform="translate(293.507938, 71.737944)"><g><path d="M 11.015625 0 L 11.015625 -50.609375 L 6.753906 -50.609375 L 6.753906 0 Z M 11.015625 0 "/></g></g></g><g fill="#ffffff" fill-opacity="1"><g transform="translate(318.598996, 71.737944)"><g><path d="M 48.476562 0 L 27.863281 -50.609375 L 23.101562 -50.609375 L 2.417969 0 L 7.035156 0 L 13.363281 -15.851562 L 37.457031 -15.851562 L 43.714844 0 Z M 24.378906 -43.359375 L 25.515625 -46.914062 L 26.65625 -43.359375 L 35.964844 -19.617188 L 14.855469 -19.617188 Z M 24.378906 -43.359375 "/></g></g></g><g fill="#ffffff" fill-opacity="1"><g transform="translate(376.843916, 71.737944)"><g/></g></g><g fill="#ffffff" fill-opacity="1"><g transform="translate(404.20953, 71.737944)"><g/></g></g><g fill="#ffffff" fill-opacity="1"><g transform="translate(431.575143, 71.737944)"><g/></g></g><g fill="#ffffff" fill-opacity="1"><g transform="translate(458.940756, 71.737944)"><g/></g></g><g fill="#ffffff" fill-opacity="1"><g transform="translate(486.30637, 71.737944)"><g/></g></g><g fill="#ffffff" fill-opacity="1"><g transform="translate(513.671983, 71.737944)"><g/></g></g><g fill="#ffffff" fill-opacity="1"><g transform="translate(541.122374, 71.737944)"><g><path d="M 27.648438 1.066406 C 39.164062 1.066406 47.410156 -6.539062 48.617188 -17.839844 L 44.355469 -17.839844 C 43.359375 -8.386719 36.675781 -2.84375 27.792969 -2.84375 C 16.207031 -2.84375 9.453125 -11.871094 9.453125 -25.375 C 9.453125 -39.164062 16.5625 -47.625 27.722656 -47.625 C 36.039062 -47.625 42.363281 -42.859375 43.855469 -35.328125 L 48.261719 -35.328125 C 46.839844 -44.921875 38.3125 -51.53125 27.578125 -51.53125 C 13.929688 -51.53125 5.046875 -41.011719 5.046875 -25.375 C 5.046875 -10.09375 13.503906 1.066406 27.648438 1.066406 Z M 27.648438 1.066406 "/></g></g></g><g fill="#ffffff" fill-opacity="1"><g transform="translate(600.616103, 71.737944)"><g><path d="M 11.015625 -50.609375 L 6.753906 -50.609375 L 6.753906 0 L 39.308594 0 L 39.308594 -3.765625 L 11.015625 -3.765625 Z M 11.015625 -50.609375 "/></g></g></g><g fill="#ffffff" fill-opacity="1"><g transform="translate(650.727269, 71.737944)"><g><path d="M 11.015625 0 L 11.015625 -50.609375 L 6.753906 -50.609375 L 6.753906 0 Z M 11.015625 0 "/></g></g></g><g fill="#ffffff" fill-opacity="1"><g transform="translate(675.818327, 71.737944)"><g><path d="M 32.980469 -8.386719 L 31.628906 -4.476562 L 30.28125 -8.386719 L 12.722656 -50.609375 L 6.753906 -50.609375 L 6.753906 0 L 10.660156 0 L 10.660156 -39.164062 L 10.519531 -45.492188 L 29.570312 0 L 33.621094 0 L 49.753906 -39.234375 L 52.242188 -45.417969 L 52.101562 -39.164062 L 52.101562 0 L 56.082031 0 L 56.082031 -50.609375 L 50.183594 -50.609375 Z M 32.980469 -8.386719 "/></g></g></g><g fill="#ffffff" fill-opacity="1"><g transform="translate(745.974068, 71.737944)"><g><path d="M 48.476562 0 L 27.863281 -50.609375 L 23.101562 -50.609375 L 2.417969 0 L 7.035156 0 L 13.363281 -15.851562 L 37.457031 -15.851562 L 43.714844 0 Z M 24.378906 -43.359375 L 25.515625 -46.914062 L 26.65625 -43.359375 L 35.964844 -19.617188 L 14.855469 -19.617188 Z M 24.378906 -43.359375 "/></g></g></g><g fill="#ffffff" fill-opacity="1"><g transform="translate(797.364773, 71.737944)"><g><path d="M 3.054688 -50.609375 L 3.054688 -46.839844 L 20.683594 -46.839844 L 20.683594 0 L 25.019531 0 L 25.019531 -46.839844 L 42.71875 -46.839844 L 42.71875 -50.609375 Z M 3.054688 -50.609375 "/></g></g></g><g fill="#ffffff" fill-opacity="1"><g transform="translate(850.461349, 71.737944)"><g><path d="M 11.015625 0 L 11.015625 -50.609375 L 6.753906 -50.609375 L 6.753906 0 Z M 11.015625 0 "/></g></g></g><g fill="#ffffff" fill-opacity="1"><g transform="translate(875.552408, 71.737944)"><g><path d="M 21.324219 -3.910156 C 17.414062 -3.910156 12.792969 -3.910156 9.242188 -3.695312 C 11.726562 -6.753906 14.214844 -9.878906 16.5625 -12.9375 L 42.363281 -47.125 L 42.363281 -50.609375 L 6.539062 -50.609375 L 6.539062 -46.699219 L 25.730469 -46.699219 C 29.425781 -46.699219 33.691406 -46.699219 37.246094 -46.839844 C 35.042969 -44.140625 32.839844 -41.4375 30.847656 -38.738281 L 4.691406 -4.195312 L 4.691406 0 L 43.429688 0 L 43.429688 -3.910156 Z M 21.324219 -3.910156 "/></g></g></g><g fill="#ffffff" fill-opacity="1"><g transform="translate(930.99458, 71.737944)"><g><path d="M 48.476562 0 L 27.863281 -50.609375 L 23.101562 -50.609375 L 2.417969 0 L 7.035156 0 L 13.363281 -15.851562 L 37.457031 -15.851562 L 43.714844 0 Z M 24.378906 -43.359375 L 25.515625 -46.914062 L 26.65625 -43.359375 L 35.964844 -19.617188 L 14.855469 -19.617188 Z M 24.378906 -43.359375 "/></g></g></g><g fill="#ffffff" fill-opacity="1"><g transform="translate(987.076476, 71.737944)"><g><path d="M 44.355469 -17.839844 C 43.359375 -8.386719 36.675781 -2.84375 27.792969 -2.84375 C 16.207031 -2.84375 9.453125 -11.871094 9.453125 -25.375 C 9.453125 -39.164062 16.5625 -47.625 27.722656 -47.625 C 36.039062 -47.625 42.363281 -42.859375 43.855469 -35.328125 L 48.261719 -35.328125 C 46.839844 -44.921875 38.3125 -51.53125 27.578125 -51.53125 C 13.929688 -51.53125 5.046875 -41.011719 5.046875 -25.375 C 5.046875 -11.015625 12.511719 -0.285156 25.234375 0.925781 L 22.53125 5.261719 L 23.882812 7.464844 L 26.867188 7.464844 C 29.640625 7.464844 30.777344 8.53125 30.777344 10.378906 C 30.777344 12.4375 29.214844 13.789062 25.160156 13.789062 L 22.957031 13.789062 L 22.957031 16.492188 L 25.445312 16.492188 C 30.992188 16.492188 34.1875 14.074219 34.1875 10.234375 C 34.1875 6.679688 31.773438 4.621094 27.507812 4.621094 L 25.589844 4.621094 L 27.863281 1.066406 C 39.234375 0.996094 47.410156 -6.609375 48.617188 -17.839844 Z M 44.355469 -17.839844 "/></g></g></g><g fill="#ffffff" fill-opacity="1"><g transform="translate(1046.570205, 71.737944)"><g><path d="M 19.617188 -63.402344 C 24.453125 -63.402344 24.664062 -56.011719 31.132812 -56.011719 C 35.398438 -56.011719 38.3125 -58.996094 38.453125 -66.671875 L 35.183594 -66.671875 C 34.972656 -61.269531 33.691406 -59.28125 31.132812 -59.28125 C 26.371094 -59.28125 26.085938 -66.671875 19.617188 -66.671875 C 15.496094 -66.671875 12.4375 -63.617188 12.296875 -56.011719 L 15.566406 -56.011719 C 15.78125 -61.339844 17.128906 -63.402344 19.617188 -63.402344 Z M 48.476562 0 L 27.863281 -50.609375 L 23.101562 -50.609375 L 2.417969 0 L 7.035156 0 L 13.363281 -15.851562 L 37.457031 -15.851562 L 43.714844 0 Z M 24.378906 -43.359375 L 25.515625 -46.914062 L 26.65625 -43.359375 L 35.964844 -19.617188 L 14.855469 -19.617188 Z M 24.378906 -43.359375 "/></g></g></g><g fill="#ffffff" fill-opacity="1"><g transform="translate(1102.652101, 71.737944)"><g><path d="M 28.644531 1.066406 C 42.933594 1.066406 52.3125 -9.878906 52.3125 -25.304688 C 52.3125 -40.65625 42.933594 -51.53125 28.644531 -51.53125 C 14.429688 -51.53125 5.046875 -40.65625 5.046875 -25.304688 C 5.046875 -9.949219 14.429688 1.066406 28.644531 1.066406 Z M 28.644531 -2.84375 C 17.128906 -2.84375 9.453125 -11.871094 9.453125 -25.304688 C 9.453125 -38.738281 17.128906 -47.625 28.644531 -47.625 C 40.230469 -47.625 47.90625 -38.738281 47.90625 -25.304688 C 47.90625 -11.800781 40.375 -2.84375 28.644531 -2.84375 Z M 28.644531 -2.84375 "/></g></g></g><g fill="#ffffff" fill-opacity="1"><g transform="translate(1167.416642, 71.737944)"><g/></g></g><g fill="#ffffff" fill-opacity="1"><g transform="translate(1194.782256, 71.737944)"><g/></g></g><g fill="#ffffff" fill-opacity="1"><g transform="translate(1222.147869, 71.737944)"><g/></g></g><g fill="#ffffff" fill-opacity="1"><g transform="translate(1249.513483, 71.737944)"><g/></g></g><g fill="#ffffff" fill-opacity="1"><g transform="translate(1276.879096, 71.737944)"><g/></g></g><g fill="#ffffff" fill-opacity="1"><g transform="translate(1304.244709, 71.737944)"><g/></g></g><g fill="#ffffff" fill-opacity="1"><g transform="translate(1331.69513, 71.737944)"><g><path d="M 43.214844 -15.070312 C 42.578125 -20.398438 39.945312 -23.742188 34.472656 -24.59375 C 40.585938 -25.871094 44.566406 -30.421875 44.566406 -37.316406 C 44.566406 -45.492188 38.808594 -50.609375 29.570312 -50.609375 L 6.753906 -50.609375 L 6.753906 0 L 11.015625 0 L 11.015625 -22.746094 L 27.933594 -22.746094 C 36.179688 -22.746094 38.382812 -19.40625 39.09375 -13.433594 L 40.585938 0 L 44.921875 0 Z M 11.015625 -26.582031 L 11.015625 -46.839844 L 28.859375 -46.839844 C 36.109375 -46.839844 40.160156 -43.214844 40.160156 -36.960938 C 40.160156 -30.351562 35.539062 -26.582031 27.792969 -26.582031 Z M 11.015625 -26.582031 "/></g></g></g><g fill="#ffffff" fill-opacity="1"><g transform="translate(1389.980541, 71.737944)"><g><path d="M 11.015625 -24.378906 L 39.234375 -24.378906 L 39.234375 -28.148438 L 11.015625 -28.148438 L 11.015625 -46.839844 L 41.4375 -46.839844 L 41.4375 -50.609375 L 6.753906 -50.609375 L 6.753906 0 L 42.363281 0 L 42.363281 -3.765625 L 11.015625 -3.765625 Z M 11.015625 -24.378906 "/></g></g></g><g fill="#ffffff" fill-opacity="1"><g transform="translate(1444.569778, 71.737944)"><g><path d="M 40.941406 -50.609375 L 6.753906 -50.609375 L 6.753906 0 L 11.015625 0 L 11.015625 -24.238281 L 36.394531 -24.238281 L 36.394531 -28.078125 L 11.015625 -28.078125 L 11.015625 -46.839844 L 40.941406 -46.839844 Z M 40.941406 -50.609375 "/></g></g></g><g fill="#ffffff" fill-opacity="1"><g transform="translate(1494.894246, 71.737944)"><g><path d="M 43.214844 -15.070312 C 42.578125 -20.398438 39.945312 -23.742188 34.472656 -24.59375 C 40.585938 -25.871094 44.566406 -30.421875 44.566406 -37.316406 C 44.566406 -45.492188 38.808594 -50.609375 29.570312 -50.609375 L 6.753906 -50.609375 L 6.753906 0 L 11.015625 0 L 11.015625 -22.746094 L 27.933594 -22.746094 C 36.179688 -22.746094 38.382812 -19.40625 39.09375 -13.433594 L 40.585938 0 L 44.921875 0 Z M 11.015625 -26.582031 L 11.015625 -46.839844 L 28.859375 -46.839844 C 36.109375 -46.839844 40.160156 -43.214844 40.160156 -36.960938 C 40.160156 -30.351562 35.539062 -26.582031 27.792969 -26.582031 Z M 11.015625 -26.582031 "/></g></g></g><g fill="#ffffff" fill-opacity="1"><g transform="translate(1553.179657, 71.737944)"><g><path d="M 11.015625 0 L 11.015625 -50.609375 L 6.753906 -50.609375 L 6.753906 0 Z M 11.015625 0 "/></g></g></g><g fill="#ffffff" fill-opacity="1"><g transform="translate(1578.270715, 71.737944)"><g><path d="M 51.035156 -26.085938 L 29.425781 -26.085938 L 29.425781 -22.320312 L 46.769531 -22.320312 L 46.769531 -18.90625 C 45.277344 -8.8125 38.597656 -2.84375 28.644531 -2.84375 C 16.417969 -2.84375 9.453125 -12.082031 9.453125 -25.304688 C 9.453125 -39.023438 16.5625 -47.625 29 -47.625 C 38.878906 -47.625 44.851562 -42.648438 46.203125 -35.398438 L 50.324219 -35.683594 C 48.617188 -45.632812 40.375 -51.53125 28.789062 -51.53125 C 13.859375 -51.53125 5.046875 -41.15625 5.046875 -25.445312 C 5.046875 -9.453125 14.359375 1.066406 28.574219 1.066406 C 37.175781 1.066406 43.5 -2.773438 46.984375 -9.453125 L 47.765625 0 L 51.035156 0 Z M 51.035156 -26.085938 "/></g></g></g><g fill="#ffffff" fill-opacity="1"><g transform="translate(1643.379792, 71.737944)"><g><path d="M 11.015625 -24.378906 L 39.234375 -24.378906 L 39.234375 -28.148438 L 11.015625 -28.148438 L 11.015625 -46.839844 L 41.4375 -46.839844 L 41.4375 -50.609375 L 6.753906 -50.609375 L 6.753906 0 L 42.363281 0 L 42.363281 -3.765625 L 11.015625 -3.765625 Z M 11.015625 -24.378906 "/></g></g></g><g fill="#ffffff" fill-opacity="1"><g transform="translate(1697.969028, 71.737944)"><g><path d="M 43.214844 -15.070312 C 42.578125 -20.398438 39.945312 -23.742188 34.472656 -24.59375 C 40.585938 -25.871094 44.566406 -30.421875 44.566406 -37.316406 C 44.566406 -45.492188 38.808594 -50.609375 29.570312 -50.609375 L 6.753906 -50.609375 L 6.753906 0 L 11.015625 0 L 11.015625 -22.746094 L 27.933594 -22.746094 C 36.179688 -22.746094 38.382812 -19.40625 39.09375 -13.433594 L 40.585938 0 L 44.921875 0 Z M 11.015625 -26.582031 L 11.015625 -46.839844 L 28.859375 -46.839844 C 36.109375 -46.839844 40.160156 -43.214844 40.160156 -36.960938 C 40.160156 -30.351562 35.539062 -26.582031 27.792969 -26.582031 Z M 11.015625 -26.582031 "/></g></g></g><g fill="#ffffff" fill-opacity="1"><g transform="translate(1756.25444, 71.737944)"><g><path d="M 48.476562 0 L 27.863281 -50.609375 L 23.101562 -50.609375 L 2.417969 0 L 7.035156 0 L 13.363281 -15.851562 L 37.457031 -15.851562 L 43.714844 0 Z M 24.378906 -43.359375 L 25.515625 -46.914062 L 26.65625 -43.359375 L 35.964844 -19.617188 L 14.855469 -19.617188 Z M 24.378906 -43.359375 "/></g></g></g><g fill="#ffffff" fill-opacity="1"><g transform="translate(1812.336336, 71.737944)"><g><path d="M 44.355469 -17.839844 C 43.359375 -8.386719 36.675781 -2.84375 27.792969 -2.84375 C 16.207031 -2.84375 9.453125 -11.871094 9.453125 -25.375 C 9.453125 -39.164062 16.5625 -47.625 27.722656 -47.625 C 36.039062 -47.625 42.363281 -42.859375 43.855469 -35.328125 L 48.261719 -35.328125 C 46.839844 -44.921875 38.3125 -51.53125 27.578125 -51.53125 C 13.929688 -51.53125 5.046875 -41.011719 5.046875 -25.375 C 5.046875 -11.015625 12.511719 -0.285156 25.234375 0.925781 L 22.53125 5.261719 L 23.882812 7.464844 L 26.867188 7.464844 C 29.640625 7.464844 30.777344 8.53125 30.777344 10.378906 C 30.777344 12.4375 29.214844 13.789062 25.160156 13.789062 L 22.957031 13.789062 L 22.957031 16.492188 L 25.445312 16.492188 C 30.992188 16.492188 34.1875 14.074219 34.1875 10.234375 C 34.1875 6.679688 31.773438 4.621094 27.507812 4.621094 L 25.589844 4.621094 L 27.863281 1.066406 C 39.234375 0.996094 47.410156 -6.609375 48.617188 -17.839844 Z M 44.355469 -17.839844 "/></g></g></g><g fill="#ffffff" fill-opacity="1"><g transform="translate(1871.830065, 71.737944)"><g><path d="M 19.617188 -63.402344 C 24.453125 -63.402344 24.664062 -56.011719 31.132812 -56.011719 C 35.398438 -56.011719 38.3125 -58.996094 38.453125 -66.671875 L 35.183594 -66.671875 C 34.972656 -61.269531 33.691406 -59.28125 31.132812 -59.28125 C 26.371094 -59.28125 26.085938 -66.671875 19.617188 -66.671875 C 15.496094 -66.671875 12.4375 -63.617188 12.296875 -56.011719 L 15.566406 -56.011719 C 15.78125 -61.339844 17.128906 -63.402344 19.617188 -63.402344 Z M 48.476562 0 L 27.863281 -50.609375 L 23.101562 -50.609375 L 2.417969 0 L 7.035156 0 L 13.363281 -15.851562 L 37.457031 -15.851562 L 43.714844 0 Z M 24.378906 -43.359375 L 25.515625 -46.914062 L 26.65625 -43.359375 L 35.964844 -19.617188 L 14.855469 -19.617188 Z M 24.378906 -43.359375 "/></g></g></g><g fill="#ffffff" fill-opacity="1"><g transform="translate(1927.911962, 71.737944)"><g><path d="M 28.644531 1.066406 C 42.933594 1.066406 52.3125 -9.878906 52.3125 -25.304688 C 52.3125 -40.65625 42.933594 -51.53125 28.644531 -51.53125 C 14.429688 -51.53125 5.046875 -40.65625 5.046875 -25.304688 C 5.046875 -9.949219 14.429688 1.066406 28.644531 1.066406 Z M 28.644531 -2.84375 C 17.128906 -2.84375 9.453125 -11.871094 9.453125 -25.304688 C 9.453125 -38.738281 17.128906 -47.625 28.644531 -47.625 C 40.230469 -47.625 47.90625 -38.738281 47.90625 -25.304688 C 47.90625 -11.800781 40.375 -2.84375 28.644531 -2.84375 Z M 28.644531 -2.84375 "/></g></g></g></g></g><g clip-path="url(#53a6103a74)"><path fill="#ffffff" d="M 424.539062 577.996094 C 503.726562 578.003906 568.96875 578.320312 569.519531 578.695312 C 570.066406 579.070312 585.824219 599.191406 604.53125 623.40625 L 638.542969 667.4375 L 638.535156 758.003906 C 638.535156 816.75 638.199219 849.761719 637.585938 851.980469 C 636.125 857.242188 629.59375 866.40625 621.71875 874.238281 C 616.171875 879.753906 612.671875 882.296875 606.0625 885.605469 L 597.546875 889.875 L 340.382812 889.875 L 425.679688 804.488281 L 551.828125 804.011719 L 552.304688 664.308594 L 366.808594 664.308594 L 366.808594 789.167969 L 280.554688 875.476562 L 280.554688 577.984375 Z M 424.539062 577.996094 " fill-opacity="1" fill-rule="nonzero"/></g><g clip-path="url(#3495fc2f01)"><path fill="#ffffff" d="M 1046.609375 664.308594 L 774.875 664.308594 L 774.875 692.15625 L 1009.976562 692.203125 L 1015.234375 694.367188 C 1026.636719 699.0625 1037.726562 709.03125 1043.226562 719.539062 L 1046.144531 725.109375 L 1046.648438 889.875 L 688.621094 889.875 L 688.621094 804.476562 L 960.359375 804.476562 L 960.359375 777.554688 L 688.621094 777.554688 L 688.621094 667.128906 L 757.511719 577.984375 L 1046.609375 577.984375 Z M 1046.609375 664.308594 " fill-opacity="1" fill-rule="nonzero"/></g><path fill="#3ec2f4" d="M 700.214844 618.828125 L 663.519531 670.722656 C 663.519531 670.722656 626.605469 618.796875 626.484375 618.828125 Z M 700.214844 618.828125 " fill-opacity="1" fill-rule="nonzero"/><g clip-path="url(#27c1c299c0)"><path fill="#1d7cb4" d="M 663.679688 577.984375 C 721.664062 577.984375 728.039062 577.984375 728.039062 577.984375 C 728.019531 577.984375 715.980469 596.085938 715.980469 596.085938 L 705.132812 612.328125 L 621.960938 612.328125 L 610.71875 596.085938 L 598.664062 577.984375 C 599.589844 577.984375 616.839844 577.984375 663.679688 577.984375 Z M 663.679688 577.984375 " fill-opacity="1" fill-rule="nonzero"/></g></svg>