<?xml version="1.0" encoding="UTF-8" standalone="no"?>
<!DOCTYPE svg PUBLIC "-//W3C//DTD SVG 1.1//EN" "http://www.w3.org/Graphics/SVG/1.1/DTD/svg11.dtd">
<svg width="100%" height="100%" viewBox="0 0 585 195" version="1.1" xmlns="http://www.w3.org/2000/svg" xmlns:xlink="http://www.w3.org/1999/xlink" xml:space="preserve" xmlns:serif="http://www.serif.com/" style="fill-rule:evenodd;clip-rule:evenodd;stroke-linejoin:round;stroke-miterlimit:2;">
    <g transform="matrix(1,0,0,1,-397.371178,-82.669519)">
        <g transform="matrix(1,0,0,1,-25.628822,-20.330481)">
            <path id="path2388" d="M935.5,296.508C926.512,294.631 922.934,293.182 916.18,288.685C907.511,282.911 897.743,271.061 895.42,263.497C894.752,261.32 894.425,264.809 894.225,276.25L893.949,292L816,292L816,109L863,109L863,254L891.5,254.001L891.216,202.018C890.94,151.538 890.993,149.835 893.045,143.077C895.49,135.029 900.534,126.165 905.813,120.642C909.957,116.306 919.409,109 920.874,109C921.402,109 921.983,108.638 922.167,108.197C922.35,107.755 925.663,106.405 929.528,105.197C935.327,103.384 938.948,103 950.231,103C957.752,103 964.94,103.392 966.203,103.872C967.466,104.352 970.3,105.316 972.5,106.016C984.062,109.691 997.405,122.339 1003.381,135.286C1007.799,144.86 1008,147.671 1008,200C1008,254.122 1007.876,255.582 1002.334,266.924C999.138,273.462 998.076,274.88 991,282.056C977.906,295.336 956.532,300.901 935.5,296.508ZM957.39,256.908C962.945,252.538 963,251.978 963,199.532C963,148.054 962.997,148.022 958.048,143.543C955.131,140.904 947.428,140.315 943.499,142.431C936.968,145.948 937,145.661 937,200.6C937,236.179 937.326,250.747 938.157,252.316C938.794,253.517 940.481,255.512 941.907,256.749C945.445,259.817 953.586,259.9 957.39,256.908ZM423,292L423,109L507.208,109L514.354,112.729C532.551,122.225 541,136.103 541,156.5C541,175.64 533.317,190.267 518.252,199.809C514.152,202.406 512.915,204 515,204C520.356,214.13 525.697,225.535 530.766,236.167C531.187,236.35 537.6,248.65 545.016,263.5L558.5,290.5L559.011,109L604,109L604,292L558.25,291.927L512.5,291.853L500.75,268.114C493.597,252.19 485.334,236.94 477.754,221.02L468.5,202.539L468.24,247.27L467.979,292L423,292ZM479.5,195.426C484.845,193.2 486.849,190.698 489.982,182.342C491.578,178.087 491.501,159.084 489.87,154.301C486.879,145.535 481.996,142 472.878,142L468,142L468,198.024L472.25,197.35C474.587,196.979 477.85,196.114 479.5,195.426ZM624.76,200.5L625.021,109L717,109L717,142L670,142L670,181L713,181L713,215L670,215L670,254L719,254L719,292L624.5,292L624.76,200.5ZM729,292L729,109L776,109L776,254L807,254L807,292L729,292Z" style="fill:rgb(205,0,11);fill-rule:nonzero;"/>
        </g>
    </g>
</svg>
