<?xml version="1.0" encoding="UTF-8" standalone="no"?>
<!-- Created with Inkscape (http://www.inkscape.org/) -->

<svg
   xmlns:dc="http://purl.org/dc/elements/1.1/"
   xmlns:cc="http://creativecommons.org/ns#"
   xmlns:rdf="http://www.w3.org/1999/02/22-rdf-syntax-ns#"
   xmlns:svg="http://www.w3.org/2000/svg"
   xmlns="http://www.w3.org/2000/svg"
   xmlns:sodipodi="http://sodipodi.sourceforge.net/DTD/sodipodi-0.dtd"
   xmlns:inkscape="http://www.inkscape.org/namespaces/inkscape"
   version="1.1"
   id="svg2"
   xml:space="preserve"
   width="746.06628"
   height="125.21149"
   viewBox="0 0 746.06627 125.21148"
   sodipodi:docname="Saunier Duval.svg"
   inkscape:version="0.92.4 (5da689c313, 2019-01-14)"><metadata
     id="metadata8"><rdf:RDF><cc:Work
         rdf:about=""><dc:format>image/svg+xml</dc:format><dc:type
           rdf:resource="http://purl.org/dc/dcmitype/StillImage" /><dc:title></dc:title></cc:Work></rdf:RDF></metadata><defs
     id="defs6"><clipPath
       clipPathUnits="userSpaceOnUse"
       id="clipPath46"><path
         d="m 5.244,642.472 h 29.197 v 39.686 H 5.244 Z"
         id="path44"
         inkscape:connector-curvature="0" /></clipPath><clipPath
       clipPathUnits="userSpaceOnUse"
       id="clipPath58"><path
         d="M 0,0 H 39.685 V 841.89 H 0 Z"
         id="path56"
         inkscape:connector-curvature="0" /></clipPath></defs><sodipodi:namedview
     pagecolor="#ffffff"
     bordercolor="#666666"
     borderopacity="1"
     objecttolerance="10"
     gridtolerance="10"
     guidetolerance="10"
     inkscape:pageopacity="0"
     inkscape:pageshadow="2"
     inkscape:window-width="1920"
     inkscape:window-height="1001"
     id="namedview4"
     showgrid="false"
     inkscape:pagecheckerboard="true"
     fit-margin-top="0"
     fit-margin-left="0"
     fit-margin-right="0"
     fit-margin-bottom="0"
     inkscape:zoom="1.189304"
     inkscape:cx="469.07929"
     inkscape:cy="78.514986"
     inkscape:window-x="-9"
     inkscape:window-y="-9"
     inkscape:window-maximized="1"
     inkscape:current-layer="g10" /><g
     id="g10"
     inkscape:groupmode="layer"
     inkscape:label="CATALOGUE TARIF Saunier Duval"
     transform="matrix(1.3333333,0,0,-1.3333333,369.3924,254.20192)"><g
       id="g381"
       transform="matrix(3.3643327,0,0,3.3643327,-6.4559405,-339.74782)"><g
         style="fill:#d30030;fill-opacity:1"
         transform="rotate(-90,-281.83931,445.24744)"
         id="g40"><g
           style="fill:#d30030;fill-opacity:1"
           clip-path="url(#clipPath46)"
           id="g42"><g
             style="fill:#d30030;fill-opacity:1"
             transform="translate(18.5185,669.4318)"
             id="g48"><path
               inkscape:connector-curvature="0"
               id="path50"
               style="fill:#d30030;fill-opacity:1;fill-rule:evenodd;stroke:none"
               d="m 0,0 c -0.014,-0.524 -0.451,-0.937 -0.976,-0.922 -0.522,0.014 -0.936,0.45 -0.921,0.974 0.015,0.524 0.451,0.938 0.975,0.923 C -0.398,0.959 0.013,0.524 0,0 m 3.881,-6.753 -3.315,2.314 c 0.967,0.301 1.693,0.762 2.355,1.529 z M -4.053,4.811 C -4.87,4.227 -6.246,2.848 -6.246,0.547 c 0,-2.127 1.339,-4.488 4.173,-5.141 0.763,-0.177 1.529,-0.126 2.244,0.046 -0.151,-0.646 -0.523,-1.225 -1.223,-1.689 -1.731,-1.151 -11.712,-7.911 -11.712,-7.911 0.081,-0.172 0.227,-0.456 0.485,-0.865 1.031,-1.634 2.84,-0.336 3.409,0.062 0.218,0.153 8.926,6.031 8.926,6.031 0,0 0.394,-0.721 -0.135,-1.073 -0.531,-0.353 -10.753,-7.266 -10.753,-7.266 0.192,-0.253 0.361,-0.504 0.764,-0.877 0.914,-0.841 2.16,-0.217 2.836,0.253 0.218,0.153 7.288,4.923 7.288,4.923 0,0 0.33,-0.79 -0.154,-1.114 -0.484,-0.322 -8.287,-5.598 -8.287,-5.598 0.173,-0.135 0.443,-0.406 0.894,-0.684 1.178,-0.72 2.102,-0.098 2.567,0.217 0.24,0.162 4.996,3.374 4.996,3.374 0,0 0.335,-0.735 -0.092,-1.019 -0.428,-0.285 -5.375,-3.63 -5.375,-3.63 0.213,-0.132 0.412,-0.28 1.04,-0.498 1.123,-0.394 1.766,-0.149 2.362,0.254 l 2.049,1.383 c 0,0 0.357,-0.687 -0.088,-0.983 -0.418,-0.278 -1.974,-1.333 -1.974,-1.333 12.166,-1.6 17.155,7.653 17.155,14.554 0,6.163 -3.003,9.807 -4.939,11.373 C 4.513,7.937 -1.252,6.815 -4.053,4.811" /></g></g></g><g
         style="fill:#000000;fill-opacity:1"
         transform="rotate(-90,-281.83931,445.24744)"
         id="g52"><g
           style="fill:#000000;fill-opacity:1"
           clip-path="url(#clipPath58)"
           id="g54"><g
             style="fill:#000000;fill-opacity:1"
             transform="translate(27.6767,691.0861)"
             id="g60"><path
               inkscape:connector-curvature="0"
               id="path62"
               style="fill:#000000;fill-opacity:1;fill-rule:nonzero;stroke:none"
               d="m 0,0 c 0.152,6.57 -3.171,6.768 -4.662,6.768 -3.195,0 -4.496,-1.688 -4.496,-5.819 0,-2.232 -0.147,-3.129 -0.574,-3.553 -0.323,-0.321 -0.885,-0.315 -1.443,-0.308 -1.587,0.018 -2.36,0.287 -2.307,4.127 0.024,1.8 0.164,3.289 0.23,4.003 0.038,0.397 -0.236,0.642 -0.58,0.642 h -0.947 c -0.373,0 -0.723,-0.313 -0.764,-0.685 0,-0.017 -0.195,-1.894 -0.226,-4.124 -0.061,-4.403 1.429,-6.54 4.494,-6.54 3.136,0 4.472,1.666 4.472,5.574 0,0.352 0.016,0.825 0.016,0.825 0.096,2.989 0.641,3.256 2.171,3.256 1.631,0 2.312,-0.57 2.312,-4.098 0,-0.048 -0.003,-0.146 -0.005,-0.212 -0.038,-2.48 -0.286,-4.372 -0.29,-4.392 -0.051,-0.386 0.229,-0.633 0.558,-0.633 h 0.94 c 0.374,0 0.73,0.312 0.771,0.684 C -0.302,-4.241 -0.048,-2.086 0,0" /></g><g
             style="fill:#000000;fill-opacity:1"
             transform="translate(14.9238,736.7665)"
             id="g64"><path
               inkscape:connector-curvature="0"
               id="path66"
               style="fill:#000000;fill-opacity:1;fill-rule:nonzero;stroke:none"
               d="m 0,0 v -1.239 c 0,-0.369 -0.3,-0.668 -0.667,-0.668 h -1.585 c -0.369,0 -0.668,0.299 -0.668,0.668 V 0 c 0,0.362 0.307,0.671 0.668,0.669 L -0.667,0.67 C -0.3,0.67 0,0.371 0,0" /></g><g
             style="fill:#000000;fill-opacity:1"
             transform="translate(26.9142,737.3861)"
             id="g68"><path
               inkscape:connector-curvature="0"
               id="path70"
               style="fill:#000000;fill-opacity:1;fill-rule:nonzero;stroke:none"
               d="m 0,0 c 0.369,0 0.669,-0.3 0.669,-0.667 v -1.144 c 0,-0.368 -0.3,-0.67 -0.669,-0.67 h -9.295 c -0.369,0 -0.669,0.302 -0.669,0.67 v 1.144 c 0,0.367 0.3,0.667 0.669,0.667 z" /></g><g
             style="fill:#000000;fill-opacity:1"
             transform="translate(23.3216,741.9469)"
             id="g72"><path
               inkscape:connector-curvature="0"
               id="path74"
               style="fill:#000000;fill-opacity:1;fill-rule:nonzero;stroke:none"
               d="M 0,0 V 6.984 C 0,7.418 -0.204,7.653 -0.472,7.653 H -1.14 c -3.602,0 -5.427,-1.728 -5.427,-5.133 0,-3.228 2.074,-5.157 5.549,-5.157 3.635,0 5.404,1.855 5.404,5.671 0,1.72 -0.129,2.65 -0.162,2.95 C 4.182,6.358 3.814,6.672 3.438,6.672 H 2.587 C 2.222,6.672 1.974,6.39 2.011,6.031 2.033,5.807 2.175,4.529 2.175,3.181 2.175,0.487 0.863,0.12 0,0 m -2.136,-0.034 -0.233,0.04 c -1.671,0.297 -2.013,1.249 -2.013,2.587 0,1.636 0.549,2.31 2.024,2.49 l 0.222,0.025 z" /></g><g
             style="fill:#000000;fill-opacity:1"
             transform="translate(17.8483,753.7601)"
             id="g76"><path
               inkscape:connector-curvature="0"
               id="path78"
               style="fill:#000000;fill-opacity:1;fill-rule:nonzero;stroke:none"
               d="M 0,0 H -0.383 C -0.511,0 -0.898,0 -0.898,-0.668 V -1.81 c 0,-0.371 0.3,-0.668 0.669,-0.668 h 9.295 c 0.405,0 0.669,0.344 0.669,0.668 v 1.142 C 9.735,-0.298 9.435,0 9.066,0 H 4.882 C 4.392,0 3.604,0.086 3.125,0.192 2.441,0.354 1.386,1.003 1.386,2.336 c 0,0.695 0.012,0.87 0.016,0.889 0.033,0.372 -0.24,0.644 -0.588,0.644 h -0.973 c -0.573,0 -0.81,-0.241 -0.81,-0.655 0,0 -0.004,-0.144 -0.004,-0.414 0,-1.014 0.191,-1.424 0.35,-1.804 C -0.427,0.531 -0.239,0.313 0,0" /></g><g
             style="fill:#000000;fill-opacity:1"
             transform="translate(12.0036,767.7618)"
             id="g80"><path
               inkscape:connector-curvature="0"
               id="path82"
               style="fill:#000000;fill-opacity:1;fill-rule:nonzero;stroke:none"
               d="m 0,0 v -4.774 c 0,-0.371 0.3,-0.67 0.669,-0.67 h 14.242 c 0.369,0 0.668,0.299 0.668,0.67 v 4.75 c 0,4.639 -2.633,6.993 -7.825,6.993 C 2.61,6.969 0,4.625 0,0 M 13.25,-0.294 V -2.867 L 2.286,-2.877 v 2.572 c 0,3.449 1.44,4.562 5.638,4.562 4.496,0 5.326,-1.559 5.326,-4.551" /></g><g
             style="fill:#000000;fill-opacity:1"
             transform="translate(27.7792,716.0609)"
             id="g84"><path
               inkscape:connector-curvature="0"
               id="path86"
               style="fill:#000000;fill-opacity:1;fill-rule:nonzero;stroke:none"
               d="m 0,0 c 0,-3.213 -1.565,-4.864 -4.815,-4.864 h -5.345 c -0.343,0 -0.669,0.285 -0.669,0.669 v 1.142 c 0,0.368 0.3,0.67 0.669,0.67 h 5.126 c 2.394,0 2.922,0.631 2.922,2.36 0,1.84 -0.71,2.432 -2.922,2.432 h -5.126 c -0.364,0 -0.669,0.297 -0.669,0.669 v 1.141 c 0,0.367 0.3,0.67 0.669,0.67 h 5.345 C -1.619,4.889 0,3.242 0,0" /></g><g
             style="fill:#000000;fill-opacity:1"
             transform="translate(26.9142,732.6627)"
             id="g88"><path
               inkscape:connector-curvature="0"
               id="path90"
               style="fill:#000000;fill-opacity:1;fill-rule:nonzero;stroke:none"
               d="m 0,0 h -5.59 c -3.246,0 -4.569,-1.19 -4.569,-4.102 0,-1.275 0.201,-2.114 0.65,-2.731 l 0.231,-0.315 -0.171,-0.001 c -0.127,0 -0.515,0 -0.515,-0.668 V -8.96 c 0,-0.373 0.305,-0.669 0.669,-0.669 H 0 c 0.369,0 0.669,0.302 0.669,0.669 v 1.143 c 0,0.367 -0.3,0.667 -0.669,0.667 h -5.369 c -1.979,0 -2.678,0.404 -2.678,2.335 0,1.833 0.576,2.336 2.678,2.336 H 0 c 0.369,0 0.669,0.302 0.669,0.67 v 1.142 C 0.669,-0.3 0.369,0 0,0" /></g><g
             style="fill:#000000;fill-opacity:1"
             transform="translate(27.7792,781.3519)"
             id="g92"><path
               inkscape:connector-curvature="0"
               id="path94"
               style="fill:#000000;fill-opacity:1;fill-rule:nonzero;stroke:none"
               d="m 0,0 c 0,-3.213 -1.565,-4.865 -4.815,-4.865 h -5.345 c -0.343,0 -0.669,0.285 -0.669,0.669 v 1.142 c 0,0.368 0.3,0.671 0.669,0.671 h 5.126 c 2.394,0 2.922,0.63 2.922,2.36 0,1.839 -0.71,2.431 -2.922,2.431 h -5.126 c -0.364,0 -0.669,0.298 -0.669,0.67 v 1.141 c 0,0.367 0.3,0.669 0.669,0.669 h 5.345 C -1.619,4.888 0,3.242 0,0" /></g><g
             style="fill:#000000;fill-opacity:1"
             transform="translate(16.9503,798.0951)"
             id="g96"><path
               inkscape:connector-curvature="0"
               id="path98"
               style="fill:#000000;fill-opacity:1;fill-rule:nonzero;stroke:none"
               d="M 0,0 V -1.228 C 0,-1.627 0.31,-2.095 0.675,-2.25 L 7.537,-5.133 0.675,-8.041 C 0.31,-8.197 0,-8.665 0,-9.064 v -1.351 c 0,-0.312 0.197,-0.479 0.518,-0.338 l 9.439,4.113 c 0.44,0.192 0.676,0.574 0.676,1.033 v 0.826 c 0,0.485 -0.221,0.835 -0.676,1.03 L 0.518,0.34 C 0.212,0.473 0,0.334 0,0" /></g><g
             style="fill:#000000;fill-opacity:1"
             transform="translate(26.9142,812.9764)"
             id="g100"><path
               inkscape:connector-curvature="0"
               id="path102"
               style="fill:#000000;fill-opacity:1;fill-rule:nonzero;stroke:none"
               d="m 0,0 c 0.368,0 0.669,-0.297 0.669,-0.668 v -1.141 c 0,-0.369 -0.3,-0.67 -0.669,-0.67 h -14.242 c -0.369,0 -0.669,0.301 -0.669,0.67 v 1.141 c 0,0.407 0.341,0.668 0.669,0.668 z" /></g><g
             style="fill:#000000;fill-opacity:1"
             transform="translate(20.8812,706.6222)"
             id="g104"><path
               inkscape:connector-curvature="0"
               id="path106"
               style="fill:#000000;fill-opacity:1;fill-rule:nonzero;stroke:none"
               d="m 0,0 c -0.782,-0.055 -1.844,-0.056 -1.844,-2.256 0,-2.3 0.129,-3.067 0.184,-3.405 0.05,-0.307 -0.09,-0.603 -0.481,-0.603 h -0.8 c -0.386,0 -0.786,0.317 -0.876,0.691 -0.095,0.384 -0.237,1.622 -0.237,3.488 0,3.207 1.31,4.618 4.669,4.618 h 5.418 c 0.369,0 0.669,-0.3 0.669,-0.67 V 0.722 C 6.702,0.054 6.313,0.054 6.187,0.054 H 5.804 c 0.239,-0.313 0.499,-0.599 0.671,-1.073 0.004,-0.009 0.423,-0.973 0.423,-2.218 0,-2.656 -1.014,-4.128 -3.321,-4.128 -2.562,0 -3.17,1.733 -3.295,4.336 C 0.234,-1.969 0.108,-0.596 0,0 m 1.942,0.053 c 0.144,-0.807 0.221,-1.739 0.279,-2.934 0.074,-1.592 0.309,-1.956 1.258,-1.956 0.886,0 1.307,0.307 1.307,2.041 0,1.092 -0.238,1.886 -0.713,2.358 -0.327,0.327 -0.756,0.491 -1.279,0.491 z" /></g><g
             style="fill:#000000;fill-opacity:1"
             transform="translate(20.8812,805.8412)"
             id="g108"><path
               inkscape:connector-curvature="0"
               id="path110"
               style="fill:#000000;fill-opacity:1;fill-rule:nonzero;stroke:none"
               d="m 0,0 c -0.782,-0.056 -1.844,-0.056 -1.844,-2.256 0,-2.3 0.129,-3.066 0.184,-3.404 0.05,-0.308 -0.09,-0.604 -0.481,-0.604 h -0.8 c -0.386,0 -0.786,0.318 -0.876,0.692 -0.095,0.384 -0.237,1.621 -0.237,3.486 0,3.208 1.31,4.619 4.669,4.619 h 5.418 c 0.369,0 0.669,-0.299 0.669,-0.67 V 0.722 C 6.702,0.054 6.313,0.054 6.187,0.054 H 5.804 c 0.239,-0.313 0.499,-0.599 0.671,-1.074 0.004,-0.008 0.423,-0.972 0.423,-2.217 0,-2.656 -1.014,-4.128 -3.321,-4.128 -2.562,0 -3.17,1.733 -3.295,4.336 C 0.234,-1.969 0.108,-0.596 0,0 m 1.942,0.053 c 0.144,-0.807 0.221,-1.739 0.279,-2.934 0.074,-1.591 0.309,-1.956 1.258,-1.956 0.886,0 1.307,0.306 1.307,2.041 0,1.092 -0.238,1.885 -0.713,2.358 -0.327,0.327 -0.756,0.491 -1.279,0.491 z" /></g></g></g></g></g></svg>