<?xml version="1.0" encoding="UTF-8" standalone="no"?>
<!DOCTYPE svg PUBLIC "-//W3C//DTD SVG 1.1//EN" "http://www.w3.org/Graphics/SVG/1.1/DTD/svg11.dtd">
<svg width="100%" height="100%" viewBox="0 0 290 29" version="1.1" xmlns="http://www.w3.org/2000/svg" xmlns:xlink="http://www.w3.org/1999/xlink" xml:space="preserve" xmlns:serif="http://www.serif.com/" style="fill-rule:evenodd;clip-rule:evenodd;stroke-linejoin:round;stroke-miterlimit:2;">
    <g transform="matrix(1,0,0,1,-5.064588,0)">
        <g>
            <g id="Ebene_1" transform="matrix(0.64588,0,0,0.64588,5.064588,0)">
                <path d="M133.9,35.8L107.1,0.5L91.3,43.8L99.8,43.8L109.3,17.8L129.4,44L139.7,44L142.9,35.8L137,27.9L133.9,35.8ZM125.8,9.3L152.6,44.6L168.4,1.3L159.8,1.3L150.3,27.3L130.2,1.2L119.9,1.2L116.4,8.9L122.3,16.8L125.8,9.3ZM18.4,12.9C19.3,10.3 23,7.2 30.1,7.2C34.6,7.2 38,8.5 40.9,12.3L49,7C45.9,2.7 40.4,0.5 32.7,0.5C22.2,0.5 11.8,5.7 9.3,13.3C3.5,30.6 36.4,21.5 33.3,30.9C31.9,35 26.6,37.2 20.1,37.2C14.7,37.2 10.6,34.8 8.3,31.5L0,36.8C4,42.4 10.7,44.6 17.2,44.6C27.8,44.6 39.4,39.3 42.4,30.4C48.3,12.9 15.2,22.4 18.4,12.9ZM79.3,0C65.2,0 50.5,9.8 45.9,22.4C41.3,35 48.9,44.8 63,44.8C77.1,44.8 91.8,35 96.4,22.4C101,9.8 93.4,0 79.3,0ZM86.7,22.4C83.8,30.5 74.1,36.7 66,36.7C57.9,36.7 52.8,30.4 55.7,22.4C58.6,14.3 68.3,8.1 76.4,8.1C84.5,8.1 89.6,14.4 86.7,22.4ZM198.7,36.5L171.7,36.5L175.6,25.9L194.4,25.9L197.1,18.5L178.3,18.5L181.8,9L208.8,9L211.5,1.6L176,1.6L160.4,44L196,44L198.7,36.5ZM360.5,36.1L361.1,44.1L370.3,44.1L366.1,1.7L357.6,1.7L326,42.5L318.5,26.7C326.6,26.7 333.1,21.7 334.9,16.3C337.4,8.5 330.7,1.4 323.4,1.8L302.7,1.8L287.4,44L296.5,44L302.6,26.7L308.7,26.7L316.1,44L334.4,44L340.8,36L360.5,36L360.5,36.1ZM358.9,13.8L360,29L346.5,29L358.9,13.8ZM313.7,19.6L305.2,19.6L309.2,9L320.2,9C325.7,8.9 328.3,13.6 326,16.1C322.9,19.6 315.8,19.6 313.7,19.6ZM217.5,18L237.6,44.9L253.4,1.6L244.8,1.6L235.3,27.6L215.2,0.7L199.5,44L208.1,44L217.5,18ZM448.6,1.6L387.2,1.6L371.7,44L380.9,44L387.5,26L405.7,26L408.4,18.6L390.2,18.6L393.7,9.1L423.3,9.1L410.6,44.1L419.7,44.1L432.4,9.1L446,9.1L448.6,1.6ZM275.1,20.8L299.1,1.6L287.7,1.6L266.2,18.6L263.5,18.6L269.7,1.6L260.6,1.6L245.1,44L254.2,44L260.8,26L266.5,26L273.4,44L284.3,44L275.1,20.8Z" style="fill:rgb(236,102,8);fill-rule:nonzero;"/>
            </g>
        </g>
    </g>
</svg>
