<?xml version="1.0" encoding="UTF-8"?><svg id="a" xmlns="http://www.w3.org/2000/svg" viewBox="0 0 433 96.99"><defs><style>.p{fill:#02509e;}.q{fill:#e30b17;}</style></defs><g id="b"><g id="c" transform="translate(-393.000000, -38.000000)"><g id="d" transform="translate(0.000000, 6.000000)"><g id="e" transform="translate(393.000000, 32.000000)"><g id="f"><path id="g" class="q" d="M35.57,96.99L0,31.34H19.06C26.87,10.82,19.71,4.51,13.62,.5c-.43-.24-.21-.61,.28-.47C65.24,15.56-6.97,56.66,46.66,77.37l-11.09,19.62Z"/><path id="h" class="q" d="M32.99,6.96c34.31,16.7-14.09,50.85,13.88,70.03l25.87-45.66h-18.18c3.21-17.22-14.01-23.3-21.34-24.9-.62-.11-.76,.17-.23,.53"/></g><polygon id="i" class="p" points="93.53 76.21 123.82 76.21 148.95 31.18 126.97 31.18 112.05 63.59 111.92 63.59 113.88 31.18 93.53 31.18 93.53 76.21"/><path id="j" class="p" d="M197.45,38.1h-19.26l-6.82,24.9c-.72,2.59-2.16,4.05-5.04,4.05-2.03,0-3.86-.86-3.86-3.06,0-.86,.52-2.92,.98-4.71l5.77-21.18h-19.46l-5.37,19.59c-.92,3.32-2.36,8.23-2.36,11.95,0,9.76,14.8,10.03,21.49,10.03,16.45,0,23.91-4.98,26.27-13.68l7.66-27.89Z"/><polygon id="k" class="p" points="193.98 76.21 212.49 76.21 225.16 27.71 206.66 27.71 193.98 76.21"/><path id="l" class="p" d="M263.21,65.86c-4.66,.77-9.38,1.61-14.03,1.61-5.63,0-7.57-1.03-7.57-5.59,0-1.73,1.29-8.6,11.18-8.6,4.79,0,9.18,.45,13.39,1.22l4.01-13.94c-6.98-1.29-14.1-2.44-22.11-2.44-10.48,0-16.36,1.92-21.15,10.09-2.65,4.5-5.24,13.11-5.24,19.53,0,10.92,6.92,11.95,16.1,11.95,7.44,0,15-.58,22.31-2.06l3.1-11.76Z"/><path id="m" class="p" d="M322.15,79.67h18.83l4.07-16.27c1.53-6.11,3.25-7.24,6.81-7.24,2.04,0,3.75,.79,3.75,3.39,0,1.53-1.08,5.57-1.71,7.97l-3.25,12.15h19.22l6.3-24.04c.76-2.79,1.4-5.58,1.4-8.23,0-6.97-5.66-9.3-12.02-9.3-8.09,0-12.67,.61-16.56,8.11l1.85-6.72h-18.45l-10.24,40.18Z"/><path id="n" class="p" d="M294.9,78.32h19.5l11.22-38.87h-19.5l-1.78,6.53h-.13c-.27-7.64-5.63-7.87-14.04-7.87-9.28,0-16.23,4.05-19.36,12.78-1.94,5.46-4.08,11.57-4.08,17.93,0,7.96,6.08,10.86,13.56,10.86s13.06-1.63,16.6-7.99h.13l-2.11,6.64Zm1.01-27.85c2.57,0,5.37,1,5.37,4.29,0,1.69-.37,2.92-.66,4.37-1.33,4.91-3.9,8.28-9.28,8.28-3.09,0-5.59-1-5.59-4.68,0-1.15,.29-2.46,.66-3.68,1.69-5.6,3.54-8.59,9.5-8.59"/><path id="o" class="p" d="M381.04,65.47c0,13.43,13.42,14.2,23.84,14.2s19.05-1.74,23.9-12.01c2.62-5.65,4.22-11.5,4.22-17.8,0-11.56-15.27-11.75-23.39-11.75-14.7,0-19.3,2.7-22.63,7.77-3.45,5.33-5.94,13.11-5.94,19.59m18.86-2.08c.07-6.17,1.98-12.98,7.87-12.98,4.99,0,6.46,1.14,6.46,4.83,0,4.39-1.98,12.13-8.63,12.13-3.78,0-5.7-1.21-5.7-3.97"/></g></g></g></g></svg>