<?xml version="1.0" encoding="UTF-8" standalone="no"?>
<!DOCTYPE svg PUBLIC "-//W3C//DTD SVG 1.1//EN" "http://www.w3.org/Graphics/SVG/1.1/DTD/svg11.dtd">
<svg width="100%" height="100%" viewBox="0 0 709 299" version="1.1" xmlns="http://www.w3.org/2000/svg" xmlns:xlink="http://www.w3.org/1999/xlink" xml:space="preserve" xmlns:serif="http://www.serif.com/" style="fill-rule:evenodd;clip-rule:evenodd;stroke-linejoin:round;stroke-miterlimit:2;">
    <g transform="matrix(1,0,0,1,-3.543301,-8.262711)">
        <g transform="matrix(8.333379,0,0,8.333379,-2189.977,-3152.3462)">
            <path id="path5" d="M346.69,391.693C345.423,389.997 343.071,388.5 339.231,388.5C335.391,388.5 332.507,389.997 330.583,391.693C327.764,394.138 326.593,397.082 325.683,401.772C324.761,406.51 324.787,409.455 326.658,411.899C327.924,413.595 330.225,415.092 334.065,415.092C337.905,415.092 340.838,413.595 342.765,411.899C345.583,409.455 346.753,406.51 347.674,401.772C348.585,397.082 348.56,394.138 346.69,391.693ZM341.191,401.771C340.668,404.464 340.072,406.759 338.463,408.107C337.569,408.855 336.494,409.253 335.198,409.253C333.901,409.253 333.031,408.855 332.428,408.107C331.343,406.759 331.64,404.464 332.163,401.771C332.686,399.076 333.272,396.832 334.88,395.484C335.775,394.736 336.799,394.337 338.095,394.337C339.392,394.337 340.312,394.736 340.914,395.484C342.001,396.832 341.715,399.076 341.191,401.771ZM318.167,406.96L323.547,379.271L317.064,379.271L311.607,407.36C310.889,411.051 312.406,414.794 317.743,414.794L321.433,414.794L322.499,409.306L320.005,409.306C318.359,409.305 317.866,408.506 318.167,406.96ZM293.161,388.799L286.67,404.863L284.455,388.799L279.386,388.799L270.979,404.863L269.911,388.799L263.221,388.799L265.958,414.793L271.626,414.793L280.231,398.479L282.497,414.793L288.165,414.793L297.498,394.282L299.515,394.281C301.161,394.274 301.657,395.07 301.364,396.617L297.87,414.809L304.352,414.809L307.922,396.189C308.623,392.494 307.09,388.759 301.754,388.783L293.161,388.799Z" style="fill:rgb(0,156,130);fill-rule:nonzero;"/>
        </g>
    </g>
</svg>
