<?xml version="1.0" encoding="UTF-8" standalone="no"?>
<!DOCTYPE svg PUBLIC "-//W3C//DTD SVG 1.1//EN" "http://www.w3.org/Graphics/SVG/1.1/DTD/svg11.dtd">
<svg width="100%" height="100%" viewBox="0 0 1786 415" version="1.1" xmlns="http://www.w3.org/2000/svg" xmlns:xlink="http://www.w3.org/1999/xlink" xml:space="preserve" xmlns:serif="http://www.serif.com/" style="fill-rule:evenodd;clip-rule:evenodd;stroke-linejoin:round;stroke-miterlimit:2;">
    <g transform="matrix(1,0,0,1,-357.304053,-1042.57455)">
        <g transform="matrix(12.969765,0,0,12.969765,0,0)">
            <path d="M44.873,102.534C44.748,104.576 42.832,105.256 42.151,105.256L34.913,105.256L34.913,99.378L42.029,99.378C42.398,99.378 44.873,99.936 44.873,102.534ZM53.101,103.215C53.101,96.903 48.275,95.976 48.275,95.976C48.275,95.976 51.74,94.306 51.74,90.099C51.74,83.231 45.862,81.19 43.511,81.19L27.549,81.19L27.549,111.505L44.625,111.505C47.781,111.505 53.101,108.288 53.101,103.215ZM43.821,90.346C43.821,92.263 42.028,93.254 41.347,93.254L34.912,93.254L34.912,87.5L40.789,87.5C41.47,87.5 43.821,88.181 43.821,90.346ZM76.178,96.347C76.178,100.741 73.703,105.009 69.496,105.009C65.227,105.009 62.752,100.74 62.752,96.347C62.752,92.14 65.227,87.933 69.496,88.057C73.704,88.057 76.178,92.263 76.178,96.347ZM83.665,96.347C83.665,87.933 77.973,80.819 69.497,80.819C60.897,80.819 55.143,87.934 55.143,96.347C55.267,105.009 60.896,112.371 69.497,112.371C77.972,112.371 83.787,105.009 83.665,96.347ZM109.648,102.41C109.648,90.098 92.944,95.295 93.934,89.541C94.306,87.376 96.533,87.066 98.451,87.066C101.728,87.066 104.019,89.665 104.019,89.665L108.535,84.901C105.133,81.746 102.658,80.385 97.894,80.385C91.769,80.385 86.138,84.22 86.138,90.469C86.138,99.255 95.852,99.255 99.256,100.306C101.297,100.863 101.854,101.42 101.729,102.781C101.729,104.267 99.379,105.689 97.77,105.689C94.306,105.936 92.264,104.142 89.852,101.729L85.212,106.741C89.419,110.824 93.131,112.371 97.771,112.247C103.771,112.062 109.648,108.658 109.648,102.41ZM138.047,105.134L131.922,101.297C131.922,101.297 129.447,105.009 126.6,105.009C122.084,105.134 119.61,100.616 119.61,96.224C119.61,91.893 121.899,88.057 126.169,88.057C128.644,88.057 130.376,89.542 131.489,91.584L137.366,87.749C136.376,86.265 134.087,80.943 126.6,80.696C118.496,80.511 112.061,88.058 112.061,96.225C112.061,105.01 117.258,111.939 126.848,111.939C131.736,112.062 135.572,108.969 138.047,105.134ZM165.207,111.505L165.207,81.189L157.596,81.189L157.596,92.572L148.317,92.572L148.317,81.189L140.522,81.189L140.522,111.504L148.131,111.504L148.131,99.378L157.596,99.378L157.596,111.505L165.207,111.505Z" style="fill:rgb(204,33,47);"/>
        </g>
    </g>
</svg>
