<?xml version="1.0" encoding="UTF-8" standalone="no"?>
<!-- Created with Inkscape (http://www.inkscape.org/) -->

<svg
   xmlns:dc="http://purl.org/dc/elements/1.1/"
   xmlns:cc="http://creativecommons.org/ns#"
   xmlns:rdf="http://www.w3.org/1999/02/22-rdf-syntax-ns#"
   xmlns:svg="http://www.w3.org/2000/svg"
   xmlns="http://www.w3.org/2000/svg"
   xmlns:sodipodi="http://sodipodi.sourceforge.net/DTD/sodipodi-0.dtd"
   xmlns:inkscape="http://www.inkscape.org/namespaces/inkscape"
   version="1.0"
   width="817"
   height="415"
   viewBox="0 0 816.99999 415"
   id="svg2"
   xml:space="preserve"
   inkscape:version="0.91 r13725"
   sodipodi:docname="CIAT.svg"><metadata
     id="metadata18"><rdf:RDF><cc:Work
         rdf:about=""><dc:format>image/svg+xml</dc:format><dc:type
           rdf:resource="http://purl.org/dc/dcmitype/StillImage" /><dc:title></dc:title></cc:Work></rdf:RDF></metadata><sodipodi:namedview
     pagecolor="#ffffff"
     bordercolor="#666666"
     borderopacity="1"
     objecttolerance="10"
     gridtolerance="10"
     guidetolerance="10"
     inkscape:pageopacity="0"
     inkscape:pageshadow="2"
     inkscape:window-width="1280"
     inkscape:window-height="691"
     id="namedview16"
     showgrid="false"
     inkscape:zoom="0.69532167"
     inkscape:cx="420.94501"
     inkscape:cy="230.12987"
     inkscape:window-x="0"
     inkscape:window-y="1"
     inkscape:window-maximized="1"
     inkscape:current-layer="svg2" /><defs
     id="defs27" /><g
     id="Calque_1_-_copie_2"
     transform="matrix(0.9998434,0,0,0.9998434,-9.998434,-26.322877)"><g
       id="g8"><path
         d="m 813.439,137.882 c -1.678,-22.556 -22.246,-39.133 -52.646,-43.75 -99.242,-15.07 -194.63,-30.549 -293.1,-45.899 -16.501,-2.572 -34.034,-7.302 -48.677,-7.302 -14.536,0 -31.533,4.776 -47.642,7.302 -91.691,14.376 -189.065,28.829 -281.706,43.813 -30.745,4.973 -50.299,7.109 -61.144,31.328 -4.662,10.412 -2.405,39.478 -3.507,51.478 l -0.002,175.54 c 1.108,34.226 8.211,72.456 40,76 233.333,1.667 473.667,1.667 707,0 48.587,-6.373 39.581,-62.979 40.883,-139.949 0.033,-1.922 0.541,-148.561 0.541,-148.561 z"
         style="fill:#ffffff"
         id="path10"
         inkscape:connector-curvature="0" /><path
         d="m 827,388.938 c 0,38.904 -30.865,49.906 -56.984,52.454 -234,0 -468,0 -702,0 C 42.456,438.952 10.75,421.75 10,383.501 l 0,-33.25 0.956,-175.381 c 0,0 0.152,-30.663 -0.536,-44.227 1.595,-40.255 31.59,-44.871 71.998,-51.115 96.088,-14.85 191.715,-30.347 288.957,-45.899 15.483,-2.477 32.63,-7.302 47.642,-7.302 14.88,0 32.511,4.768 48.677,7.302 96.158,15.076 188.215,29.447 287.921,44.856 39.421,6.092 65.573,10.606 71.498,49.029 L 827,388.938 Z"
         style="fill:#ffffff"
         id="path12"
         inkscape:connector-curvature="0" /><path
         d="m 813.016,276.392 1,112 c -4.77,23.897 -17.881,39.452 -44,42 -234,0 -468,0 -702,0 -25.56,-2.439 -38.772,-17.228 -44,-40 0.664,-13.336 -1.33,-29.329 1,-41 1.108,34.226 8.211,62.456 40,66 233.333,1.667 473.667,1.667 707,0 49.799,-6.533 34.984,-59.892 41,-139 z"
         style="fill:#ff0000"
         id="path14"
         inkscape:connector-curvature="0" /><path
         d="m 24.016,135.392 c 1.54,-38.589 30.984,-43.014 70,-49 92.777,-14.235 185.109,-29.091 279,-44 14.949,-2.374 31.506,-7 46,-7 14.367,0 31.391,4.57 47,7 92.845,14.452 181.729,28.229 278,43 38.063,5.84 64.279,10.167 70,47 -0.575,1.758 1.209,5.875 -1,6 -5.678,-30.586 -30.284,-32.917 -64,-38 -95.822,-14.447 -187.923,-29.285 -283,-44 -15.933,-2.466 -32.861,-7 -47,-7 -14.035,0 -30.446,4.579 -46,7 -88.532,13.781 -182.551,27.635 -272,42 -29.685,4.767 -57.529,6.784 -68,30 -6.062,13.441 -6.291,36.531 -8,47 -2.33,-11.338 -0.337,-26.997 -1,-40 z"
         style="fill:#ff0000"
         id="path16"
         inkscape:connector-curvature="0" /><path
         d="m 615.016,163.142 198,0 c -10.274,15.725 -22.232,31.518 -44,35.75 l -37,0 -49,135.969 c -20,0 -40,0 -60,0 l 49,-135.969 -70,0 c 0,0 12.742,-35.124 13,-35.75 z"
         style="fill:#ff0000"
         id="path18"
         inkscape:connector-curvature="0" /><path
         d="m 514.016,163.142 c 0,0 38.691,-4.307 48,4.25 7.833,7.2 32.796,133.485 44,167.469 -20.335,2.332 -44.999,-0.666 -67,0 -2.28,-15.387 -5.223,-29.579 -8,-44.469 l -90,0 c -6.304,1.519 -38.578,37.232 -45,44.469 -2,0 -53.333,0 -57,0 l 175,-171.719 z m 14,102.75 c -0.183,-1.266 -11,-58.5 -11,-58.5 l -56,58.5 67,0 z"
         style="fill:#ff0000"
         id="path20"
         inkscape:connector-curvature="0" /><path
         d="m 259.016,334.86 63,-171.719 c 0,0 44.086,-4.169 54,6.25 -6.212,29.71 -47.214,137.874 -56,165.469 -0.78,0.221 -55.334,0 -61,0 z"
         style="fill:#ff0000"
         id="path22"
         inkscape:connector-curvature="0" /><path
         d="m 25.016,269.392 c 14.527,-74.75 93.716,-103.906 177,-110 9.667,0 19.333,0 29,0 23.385,1.615 45.35,4.65 62,13 -11.316,16.43 -41.14,17.818 -67,14 -2.19,-1.374 -35.208,-0.77 -36,0 -126.682,15.608 -139.349,147.942 7,126 13.556,-1.756 26.023,-2.171 38,-4 1.984,5.275 -16.495,22.813 -21,25 -10.119,4.914 -29.95,4.953 -48,6 -62.645,3.633 -133.552,-7.641 -141,-59 0,-3.667 0,-7.333 0,-11 z"
         style="fill:#ff0000"
         id="path24"
         inkscape:connector-curvature="0" /></g></g></svg>