<?xml version="1.0" encoding="UTF-8" standalone="no"?>
<!DOCTYPE svg PUBLIC "-//W3C//DTD SVG 1.1//EN" "http://www.w3.org/Graphics/SVG/1.1/DTD/svg11.dtd">
<svg width="100%" height="100%" viewBox="0 0 127 24" version="1.1" xmlns="http://www.w3.org/2000/svg" xmlns:xlink="http://www.w3.org/1999/xlink" xml:space="preserve" xmlns:serif="http://www.serif.com/" style="fill-rule:evenodd;clip-rule:evenodd;stroke-linejoin:round;stroke-miterlimit:2;">
    <g transform="matrix(1,0,0,1,-0.554534,-0.456)">
        <path d="M40.96,20.993L40.96,3L46.855,3C48.725,3 50.342,3.38 51.719,4.136C53.064,4.861 54.174,5.956 54.916,7.292C55.672,8.632 56.053,10.2 56.053,11.992C56.053,13.786 55.672,15.332 54.916,16.694C54.179,18.038 53.068,19.141 51.719,19.87C50.342,20.626 48.719,21.007 46.855,21.007L40.961,21.007L40.961,20.993L40.96,20.993ZM43.806,18.459L46.897,18.459C48.168,18.459 49.269,18.19 50.208,17.661C51.134,17.138 51.889,16.359 52.382,15.416C52.897,14.449 53.152,13.306 53.152,11.986C53.152,10.666 52.89,9.529 52.382,8.569C51.887,7.632 51.132,6.858 50.208,6.339C49.276,5.809 48.168,5.541 46.898,5.541L43.806,5.541L43.806,18.466L43.806,18.459ZM62.743,21.282C61.761,21.282 60.893,21.064 60.145,20.619C59.401,20.18 58.801,19.535 58.415,18.762C58.013,17.965 57.809,17.047 57.809,15.995L57.809,7.927L60.54,7.927L60.54,15.755C60.54,16.348 60.66,16.878 60.9,17.322C61.14,17.774 61.48,18.127 61.917,18.374C62.355,18.621 62.849,18.748 63.413,18.748C63.978,18.748 64.5,18.621 64.938,18.36C65.376,18.106 65.708,17.739 65.954,17.273C66.194,16.807 66.314,16.256 66.314,15.628L66.314,7.927L69.046,7.927L69.046,20.993L66.434,20.993L66.434,18.43L66.745,18.77C66.442,19.588 65.926,20.216 65.213,20.64C64.493,21.064 63.675,21.282 62.736,21.282L62.743,21.282ZM75.662,21.282C74.78,21.282 73.996,21.127 73.332,20.824C72.697,20.548 72.156,20.094 71.772,19.518C71.405,18.953 71.215,18.297 71.215,17.534C71.215,16.828 71.37,16.193 71.688,15.628C71.998,15.064 72.485,14.591 73.135,14.202C73.785,13.814 74.617,13.539 75.634,13.384L80.172,12.635L80.172,14.81L76.163,15.487C75.436,15.614 74.907,15.847 74.568,16.186C74.232,16.516 74.048,16.971 74.06,17.442C74.06,17.944 74.25,18.346 74.624,18.664C75.005,18.974 75.493,19.137 76.085,19.137C76.813,19.137 77.448,18.974 78.005,18.657C78.545,18.347 78.995,17.902 79.311,17.365C79.621,16.828 79.784,16.228 79.784,15.565L79.784,12.205C79.784,11.576 79.544,11.055 79.057,10.645C78.577,10.235 77.935,10.031 77.151,10.031C76.445,10.031 75.817,10.214 75.281,10.588C74.748,10.953 74.333,11.466 74.088,12.064L71.794,10.927C72.058,10.273 72.466,9.687 72.987,9.212C73.539,8.703 74.187,8.31 74.893,8.054C75.647,7.776 76.446,7.637 77.25,7.644C78.28,7.644 79.191,7.835 79.989,8.224C80.787,8.612 81.408,9.148 81.845,9.833C82.29,10.518 82.509,11.308 82.509,12.212L82.509,21L79.897,21L79.897,18.657L80.427,18.706C80.123,19.236 79.735,19.694 79.269,20.082C78.789,20.476 78.241,20.78 77.652,20.979C77.038,21.191 76.375,21.289 75.648,21.289L75.662,21.282ZM85.227,20.993L85.227,2.71L87.958,2.71L87.958,20.993L85.227,20.993ZM95.488,21.282C94.133,21.282 92.961,20.951 91.959,20.294C90.957,19.631 90.258,18.748 89.856,17.64L91.959,16.652C92.312,17.393 92.799,17.979 93.42,18.416C94.041,18.854 94.726,19.066 95.488,19.066C96.131,19.066 96.653,18.918 97.055,18.628C97.458,18.338 97.662,17.944 97.662,17.442C97.662,17.139 97.571,16.885 97.394,16.68C97.209,16.472 96.983,16.304 96.731,16.186C96.47,16.06 96.198,15.956 95.919,15.876L93.865,15.296C92.721,14.972 91.875,14.492 91.317,13.85C90.759,13.207 90.484,12.452 90.484,11.576C90.484,10.786 90.681,10.094 91.091,9.501C91.493,8.908 92.051,8.449 92.757,8.125C93.463,7.8 94.267,7.645 95.171,7.645C96.364,7.645 97.422,7.941 98.361,8.527C99.28,9.096 99.979,9.96 100.345,10.977L98.22,11.993C97.979,11.376 97.558,10.845 97.013,10.468C96.465,10.099 95.818,9.905 95.157,9.911C94.564,9.911 94.084,10.051 93.731,10.334C93.378,10.617 93.201,10.984 93.201,11.435C93.201,11.739 93.279,11.993 93.441,12.198C93.604,12.402 93.808,12.558 94.07,12.678C94.324,12.798 94.592,12.896 94.867,12.981L96.992,13.61C98.072,13.913 98.898,14.393 99.477,15.05C100.055,15.699 100.345,16.475 100.345,17.379C100.345,18.149 100.14,18.833 99.731,19.419C99.321,20.005 98.75,20.464 98.03,20.795C97.31,21.127 96.463,21.289 95.496,21.289L95.488,21.282ZM107.208,21.282C106.226,21.282 105.358,21.064 104.61,20.619C103.867,20.179 103.266,19.534 102.88,18.762C102.478,17.965 102.273,17.047 102.273,15.995L102.273,7.927L105.005,7.927L105.005,15.755C105.005,16.348 105.125,16.878 105.365,17.322C105.605,17.774 105.944,18.127 106.382,18.374C106.819,18.621 107.313,18.748 107.878,18.748C108.443,18.748 108.965,18.621 109.403,18.36C109.841,18.106 110.172,17.739 110.419,17.273C110.659,16.807 110.779,16.256 110.779,15.628L110.779,7.927L113.511,7.927L113.511,20.993L110.899,20.993L110.899,18.43L111.21,18.77C110.906,19.588 110.391,20.216 109.678,20.64C108.958,21.064 108.139,21.282 107.2,21.282L107.208,21.282ZM116.215,20.993L116.215,7.927L118.827,7.927L118.827,10.489L118.516,10.15C118.841,9.332 119.356,8.703 120.062,8.28C120.768,7.856 121.594,7.637 122.525,7.637C123.457,7.637 124.347,7.849 125.088,8.266C125.818,8.671 126.419,9.272 126.824,10.002C127.241,10.743 127.452,11.597 127.452,12.565L127.452,20.993L124.721,20.993L124.721,13.292C124.721,12.649 124.601,12.099 124.361,11.64C124.132,11.192 123.779,10.819 123.344,10.567C122.889,10.305 122.372,10.171 121.848,10.179C121.283,10.179 120.782,10.306 120.337,10.567C119.9,10.819 119.545,11.192 119.314,11.64C119.074,12.099 118.954,12.65 118.954,13.292L118.954,20.992L116.215,20.992L116.215,20.993Z" style="fill:rgb(53,55,56);fill-rule:nonzero;"/>
        <path d="M15.557,0.456L15.489,0.456C14.695,0.464 13.905,0.573 13.139,0.782C8.623,1.957 5.975,3.206 4.793,3.83C-1.95,7.403 0.787,14.587 3.245,18.838C3.551,19.361 4.352,19.062 4.243,18.465C3.198,12.849 7.645,11.945 7.645,11.945C7.645,11.945 13.975,10.601 16.935,10.045C20.725,9.195 21.648,7.532 21.77,6.33L21.77,5.719C21.751,5.494 21.704,5.272 21.628,5.059C20.908,2.948 19.108,0.469 15.557,0.456Z" style="fill:rgb(232,117,23);fill-rule:nonzero;"/>
        <path d="M16.08,23.218C20.59,22.05 23.244,20.794 24.426,20.169C31.169,16.604 28.432,9.419 25.974,5.169C25.669,4.639 24.867,4.944 24.976,5.542C26.022,11.151 21.567,12.061 21.567,12.061C21.567,12.061 15.245,13.406 12.284,13.962C6.695,15.219 7.341,18.227 7.585,18.953C8.455,21.486 10.892,24.563 16.08,23.218Z" style="fill:rgb(99,166,255);fill-rule:nonzero;"/>
    </g>
</svg>
