<?xml version="1.0" encoding="UTF-8" standalone="no"?>
<!DOCTYPE svg PUBLIC "-//W3C//DTD SVG 1.1//EN" "http://www.w3.org/Graphics/SVG/1.1/DTD/svg11.dtd">
<svg width="100%" height="100%" viewBox="0 0 475 72" version="1.1" xmlns="http://www.w3.org/2000/svg" xmlns:xlink="http://www.w3.org/1999/xlink" xml:space="preserve" xmlns:serif="http://www.serif.com/" style="fill-rule:evenodd;clip-rule:evenodd;stroke-linejoin:round;stroke-miterlimit:2;">
    <g transform="matrix(1,0,0,1,-13.982821,-34.133036)">
        <g id="Fundo" transform="matrix(1,0,0,1,12,31)">
            <path d="M88.7,57.262C88.43,56.443 88.131,56.508 88.123,54.506C88.113,51.943 88.008,24.251 88.128,22.466C88.257,20.562 88.571,20.356 90.492,20.32C91.376,20.303 100.26,20.136 101.538,20.39C101.813,20.444 102.055,20.616 102.329,20.671C102.411,21.211 102.589,21.164 102.604,22.494C102.611,23.097 102.589,30.779 102.586,31.499C102.586,31.654 102.581,33.276 102.672,33.433C102.783,33.626 103.169,33.516 103.281,33.71C103.471,33.814 103.381,34.188 103.571,34.293C103.844,34.443 111.263,34.36 124.499,34.38C124.654,34.38 126.218,34.382 126.428,34.285C126.609,34.201 126.621,33.926 126.768,33.79C126.935,33.637 127.239,33.636 127.35,33.438C127.65,32.901 127.374,21.88 127.544,21.513C127.636,21.316 127.954,21.332 128.098,21.169C128.277,20.967 128.251,20.595 128.482,20.454C128.768,20.278 132.002,20.325 137.5,20.322C139.198,20.321 139.173,20.311 139.511,20.321C140.883,20.358 140.951,20.662 141.274,20.739C141.337,20.956 141.727,21.22 141.78,22.477C141.786,22.635 141.779,40.966 141.784,54.503C141.784,54.729 141.785,56.902 141.31,57.288C140.961,57.572 140.897,57.438 131.5,57.491C129.613,57.502 129.619,57.526 127.757,57.251C127.475,55.501 127.483,55.504 127.489,45.5C127.489,45.264 127.491,42.784 127.367,42.552C127.262,42.354 126.902,42.394 126.797,42.196C126.605,42.102 126.634,41.757 126.442,41.663C126.052,41.47 115.625,41.587 105.5,41.556C103.353,41.549 102.603,41.344 102.568,43.505C102.523,46.232 102.822,56.83 102.314,57.305C101.929,57.665 101.837,57.469 92.5,57.491C89.952,57.497 89.955,57.535 89.505,57.476C89.23,57.439 88.975,57.299 88.7,57.262Z" style="fill:rgb(110,110,110);fill-opacity:0.93;"/>
            <path d="M281.471,20.557C281.389,20.888 281.193,21.183 281.111,21.514C280.848,22.578 281.005,22.582 280.991,24.5C280.977,26.498 281.224,26.45 281.548,27.666C272.32,27.559 253.905,27.628 251.502,27.637C250.036,27.643 249.948,27.585 249.281,28.308C249.168,28.431 248.966,28.484 248.903,28.639C248.725,29.078 248.783,33.268 248.806,33.46C248.979,34.903 250.264,34.906 250.402,34.978C255.863,35.247 276.397,34.983 277.549,35.093C278.865,35.218 278.991,35.608 279.254,35.702C279.343,36.241 279.528,36.207 279.552,37.498C279.556,37.739 279.605,40.341 279.519,40.506C279.413,40.712 279.044,40.63 278.889,40.804C278.696,41.022 278.783,41.443 278.541,41.605C278.365,41.724 275.744,41.723 275.5,41.723C267.501,41.723 259.502,41.723 251.503,41.723C250.304,41.728 250.158,41.454 249.315,42.323C249.195,42.447 248.997,42.507 248.929,42.665C248.694,43.205 248.799,48.453 248.8,48.466C248.913,49.527 249.235,49.379 249.364,49.649C249.775,49.744 250.123,50.038 250.535,50.134C250.646,50.16 280.19,50.137 280.523,50.148C282.03,50.196 281.96,50.542 282.348,50.648C282.419,50.93 282.661,51.148 282.733,51.43C282.808,51.728 283.054,56.666 282.294,57.265C281.968,57.522 281.909,57.491 244.5,57.491C236.944,57.491 236.946,57.566 234.703,57.29C234.464,55.888 234.406,55.909 234.416,54.501C234.442,50.815 234.379,21.616 234.45,21.485C234.565,21.269 234.947,21.351 235.115,21.173C235.308,20.966 235.225,20.549 235.465,20.399C235.604,20.311 235.624,20.322 265.5,20.322C279.227,20.322 279.221,20.288 281.471,20.557Z" style="fill:rgb(110,110,110);fill-opacity:0.91;"/>
            <path d="M377.503,26.596C377.18,26.638 376.851,26.62 376.527,26.662C376.219,26.702 375.898,26.717 375.613,26.841C375.484,26.896 375.475,27.101 375.353,27.169C375.156,27.278 372.961,27.863 372.873,27.959C371.835,29.104 371.582,29.191 372.097,30.643C372.442,31.616 373.194,31.821 373.254,31.867C373.486,32.044 373.365,32.144 373.605,32.286C374.008,32.525 374.063,32.347 374.466,32.586C375.172,32.798 375.102,33.076 380.45,33.669C380.751,33.75 381.027,34.054 382.539,34.231C384.496,34.461 384.484,34.441 386.401,34.835C387.981,35.059 387.948,35.145 389.521,35.278C391.93,35.482 391.912,35.548 392.467,35.621C392.702,35.683 393.127,35.989 394.554,36.167C396.509,36.411 396.491,36.389 398.434,36.692C398.559,36.751 398.515,36.992 398.64,37.051C398.93,37.189 399.271,37.168 399.584,37.24C400.2,37.38 400.839,37.453 401.426,37.687C401.569,37.743 401.528,38.033 401.677,38.074C401.885,38.131 402.1,37.87 402.308,37.928C402.462,37.97 402.44,38.242 402.578,38.323C402.841,38.477 403.193,38.436 403.452,38.598C403.602,38.693 403.568,38.993 403.737,39.049C403.923,39.11 404.114,38.817 404.299,38.88C404.471,38.938 404.432,39.25 404.59,39.337C405.07,39.605 405.676,39.608 406.139,39.904C406.339,40.032 406.349,40.33 406.464,40.538C406.96,41.443 407.179,41.242 407.445,41.549C407.624,41.757 407.632,42.076 407.803,42.292C407.923,42.444 408.182,42.452 408.287,42.615C408.887,43.555 409.313,48.264 408.097,50.279C407.817,50.742 407.672,50.642 407.353,51.397C407.131,51.922 407.26,52.075 406.438,52.435C406.192,52.543 405.899,52.57 405.694,52.743C405.526,52.884 405.555,53.186 405.384,53.322C405.16,53.502 404.819,53.473 404.581,53.634C404.43,53.736 404.435,54.012 404.266,54.081C404.109,54.145 403.931,53.905 403.773,53.965C403.604,54.029 403.593,54.295 403.442,54.393C403.192,54.556 402.865,54.568 402.61,54.723C402.473,54.806 402.437,55.009 402.297,55.086C402.079,55.207 402.08,55.148 399.355,56.108C397.408,56.794 397.372,56.573 395.38,57.13C390.635,58.457 373.924,57.993 371.541,57.35C371.147,57.244 370.788,57.028 370.391,56.932C369.763,56.779 369.113,56.73 368.478,56.605C368.083,56.528 364.861,55.484 364.547,55.383C364.262,55.29 363.963,55.228 363.696,55.09C363.562,55.021 363.505,54.844 363.37,54.776C362.838,54.508 362.247,54.369 361.72,54.093C361.571,54.015 361.516,53.812 361.37,53.728C360.894,53.456 360.337,53.337 359.877,53.037C359.694,52.918 359.655,52.655 359.494,52.507C359.261,52.292 359.098,52.468 358.451,51.549C358.306,51.342 358.203,51.103 358.03,50.918C357.876,50.752 357.624,50.691 357.485,50.513C357.31,50.288 357.283,49.972 357.113,49.743C357.004,49.595 356.766,49.57 356.672,49.412C356.635,49.35 356.642,49.347 356.168,47.571C356.067,47.189 355.9,46.824 355.831,46.435C355.78,46.151 355.863,45.853 355.813,45.568C355.924,45.427 355.433,44.813 356.558,44.62C357.042,44.537 358.03,44.569 363.5,44.569C366.393,44.569 366.385,44.405 369.231,44.797C369.466,45.297 369.568,45.853 369.803,46.353C369.848,46.451 369.945,46.365 370.506,47.495C370.62,47.725 370.668,48.008 370.86,48.178C371.229,48.505 371.737,48.639 372.131,48.936C372.304,49.066 372.364,49.313 372.538,49.442C372.621,49.504 373.147,49.899 373.664,50.079C374.254,50.286 374.88,50.38 375.471,50.586C375.999,50.727 375.922,51.115 380.507,51.36C386.719,51.692 388.918,51.029 389.616,50.818C391.071,50.379 392.136,50.315 392.386,50.207C392.521,50.148 392.553,49.953 392.678,49.875C393.066,49.633 393.109,49.756 393.506,49.509C393.809,49.234 394.061,49.489 394.563,48.547C395.122,47.499 395.287,47.457 394.872,46.35C394.436,45.184 392.124,44.001 390.459,43.696C389.821,43.579 389.169,43.527 388.538,43.37C388.24,43.296 388.066,42.931 385.48,42.682C382.629,42.408 382.629,42.414 382.528,42.389C382.271,42.324 381.911,42.013 380.446,41.849C378.082,41.584 375.721,41.442 375.528,41.391C375.135,41.288 374.79,41.035 374.394,40.941C372.482,40.491 372.433,40.854 370.559,40.306C369.038,39.86 369.054,39.859 367.484,39.587C365.626,39.266 365.739,38.992 365.377,38.782C365.221,38.693 365.184,38.777 363.336,37.838C362.808,37.569 362.233,37.396 361.712,37.114C361.119,36.792 361.207,36.674 360.588,36.376C360.07,36.127 359.962,36.23 359.552,35.45C359.426,35.212 359.366,34.933 359.193,34.726C359.063,34.57 358.79,34.569 358.676,34.4C358.536,34.194 358.62,34.159 357.618,31.474C357.687,31.164 357.548,30.832 357.617,30.523C357.655,30.351 357.724,30.378 358.327,28.441C358.888,26.641 359.072,26.73 360.408,25.406C361.214,24.606 361.294,24.742 362.197,24.055C362.35,23.938 362.409,23.719 362.568,23.61C362.809,23.445 363.12,23.409 363.367,23.253C363.507,23.165 363.563,22.975 363.705,22.892C364.5,22.427 364.612,22.723 365.391,22.259C365.529,22.177 365.551,21.964 365.688,21.882C365.89,21.82 366.106,22.077 366.308,22.016C366.455,21.971 366.41,21.691 366.546,21.62C366.703,21.539 366.699,21.597 368.651,20.93C369.563,20.619 371.258,20.419 371.487,20.392C373.533,20.151 373.498,20.042 375.523,19.583C377.333,19.172 387.452,19.508 388.488,19.543C388.705,19.607 389.134,20.002 390.55,20.151C392.515,20.357 392.503,20.329 394.461,20.629C394.94,20.786 400.213,22.518 400.448,22.622C400.599,22.689 400.573,22.982 400.732,23.029C400.924,23.087 401.125,22.818 401.315,22.88C401.417,22.913 401.252,23.165 402.44,23.596C402.682,23.683 402.964,23.71 403.159,23.878C403.339,24.032 403.333,24.332 403.496,24.504C403.664,24.681 403.959,24.704 404.119,24.888C404.444,25.26 404.606,25.754 404.919,26.136C405.061,26.309 405.328,26.351 405.465,26.529C405.639,26.754 405.652,27.077 405.822,27.305C405.93,27.452 406.18,27.457 406.273,27.614C406.363,27.766 407.233,30.554 406.372,31.366C405.91,31.802 405.575,31.785 396.499,31.767C394.345,31.762 393.993,32.103 392.839,30.292C392.046,29.048 392.178,28.936 391.479,28.524C389.961,27.628 390.053,27.463 388.374,26.908C387.428,26.595 384.031,26.541 383.513,26.446C383.198,26.388 382.899,26.257 382.584,26.194C380.921,25.862 380.156,26.347 379.499,26.496C378.834,26.529 378.168,26.563 377.503,26.596Z" style="fill:rgb(108,108,108);fill-opacity:0.93;"/>
            <path d="M432.588,49.677C432.422,49.844 432.083,49.731 431.916,49.898C431.84,49.975 431.282,52.038 431.153,52.191C431.001,52.369 430.696,52.356 430.536,52.527C430.343,52.734 430.301,53.046 430.137,53.277C430.034,53.421 429.834,53.485 429.746,53.64C429.471,54.123 429.353,54.687 429.064,55.162C428.955,55.34 428.708,55.394 428.576,55.556C428.403,55.769 428.34,56.056 428.166,56.268C428.031,56.433 427.808,56.509 427.665,56.668C427.233,57.149 427.319,57.455 425.5,57.491C420.49,57.587 420.505,57.405 415.492,57.579C414.255,57.622 414.288,57.419 413.695,57.341C413.719,57.057 413.515,56.785 413.539,56.502C413.593,55.872 413.841,55.986 414.59,54.555C414.713,54.321 414.785,54.057 414.948,53.849C415.078,53.683 415.314,53.625 415.446,53.461C415.623,53.24 415.694,52.949 415.856,52.717C415.957,52.572 416.142,52.494 416.229,52.341C416.503,51.861 416.635,51.306 416.929,50.839C417.014,50.704 417.222,50.886 418.221,49.329C418.375,49.088 418.427,48.788 418.593,48.555C418.702,48.403 418.958,48.374 419.029,48.2C419.088,48.054 418.863,47.884 418.925,47.739C418.996,47.572 419.262,47.568 419.362,47.418C419.822,46.731 419.287,46.301 420.521,45.515C420.69,45.408 420.931,45.356 421.017,45.175C421.081,45.041 420.828,44.884 420.887,44.747C420.962,44.572 421.237,44.561 421.347,44.404C421.839,43.7 421.454,43.531 421.969,42.865C422.103,42.692 422.387,42.687 422.526,42.519C422.709,42.299 422.732,41.979 422.898,41.746C423.005,41.596 423.236,41.556 423.328,41.396C423.601,40.916 423.674,40.335 423.968,39.867C424.084,39.683 424.373,39.676 424.515,39.511C424.696,39.299 424.739,38.995 424.905,38.771C425.018,38.617 425.229,38.554 425.338,38.397C425.501,38.165 425.541,37.86 425.706,37.628C425.815,37.474 426.043,37.427 426.142,37.266C426.441,36.78 426.582,36.209 426.877,35.72C427.019,35.485 427.146,35.624 427.285,35.373C427.693,34.64 427.514,34.574 427.92,33.844C428.064,33.676 428.335,33.653 428.48,33.485C428.664,33.271 428.708,32.963 428.874,32.734C428.981,32.586 429.195,32.531 429.285,32.372C429.559,31.891 429.653,31.319 429.946,30.85C430.059,30.668 430.331,30.641 430.467,30.476C430.646,30.258 430.703,29.959 430.867,29.73C430.973,29.582 431.176,29.516 431.266,29.358C431.54,28.878 431.649,28.312 431.942,27.843C432.054,27.664 432.315,27.626 432.449,27.463C432.627,27.247 432.694,26.957 432.857,26.729C432.964,26.58 433.156,26.502 433.249,26.345C433.53,25.871 433.668,25.32 433.965,24.857C434.078,24.682 434.325,24.631 434.454,24.467C434.629,24.244 434.699,23.953 434.861,23.721C434.962,23.575 435.146,23.496 435.234,23.343C435.506,22.869 435.629,22.315 435.929,21.858C435.995,21.757 436.076,21.863 437.167,21.004C437.663,20.613 437.616,20.361 439.497,20.327C439.794,20.321 446.86,20.322 447.5,20.322C450.131,20.323 450.112,20.429 451.424,20.644C451.576,20.83 451.931,20.75 452.083,20.935C452.188,21.064 452.058,21.138 453.157,22.714C453.64,23.407 453.45,23.502 453.959,24.188C454.075,24.344 454.294,24.401 454.406,24.559C454.469,24.649 454.413,24.656 455.139,25.718C455.624,26.426 455.419,26.528 455.925,27.213C456.039,27.368 456.257,27.426 456.368,27.583C456.534,27.816 456.582,28.118 456.738,28.357C457.115,28.934 457.202,28.863 457.521,29.485C457.649,29.733 457.725,30.013 457.892,30.236C458.009,30.391 458.238,30.436 458.352,30.594C458.519,30.825 458.553,31.134 458.713,31.37C459.002,31.796 459.137,31.681 459.524,32.482C459.647,32.737 459.69,33.036 459.863,33.259C459.986,33.417 460.256,33.415 460.374,33.577C460.544,33.813 460.528,34.148 460.684,34.393C460.782,34.545 461.016,34.575 461.11,34.73C461.406,35.217 461.521,35.801 461.829,36.28C461.936,36.446 462.205,36.451 462.321,36.612C462.491,36.845 462.492,37.171 462.651,37.411C462.749,37.558 463.001,37.575 463.071,37.738C463.132,37.88 462.929,38.051 462.988,38.194C463.058,38.365 463.302,38.403 463.407,38.554C463.471,38.645 463.409,38.66 464.147,39.722C464.636,40.425 464.441,40.521 464.944,41.201C465.059,41.356 465.278,41.412 465.39,41.569C465.453,41.659 465.409,41.68 466.137,42.725C466.626,43.426 466.399,43.539 466.912,44.221C467.029,44.377 467.261,44.42 467.375,44.579C467.542,44.812 467.574,45.122 467.731,45.362C468.117,45.956 468.207,45.871 468.516,46.489C468.641,46.739 468.714,47.02 468.881,47.245C468.997,47.4 469.231,47.44 469.344,47.598C469.511,47.83 469.537,48.143 469.697,48.38C469.952,48.758 470.107,48.638 470.515,49.488C470.637,49.742 470.668,50.046 470.846,50.263C470.98,50.425 471.275,50.394 471.401,50.562C471.576,50.796 471.534,51.143 471.692,51.39C471.79,51.543 472.041,51.554 472.133,51.71C472.426,52.204 472.514,52.803 472.818,53.29C472.924,53.458 473.203,53.45 473.323,53.609C473.588,53.961 473.405,54.035 473.663,54.408C473.82,54.636 473.932,54.492 474.089,54.72C474.306,55.326 474.523,55.933 474.74,56.54C474.521,56.728 474.199,56.766 473.981,56.954C473.783,57.124 473.778,57.532 473.523,57.588C472.74,57.761 472.734,57.49 463.5,57.491C463.275,57.491 461.088,57.492 460.698,57.227C460.511,57.101 460.501,56.815 460.352,56.646C459.928,56.165 459.819,56.262 459.456,55.532C459.329,55.277 459.267,54.985 459.098,54.755C458.985,54.602 458.743,54.576 458.635,54.419C458.47,54.178 458.465,53.852 458.307,53.607C458.213,53.462 457.995,53.429 457.901,53.283C457.421,52.532 457.696,52.419 457.226,51.654C457.079,51.415 457.007,51.495 456.844,51.273C456.77,51.173 456.793,51.17 456.159,49.872C456.106,49.84 455.715,48.958 454.469,48.852C454.409,48.847 435.143,48.848 434.508,48.865C432.978,48.904 432.843,49.569 432.588,49.677L438.014,40.408C438.225,40.991 437.442,40.888 437.654,41.476C437.676,41.536 437.816,40.896 438.439,41.582C438.628,41.791 438.327,42.216 438.517,42.426L439.513,42.285C439.868,42.23 440.134,41.882 440.489,41.827C440.55,41.818 447.409,41.818 447.509,41.833C447.867,41.889 448.138,42.232 448.496,42.288L449.491,42.417C449.653,42.312 449.511,41.971 449.674,41.866C450.176,41.541 450.317,41.963 450.771,41.589C451.133,41.289 450.652,41.059 451.016,40.758C449.877,39.358 449.685,39.572 449.59,39.449C449.408,39.213 449.468,38.851 449.308,38.599C449.216,38.455 448.933,38.486 448.877,38.325C448.814,38.145 449.079,37.953 449.019,37.772C448.964,37.603 448.691,37.6 448.59,37.452C448.426,37.21 448.406,36.89 448.25,36.642C448.154,36.488 447.959,36.417 447.849,36.272C446.868,34.981 447.275,34.805 447.181,34.707C447.004,34.525 446.599,34.734 446.439,34.537C446.241,34.292 446.433,33.882 446.286,33.602C446.206,33.448 445.869,33.529 445.824,33.361C445.767,33.15 446.1,32.962 446.057,32.747C446.022,32.573 445.724,32.574 445.636,32.42C445.491,32.166 445.486,31.855 445.391,31.579C445.162,30.909 445.136,30.831 444.437,30.78C443.916,30.742 443.732,30.576 443.381,31.356C443.269,31.603 443.216,31.879 443.07,32.107C442.952,32.29 442.703,32.369 442.604,32.562C442.349,33.061 442.307,33.656 442.029,34.142C441.924,34.328 441.633,34.334 441.5,34.5C441.32,34.724 441.283,35.036 441.121,35.273C441.021,35.42 440.814,35.476 440.726,35.631C440.451,36.114 440.339,36.68 440.05,37.154C439.941,37.332 439.688,37.377 439.558,37.541C438.975,38.275 438.121,40.171 438.014,40.408L432.588,49.677Z" style="fill:rgb(108,108,108);fill-opacity:0.94;"/>
            <path d="M326.485,19.56C326.7,19.62 327.146,19.985 328.555,20.143C330.525,20.363 330.509,20.337 332.446,20.673C332.996,20.846 339.043,22.745 339.305,22.891C339.447,22.971 339.478,23.181 339.617,23.265C339.873,23.419 340.206,23.419 340.456,23.583C340.607,23.682 340.601,23.963 340.77,24.021C340.946,24.082 341.135,23.814 341.309,23.878C341.476,23.938 341.45,24.228 341.599,24.324C342.315,24.784 342.525,24.294 343.165,24.865C343.347,25.027 343.309,25.349 343.475,25.527C343.642,25.706 343.957,25.7 344.118,25.886C344.437,26.257 344.557,26.77 344.87,27.145C345.023,27.328 345.324,27.338 345.482,27.517C345.66,27.719 345.662,28.038 345.837,28.244C345.975,28.406 346.255,28.405 346.383,28.575C346.559,28.808 346.545,29.146 346.703,29.391C346.794,29.532 347.016,29.552 347.104,29.695C347.259,29.949 347.314,30.252 347.401,30.536C348.126,32.923 346.993,32.92 344.504,32.914C335.927,32.892 334.579,33.253 333.461,31.534C332.64,30.271 332.137,30.304 331.869,30.085C331.697,29.944 331.626,29.703 331.452,29.564C331.227,29.383 330.935,29.304 330.695,29.144C330.564,29.056 330.486,28.894 330.344,28.824C329.503,28.407 329.4,28.745 328.578,28.304C328.446,28.233 328.479,27.964 328.334,27.925C328.117,27.867 327.893,28.111 327.675,28.059C327.537,28.027 327.563,27.761 327.43,27.711C326.462,27.346 324.665,26.969 324.421,26.918C323.276,26.678 317.267,26.738 316.549,26.875C316.231,26.936 313.744,27.413 312.597,27.788C312.469,27.83 312.456,28.039 312.333,28.093C311.77,28.34 311.133,28.398 310.582,28.671C310.427,28.748 310.461,29.05 310.296,29.104C310.114,29.164 309.924,28.882 309.743,28.944C309.572,29.003 309.592,29.292 309.444,29.395C309.204,29.562 308.878,29.565 308.63,29.719C308.475,29.814 308.409,30.015 308.264,30.125C308.04,30.293 307.748,30.359 307.535,30.541C307.356,30.695 307.281,30.944 307.113,31.111C306.945,31.279 306.698,31.358 306.538,31.534C306.359,31.733 306.284,32.01 306.115,32.217C305.99,32.372 305.778,32.446 305.664,32.609C305.498,32.844 305.451,33.149 305.291,33.387C305.199,33.523 304.97,33.555 304.921,33.712C304.862,33.901 305.065,34.111 305.006,34.3C304.962,34.439 304.721,34.43 304.654,34.56C304.511,34.838 304.512,35.17 304.406,35.465C304.267,35.855 304.039,36.212 303.921,36.609C303.527,37.932 303.728,41.368 304.692,43.41C304.764,43.563 305.046,43.551 305.101,43.712C305.159,43.882 304.91,44.067 304.973,44.236C305.036,44.404 305.311,44.4 305.415,44.548C305.581,44.783 305.602,45.097 305.754,45.342C306.095,45.889 307.108,46.746 307.238,46.856C307.39,46.985 307.477,47.183 307.641,47.296C308.333,47.774 308.476,47.469 309.143,47.969C309.312,48.096 309.341,48.359 309.507,48.49C309.736,48.67 310.044,48.72 310.292,48.874C310.427,48.959 310.505,49.121 310.646,49.198C311.037,49.412 311.028,49.815 317.41,50.821C319.973,51.17 319.962,51.16 322.559,50.988L323.592,50.811C327.737,50.077 328.955,49.483 329.386,49.273C329.543,49.196 329.578,48.97 329.721,48.869C330.427,48.375 330.597,48.733 331.245,48.17C331.81,47.679 331.345,47.408 331.878,46.881C332.059,46.702 332.395,46.748 332.574,46.567C332.76,46.38 332.729,46.048 332.901,45.849C333.053,45.674 333.349,45.675 333.501,45.501C333.688,45.286 333.715,44.969 333.875,44.734C333.98,44.582 334.169,44.505 334.283,44.361C334.444,44.157 334.507,43.88 334.693,43.698C335.725,42.684 335.93,43.197 337.502,42.998C345.848,43.191 345.84,43.025 346.564,43.06C347.857,43.123 348.066,43.559 348.296,43.636C348.232,43.914 348.461,44.208 348.397,44.487C348.303,44.894 347.99,45.221 347.841,45.612C346.97,47.898 347.164,47.968 347.037,48.138C346.906,48.314 346.626,48.321 346.475,48.48C346.302,48.664 346.262,48.945 346.097,49.136C345.949,49.308 345.712,49.384 345.554,49.548C345.385,49.725 345.297,49.968 345.129,50.146C344.712,50.589 344.226,51.056 344.145,51.134C343.598,51.66 343.475,51.469 342.901,51.982C342.738,52.128 342.678,52.371 342.506,52.507C342.289,52.679 341.982,52.71 341.764,52.881C341.608,53.004 341.578,53.25 341.416,53.365C341.179,53.533 340.855,53.541 340.611,53.7C340.467,53.795 340.439,54.022 340.286,54.102C339.757,54.379 339.148,54.477 338.615,54.744C338.476,54.813 338.443,55.019 338.307,55.092C338.041,55.233 337.734,55.278 337.446,55.366C337.145,55.458 336.838,55.527 336.541,55.632C334.008,56.527 333.986,56.411 331.381,57.118C325.803,58.632 313.275,57.809 310.499,57.508C309.036,57.349 308.612,56.963 308.387,56.9C307.767,56.728 307.122,56.664 306.492,56.534C305.185,56.264 304.513,55.822 304.399,55.781C303.811,55.568 303.181,55.48 302.601,55.246C302.473,55.194 302.455,54.975 302.322,54.939C302.12,54.885 301.897,55.06 301.696,55.001C301.562,54.961 301.551,54.743 301.428,54.676C301.157,54.531 300.818,54.545 300.553,54.389C300.409,54.303 300.412,54.04 300.254,53.984C300.084,53.923 299.892,54.152 299.722,54.091C299.558,54.032 299.554,53.765 299.403,53.678C298.92,53.4 298.342,53.311 297.865,53.022C297.686,52.914 297.651,52.65 297.487,52.518C297.267,52.342 296.97,52.284 296.742,52.119C296.591,52.011 296.519,51.812 296.364,51.71C295.66,51.242 295.488,51.612 294.837,51.081C294.661,50.938 294.683,50.635 294.518,50.48C294.337,50.311 294,50.353 293.849,50.157C293.534,49.747 293.483,49.179 293.19,48.753C293.068,48.575 292.78,48.571 292.643,48.403C292.467,48.186 292.447,47.872 292.287,47.642C292.175,47.482 291.969,47.408 291.847,47.256C290.821,45.989 291.256,45.793 291.164,45.693C291.002,45.514 290.627,45.694 290.463,45.518C290.289,45.333 290.105,45.136 289.681,42.443C289.323,39.968 289.194,39.976 289.392,37.492C289.55,35.51 289.945,35.267 290.868,31.713C291.024,31.443 291.219,31.703 291.377,31.429C291.799,30.7 291.491,30.584 291.94,29.86C292.061,29.666 292.388,29.705 292.549,29.542C292.722,29.366 292.726,29.067 292.896,28.887C293.062,28.712 293.346,28.687 293.519,28.519C293.692,28.35 293.721,28.062 293.905,27.905C294.278,27.587 294.781,27.445 295.154,27.126C295.333,26.973 295.344,26.678 295.522,26.524C295.724,26.348 296.045,26.351 296.248,26.176C296.412,26.034 296.406,25.749 296.576,25.614C296.801,25.436 297.13,25.44 297.373,25.286C297.518,25.194 297.562,24.986 297.707,24.895C297.959,24.737 298.259,24.676 298.532,24.56C299.53,24.134 301.24,23.045 302.532,22.571C303.696,22.145 303.594,21.966 303.696,21.938C303.899,21.884 304.12,22.078 304.321,22.019C304.455,21.98 304.443,21.743 304.568,21.683C304.854,21.547 305.182,21.529 305.491,21.461C308.053,20.894 307.978,20.579 310.481,20.317C312.542,20.101 312.502,19.991 314.516,19.563C316.329,19.178 325.529,19.524 326.485,19.56Z" style="fill:rgb(107,107,107);fill-opacity:0.93;"/>
            <path d="M51.456,20.255C53.979,20.266 53.966,20.276 56.485,20.175C59.899,20.039 59.922,20.459 60.457,20.575C61.719,21.843 61.567,21.943 62.175,23.615C62.093,24.205 61.874,24.187 61.979,27.589C61.522,32.898 61.538,32.899 61.384,33.467C61.048,34.703 60.731,34.669 60.592,41.499C60.447,41.938 59.994,41.787 59.926,43.509C59.905,44.024 59.909,46.446 59.921,46.503C59.998,46.883 60.436,47.124 60.513,47.504C59.126,53.24 60.716,56.095 59.366,57.357C59.13,57.578 59.017,57.683 55.489,58.46C54.971,58.574 54.974,58.525 52.499,58.576C50.461,58.618 50.469,58.713 48.585,59.51L48.543,58.503L49.206,57.503C49.588,56.866 49.851,57.111 50.235,56.471C50.316,56.336 50.259,56.328 50.557,54.518C50.584,54.456 51.394,53.741 51.515,51.502C51.595,50.004 51.278,48.66 51.251,48.627C51.108,48.446 50.729,48.623 50.585,48.443C50.378,48.24 50.614,47.795 50.407,47.593C50.199,47.39 49.771,47.619 49.549,47.431C49.246,47.173 49.691,46.981 49.379,46.719C49,46.402 48.858,46.851 48.485,46.539C48.19,46.418 48.058,45.721 45.484,45.651C43.696,45.602 22.168,45.218 20.646,45.897C20.249,46.075 19.953,46.437 19.556,46.614C19.204,46.909 18.851,47.204 18.499,47.499C18.166,47.832 17.832,48.166 17.499,48.499C17.335,48.686 16.844,48.416 16.584,49.548C16.513,49.855 16.655,50.23 16.47,50.485C16.333,50.674 15.94,50.468 15.788,50.646C15.741,50.701 15.909,50.739 15.573,51.53C15.32,52.127 15.197,52.039 14.94,52.646C14.333,55.828 14.257,55.855 14.798,58.346C10.213,57.329 10.162,58.124 5.478,57.934C4.088,57.877 4.163,57.59 3.567,57.434C3.478,57.069 3.088,57.035 3.092,55.504C3.094,54.942 3.108,54.967 3.432,48.493C3.521,48.177 3.473,47.833 3.561,47.518C3.729,46.919 3.859,46.989 4.019,46.403C4.145,45.939 3.993,45.932 4.123,45.456C4.382,41.135 4.402,41.148 4.435,38.5C4.597,37.912 4.878,38.062 5.041,37.473C5.041,37.473 4.845,35.714 4.828,35.562C4.737,34.87 4.647,34.178 4.557,33.486C4.485,32.304 3.386,20.314 4.86,18.833C5.008,18.685 6.326,18.382 6.456,18.352C6.764,18.282 7.093,18.28 7.382,18.153C7.506,18.098 7.515,17.896 7.635,17.835C8.036,17.631 10.262,17.356 10.493,17.327L11.516,17.314C11.74,17.528 12.125,17.51 12.349,17.724C12.613,17.976 12.822,19.259 12.844,19.397C12.899,19.735 12.864,20.092 12.977,20.415C13.112,20.801 13.442,21.099 13.577,21.486C13.704,22.952 13.697,22.934 13.93,24.397C14.04,24.795 14.385,25.103 14.496,25.501C14.668,26.125 14.666,26.784 14.766,27.423C14.996,28.898 15.454,29.253 15.542,29.489C15.841,31.252 15.808,31.249 15.865,31.393C16.104,32.004 16.258,31.9 16.494,32.501C16.711,33.927 16.697,33.916 16.981,35.343C17.789,37.1 17.749,37.11 17.853,37.241C17.993,37.417 18.314,37.371 18.454,37.547C18.626,37.682 18.594,37.987 18.765,38.122C19.988,39.087 27.699,38.702 28.507,38.685C28.852,38.722 29.138,39.013 29.483,39.049C31.235,39.236 32.445,38.558 32.502,38.548C32.981,38.539 37.426,38.453 38.489,38.377C42.193,38.112 42.058,37.57 42.492,37.451C42.641,37.427 44.354,37.149 44.354,37.149C44.965,36.871 44.841,36.708 45.461,36.426C45.812,36.112 45.961,36.499 46.309,36.188C46.602,35.926 46.192,35.736 46.499,35.499C46.739,35.313 47.171,35.55 47.398,35.347C47.596,35.17 47.342,34.735 47.544,34.563C48.191,34.013 48.514,34.755 49.092,34.124C49.264,33.937 49.22,33.611 49.392,33.424C49.754,32.778 50.116,32.133 50.478,31.487C50.592,31.327 50.913,31.436 51.027,31.277C51.298,30.899 51.526,27.807 51.549,27.503C51.634,27.141 51.929,26.85 52.014,26.487C52.128,26.005 52.035,25.58 52.019,25.503C51.899,24.952 51.702,25.047 51.583,24.498C51.553,23.882 51.559,23.89 51.456,20.255Z" style="fill:rgb(3,110,189);fill-opacity:0.93;"/>
            <path d="M18.499,8.418L19.498,8.391C19.947,8.552 19.779,9.045 21.508,9.111C25.242,9.255 25.102,8.541 25.5,8.402C29.854,8.25 29.852,8.142 33.635,6.83C35.424,6.372 37.417,5.624 37.535,5.595C38.149,5.442 38.792,5.398 39.389,5.186C39.524,5.138 39.525,4.915 39.649,4.844C40.016,4.633 41.265,4.338 41.408,4.304C41.71,4.232 42.063,4.288 42.319,4.113C42.485,3.999 42.35,3.654 42.518,3.543C42.543,3.527 44.103,3.239 44.457,3.198C46.731,2.932 46.959,3.563 47.333,3.679C48.584,5.309 48.284,5.445 48.802,7.436C49.217,9.034 49.634,8.969 49.856,14.479C49.961,17.066 49.971,17.046 50.184,19.621L50.306,20.56C50.217,21.053 50.047,20.98 49.958,21.476C49.943,21.554 49.852,22.06 49.96,22.476C50.056,22.847 50.386,23.13 50.482,23.501C50.485,24.834 50.487,26.167 50.489,27.499C50.364,27.878 50.068,28.185 49.943,28.563C49.869,28.788 49.909,28.779 49.478,31.487C49.26,31.749 49.103,31.467 48.882,31.732C48.595,32.078 48.885,32.208 48.587,32.558C48.428,32.745 48.09,32.691 47.917,32.866C47.731,33.055 47.771,33.404 47.577,33.585C47.374,33.776 47.01,33.717 46.806,33.907C46.634,34.067 46.721,34.412 46.536,34.555C46.299,34.739 45.888,34.587 45.668,34.79C45.488,34.956 45.704,35.366 45.504,35.507C45.454,35.542 45.165,35.462 43.595,35.744C41.863,36.056 41.938,36.415 41.511,36.588C40.952,36.615 34.758,36.91 34.521,36.958C34.145,37.034 33.876,37.416 33.5,37.492C27.492,37.457 27.517,37.38 21.521,37.298C21.362,37.232 19.525,36.472 19.525,36.472C19.205,36.216 19.464,36.058 19.165,35.758C18.904,35.496 18.787,35.733 18.535,35.479C18.379,34.517 18.425,34.524 18.271,33.573C18.056,32.248 17.468,31.619 17.426,31.518C17.357,31.029 17.382,31.048 17.312,30.555C17.091,28.999 16.624,28.789 16.51,28.498C16.478,28.267 16.108,25.613 16.108,25.613C15.986,25.209 15.622,24.905 15.5,24.5C15.482,24.345 15.269,22.569 15.269,22.569C15.009,21.229 14.467,20.644 14.414,20.519C14.307,19.518 14.325,19.536 14.219,18.555C14.035,16.843 13.683,16.961 13.527,16.5C13.475,15.946 12.96,10.451 13.581,9.543C13.803,9.219 13.967,9.477 14.24,9.194C14.491,8.935 14.274,8.827 14.531,8.561C14.696,8.554 14.669,8.445 18.499,8.418Z" style="fill:rgb(216,42,62);fill-opacity:0.96;"/>
            <path d="M36.499,46.479C40.504,46.37 40.484,46.384 44.511,46.327C44.914,46.5 45.174,46.926 45.578,47.099C45.889,47.233 46.252,47.172 46.588,47.216C46.742,47.237 48.486,47.467 48.508,47.483C48.549,47.511 48.53,48.32 49.538,48.466C49.884,48.517 50.24,48.392 50.585,48.443L50.545,49.485C50.436,49.851 50.082,50.111 49.972,50.476C49.865,50.833 49.968,51.224 49.912,51.593C49.543,54.011 49.097,54.029 48.9,54.62C48.827,55.132 48.692,55.112 48.543,58.503L48.585,59.51C48.811,65.022 48.819,65.007 48.838,65.485C48.953,68.492 48.294,68.455 46.634,68.968C46.066,69.144 46.048,69.432 43.521,69.695C40.471,70.012 40.554,70.404 37.529,70.749C35.955,70.929 35.978,70.961 34.468,71.389C33.571,71.643 29.926,71.908 29.612,71.989C28.584,72.254 28.641,72.54 25.52,72.758C23.95,72.867 23.982,72.956 22.401,73.161C21.781,73.297 19.33,73.839 14.505,73.924C12.215,73.965 12.092,73.441 11.715,73.311C11.7,73.217 11.259,72.62 11.428,71.488C11.594,70.38 12.007,70.608 12.121,70.3C12.178,70.146 11.893,69.988 11.955,69.835C12.032,69.644 12.332,69.637 12.457,69.473C13.791,67.727 14.363,63.068 14.434,62.492C14.474,62.166 14.49,62.037 15.345,58.497C15.42,57.834 15.495,57.172 15.57,56.509C15.678,56.116 16.015,55.812 16.123,55.419C16.297,54.79 16.328,54.13 16.405,53.481C16.444,53.153 16.353,52.801 16.47,52.492C16.629,52.074 17.019,51.777 17.205,51.371C17.301,51.161 17.378,50.992 17.499,48.499C17.647,48.484 19.356,48.309 19.356,48.309C19.567,48.099 19.242,47.63 19.454,47.42C29.872,46.756 34.344,47.239 35.482,47.019C35.859,46.946 36.122,46.552 36.499,46.479Z" style="fill:rgb(215,41,61);fill-opacity:0.95;"/>
            <path d="M193.337,28.562C193.162,28.394 193.36,28.018 193.186,27.85C192.665,27.347 177.063,27.887 175.497,27.507C175.254,27.448 175.04,27.294 174.797,27.235C174.743,26.72 174.198,21.518 174.801,20.763C175.159,20.316 178.202,20.321 178.5,20.322C220.831,20.402 220.828,20.246 224.508,20.319C225.927,20.348 225.871,20.615 226.311,20.71C226.391,20.968 226.64,21.152 226.72,21.411C226.839,21.801 227.163,26.55 226.3,27.274C225.863,27.64 222.805,27.638 222.5,27.638C221.54,27.637 211.886,27.629 210.502,27.637C209.269,27.645 209.123,27.418 208.293,28.333C208.191,28.445 208.017,28.506 207.965,28.649C207.721,29.32 207.918,54.346 207.844,55.541C207.752,57.023 207.081,56.724 206.748,56.976C206.601,57.087 206.662,57.394 206.492,57.465C206.32,57.537 197.3,57.438 195.499,57.531C193.876,57.615 193.394,58.008 192.92,56.452C192.827,56.146 193.03,55.799 192.937,55.493C192.988,55.137 193.309,54.857 193.36,54.501C193.573,53.016 193.357,30.637 193.337,28.562Z" style="fill:rgb(109,109,109);fill-opacity:0.93;"/>
            <path d="M153.795,57.213C153.478,55.354 153.51,55.371 153.516,53.5C153.61,24.958 153.476,24.98 153.502,22.5C153.516,21.178 153.189,20.775 154.478,20.444C155.74,20.119 164.627,20.301 165.509,20.319C166.923,20.348 166.864,20.619 167.302,20.716C167.382,20.981 167.774,21.14 167.829,22.472C167.832,22.557 167.836,55.428 167.827,55.537C167.635,57.857 166.822,57.501 164.5,57.492C156.75,57.463 156.743,57.713 153.795,57.213Z" style="fill:rgb(110,110,110);fill-opacity:0.95;"/>
            <path d="M102.329,20.671C102.055,20.616 101.813,20.444 101.538,20.39C100.26,20.136 91.376,20.303 90.492,20.32C88.571,20.356 88.257,20.562 88.128,22.466C88.008,24.251 88.113,51.943 88.123,54.506C88.131,56.508 88.43,56.443 88.7,57.262C88.363,56.917 87.708,57.032 87.371,56.686C86.939,56.243 87,56.132 87,36.5C87,19.896 86.933,19.8 87.367,19.368C87.992,18.746 95.167,19.085 99.5,19.007C99.653,19.005 101.21,18.976 101.407,19.062C101.787,19.228 101.988,19.578 102.021,19.636C102.299,20.12 102.053,20.189 102.329,20.671Z" style="fill:rgb(117,117,117);fill-opacity:0.61;"/>
            <path d="M249.364,49.649C249.748,49.532 250.082,49.279 250.466,49.163C251.23,48.931 251.251,49.04 279.5,49.001C282.409,48.996 281.807,50.164 282.348,50.648C281.96,50.542 282.03,50.196 280.523,50.148C280.19,50.137 250.646,50.16 250.535,50.134C250.123,50.038 249.775,49.744 249.364,49.649Z" style="fill:rgb(118,118,118);fill-opacity:0.66;"/>
            <path d="M250.402,34.978C250.795,34.795 251.083,34.428 251.475,34.246C252.111,33.95 252.145,34.083 276.5,34.003C276.677,34.002 278.278,33.997 278.674,34.383C279.018,34.718 278.91,35.367 279.254,35.702C278.991,35.608 278.865,35.218 277.549,35.093C276.397,34.983 255.863,35.247 250.402,34.978Z" style="fill:rgb(113,113,113);fill-opacity:0.82;"/>
            <path d="M4.557,33.486C4.274,33.285 3.888,33.266 3.605,33.065C2.85,32.531 2.938,32.432 2.919,31.5C2.913,31.198 3.026,31.01 3.014,21.5C3.01,18.473 2.525,17.572 5.5,16.955C7.35,16.572 7.315,15.894 8.5,15.942C8.648,15.948 9.755,15.993 10.238,16.58C10.405,16.783 10.326,17.124 10.493,17.327C10.262,17.356 8.036,17.631 7.635,17.835C7.515,17.896 7.506,18.098 7.382,18.153C7.093,18.28 6.764,18.282 6.456,18.352C6.326,18.382 5.008,18.685 4.86,18.833C3.386,20.314 4.485,32.304 4.557,33.486Z" style="fill:rgb(24,120,197);fill-opacity:0.51;"/>
            <path d="M18.454,37.547C18.969,37.503 18.956,37.578 19.476,37.534C19.641,37.52 19.628,37.516 21.521,37.298C27.517,37.38 27.492,37.457 33.5,37.492C36.51,37.441 36.497,37.35 39.496,37.471C39.735,37.481 39.718,37.47 42.492,37.451C42.058,37.57 42.193,38.112 38.489,38.377C37.426,38.453 32.981,38.539 32.502,38.548C31.171,38.594 29.839,38.64 28.507,38.685C27.699,38.702 19.988,39.087 18.765,38.122C18.594,37.987 18.626,37.682 18.454,37.547Z" style="fill:rgb(34,124,199);fill-opacity:0.65;"/>
            <path d="M19.556,46.614C19.953,46.437 20.249,46.075 20.646,45.897C22.168,45.218 43.696,45.602 45.484,45.651C48.058,45.721 48.19,46.418 48.485,46.539C48.167,46.518 48.172,46.528 44.511,46.327C40.484,46.384 40.504,46.37 36.499,46.479C27.54,46.532 27.55,46.231 19.556,46.614Z" style="fill:rgb(208,70,81);fill-opacity:0.58;"/>
            <path d="M432.588,49.677C432.843,49.569 432.978,48.904 434.508,48.865C435.143,48.848 454.409,48.847 454.469,48.852C455.715,48.958 456.106,49.84 456.159,49.872L455.402,49.765C445.091,49.673 438.75,49.817 433.516,49.683L432.588,49.677Z" style="fill:rgb(73,73,73);fill-opacity:0.02;"/>
            <path d="M10.5,74.999L11.715,73.311C12.092,73.441 12.215,73.965 14.505,73.924C19.33,73.839 21.781,73.297 22.401,73.161L23.5,74.999L10.5,74.999Z" style="fill:none;"/>
            <path d="M19.556,46.614C27.55,46.231 27.54,46.532 36.499,46.479C36.122,46.552 35.859,46.946 35.482,47.019C34.344,47.239 29.872,46.756 19.454,47.42L18.499,47.499C18.851,47.204 19.204,46.909 19.556,46.614Z" style="fill:rgb(218,53,67);fill-opacity:0.81;"/>
            <path d="M436.68,42.428C437.292,42.427 437.904,42.426 438.517,42.426L439.513,42.285C444.02,42.193 444.004,42.192 448.496,42.288L449.491,42.417L450.448,43.191C441.716,43.119 438.52,43.203 438.513,43.203C436.896,43.21 437.025,42.574 436.68,42.428Z" style="fill:rgb(124,124,124);fill-opacity:0.83;"/>
            <path d="M50.306,20.56L51.456,20.255C51.559,23.89 51.553,23.882 51.583,24.498C51.571,25.5 51.56,26.501 51.549,27.503C51.526,27.807 51.298,30.899 51.027,31.277C50.913,31.436 50.592,31.327 50.478,31.487C50.48,31.167 50.562,31.171 50.489,27.499C50.487,26.167 50.485,24.834 50.482,23.501C50.424,22.52 50.365,21.54 50.306,20.56Z" style="fill:rgb(20,119,194);fill-opacity:0.68;"/>
            <path d="M193.337,28.562C193.357,30.637 193.573,53.016 193.36,54.501C193.309,54.857 192.988,55.137 192.937,55.493C192.952,51.994 192.95,52.007 192.95,48.5L192.95,40.5C192.95,30.291 192.755,30.284 192.929,29.415C192.991,29.106 193.275,28.871 193.337,28.562Z" style="fill:rgb(125,125,125);fill-opacity:0.55;"/>
            <path d="M3.567,57.434C3.273,57.07 2.678,57.043 2.384,56.679C1.854,56.023 1.997,51.777 2.011,47.86C2.485,48.071 2.958,48.282 3.432,48.493C3.108,54.967 3.094,54.942 3.092,55.504C3.088,57.035 3.478,57.069 3.567,57.434Z" style="fill:rgb(14,103,170);fill-opacity:0.56;"/>
            <path d="M281.548,27.666C281.224,26.45 280.977,26.498 280.991,24.5C281.005,22.582 280.848,22.578 281.111,21.514C281.193,21.183 281.389,20.888 281.471,20.557C281.807,20.875 282.142,21.193 282.478,21.511C282.768,25.185 282.615,25.193 282.663,25.509C282.715,25.85 283.036,26.112 283.088,26.453C282.575,26.857 282.062,27.261 281.548,27.666Z" style="fill:rgb(106,106,106);fill-opacity:0.02;"/>
            <path d="M337.502,42.998C337.874,42.814 338.129,42.44 338.501,42.256C339.339,41.841 339.382,42.053 345.5,42.01C345.678,42.009 347.296,41.997 347.694,42.362C348.04,42.68 347.95,43.318 348.296,43.636C348.066,43.559 347.857,43.123 346.564,43.06C345.84,43.025 345.848,43.191 337.502,42.998Z" style="fill:rgb(113,113,113);fill-opacity:0.82;"/>
            <path d="M49.478,31.487L49.392,33.424C49.22,33.611 49.264,33.937 49.092,34.124C48.514,34.755 48.191,34.013 47.544,34.563C47.342,34.735 47.596,35.17 47.398,35.347C47.171,35.55 46.739,35.313 46.499,35.499C46.192,35.736 46.602,35.926 46.309,36.188C45.961,36.499 45.812,36.112 45.461,36.426C45.301,36.44 45.312,36.614 41.511,36.588C41.938,36.415 41.863,36.056 43.595,35.744C45.165,35.462 45.454,35.542 45.504,35.507C45.704,35.366 45.488,34.956 45.668,34.79C45.888,34.587 46.299,34.739 46.536,34.555C46.721,34.412 46.634,34.067 46.806,33.907C47.01,33.717 47.374,33.776 47.577,33.585C47.771,33.404 47.731,33.055 47.917,32.866C48.09,32.691 48.428,32.745 48.587,32.558C48.885,32.208 48.595,32.078 48.882,31.732C49.103,31.467 49.26,31.749 49.478,31.487Z" style="fill:rgb(22,115,189);fill-opacity:0.74;"/>
            <path d="M4.123,45.456L3.186,45.159C3.131,44.63 2.617,39.724 3.226,38.504C3.41,38.135 3.786,37.886 3.97,37.517L4.435,38.5C4.402,41.148 4.382,41.135 4.123,45.456Z" style="fill:rgb(18,110,183);fill-opacity:0.53;"/>
            <path d="M433.516,49.683C438.75,49.817 445.091,49.673 455.402,49.765C455.081,49.809 454.847,50.144 454.525,50.187C454.375,50.208 437.023,50.16 435.501,50.156C434.169,50.152 434.234,49.854 433.516,49.683Z" style="fill:rgb(32,32,32);fill-opacity:0;"/>
            <path d="M17.499,48.499C17.378,50.992 17.301,51.161 17.205,51.371C17.019,51.777 16.629,52.074 16.47,52.492C16.353,52.801 16.444,53.153 16.405,53.481C16.328,54.13 16.297,54.79 16.123,55.419C16.015,55.812 15.678,56.116 15.57,56.509C15.556,54.663 15.564,54.675 15.555,54.516C15.478,53.167 15.011,52.861 14.94,52.646C15.197,52.039 15.32,52.127 15.573,51.53C15.909,50.739 15.741,50.701 15.788,50.646C15.94,50.468 16.333,50.674 16.47,50.485C16.655,50.23 16.513,49.855 16.584,49.548C16.844,48.416 17.335,48.686 17.499,48.499Z" style="fill:rgb(214,44,63);fill-opacity:0.82;"/>
            <path d="M41.511,36.588C45.312,36.614 45.301,36.44 45.461,36.426C44.841,36.708 44.965,36.871 44.354,37.149C44.354,37.149 42.641,37.427 42.492,37.451C39.718,37.47 39.735,37.481 39.496,37.471C36.497,37.35 36.51,37.441 33.5,37.492C33.876,37.416 34.145,37.034 34.521,36.958C34.758,36.91 40.952,36.615 41.511,36.588Z" style="fill:rgb(41,108,168);fill-opacity:0.57;"/>
            <path d="M50.545,49.485C50.439,52.002 50.386,51.989 50.557,54.518C50.259,56.328 50.316,56.336 50.235,56.471C49.851,57.111 49.588,56.866 49.206,57.503C49.245,57.158 49.433,56.84 49.472,56.494C49.546,55.843 49.46,55.56 49.436,55.482C49.284,54.983 49.054,55.126 48.9,54.62C49.097,54.029 49.543,54.011 49.912,51.593C49.968,51.224 49.865,50.833 49.972,50.476C50.082,50.111 50.436,49.851 50.545,49.485Z" style="fill:rgb(36,110,175);fill-opacity:0.59;"/>
            <path d="M15.5,24.5C15.622,24.905 15.986,25.209 16.108,25.613C16.108,25.613 16.478,28.267 16.51,28.498C16.461,31.288 16.459,31.27 16.457,31.511C16.453,32.007 16.498,31.991 16.494,32.501C16.258,31.9 16.104,32.004 15.865,31.393C15.808,31.249 15.841,31.252 15.542,29.489C15.57,27.482 15.51,24.899 15.5,24.5Z" style="fill:rgb(176,64,85);fill-opacity:0.5;"/>
            <path d="M44.511,46.327C48.172,46.528 48.167,46.518 48.485,46.539C48.858,46.851 49,46.402 49.379,46.719C49.691,46.981 49.246,47.173 49.549,47.431C49.771,47.619 50.199,47.39 50.407,47.593C50.614,47.795 50.378,48.24 50.585,48.443C50.24,48.392 49.884,48.517 49.538,48.466C48.53,48.32 48.549,47.511 48.508,47.483C48.486,47.467 46.742,47.237 46.588,47.216C46.252,47.172 45.889,47.233 45.578,47.099C45.174,46.926 44.914,46.5 44.511,46.327Z" style="fill:rgb(155,58,77);fill-opacity:0.48;"/>
            <path d="M13.527,16.5C13.683,16.961 14.035,16.843 14.219,18.555C14.325,19.536 14.307,19.518 14.414,20.519C14.542,22.341 14.561,22.329 14.552,22.486C14.487,23.605 13.933,24.386 13.93,24.397C13.697,22.934 13.704,22.952 13.577,21.486C13.552,19.467 13.736,19.482 13.675,17.46C13.665,17.137 13.537,16.824 13.527,16.5Z" style="fill:rgb(165,52,71);fill-opacity:0.53;"/>
            <path d="M14.94,52.646C15.011,52.861 15.478,53.167 15.555,54.516C15.564,54.675 15.556,54.663 15.57,56.509C15.495,57.172 15.42,57.834 15.345,58.497L14.798,58.346C14.257,55.855 14.333,55.828 14.94,52.646Z" style="fill:rgb(201,47,61);fill-opacity:0.61;"/>
            <path d="M50.585,48.443C50.729,48.623 51.108,48.446 51.251,48.627C51.278,48.66 51.595,50.004 51.515,51.502C51.394,53.741 50.584,54.456 50.557,54.518C50.386,51.989 50.439,52.002 50.545,49.485L50.585,48.443Z" style="fill:rgb(19,117,194);fill-opacity:0.72;"/>
            <path d="M16.51,28.498C16.624,28.789 17.091,28.999 17.312,30.555C17.382,31.048 17.357,31.029 17.426,31.518C17.334,34.344 17.391,34.326 17.341,34.565C17.282,34.844 17.04,35.063 16.981,35.343C16.697,33.916 16.711,33.927 16.494,32.501C16.498,31.991 16.453,32.007 16.457,31.511C16.459,31.27 16.461,31.288 16.51,28.498Z" style="fill:rgb(190,70,90);fill-opacity:0.51;"/>
            <path d="M475.999,57.5L474.74,56.54C474.523,55.933 474.306,55.326 474.089,54.72L475.999,53.5L475.999,57.5Z" style="fill:none;"/>
            <path d="M317.41,50.821C317.793,50.671 318.095,50.353 318.478,50.203C319.118,49.953 320.892,49.948 321.515,50.246C321.9,50.43 322.174,50.803 322.559,50.988C319.962,51.16 319.973,51.17 317.41,50.821Z" style="fill:rgb(93,93,93);fill-opacity:0.71;"/>
            <path d="M50.489,27.499C50.562,31.171 50.48,31.167 50.478,31.487C50.116,32.133 49.754,32.778 49.392,33.424L49.478,31.487C49.909,28.779 49.869,28.788 49.943,28.563C50.068,28.185 50.364,27.878 50.489,27.499Z" style="fill:rgb(25,107,171);fill-opacity:0.64;"/>
            <path d="M19.498,8.391C22.518,8.294 22.496,8.295 25.5,8.402C25.102,8.541 25.242,9.255 21.508,9.111C19.779,9.045 19.947,8.552 19.498,8.391Z" style="fill:rgb(221,61,76);fill-opacity:0.79;"/>
            <path d="M60.592,41.499C60.632,44.516 60.711,44.495 60.513,47.504C60.436,47.124 59.998,46.883 59.921,46.503C59.909,46.446 59.905,44.024 59.926,43.509C59.994,41.787 60.447,41.938 60.592,41.499Z" style="fill:rgb(56,70,84);fill-opacity:0.02;"/>
            <path d="M439.513,42.285C439.868,42.23 440.134,41.882 440.489,41.827C440.55,41.818 447.409,41.818 447.509,41.833C447.867,41.889 448.138,42.232 448.496,42.288C444.004,42.192 444.02,42.193 439.513,42.285Z" style="fill:rgb(130,130,130);fill-opacity:0.53;"/>
            <path d="M18.535,35.479C18.787,35.733 18.904,35.496 19.165,35.758C19.464,36.058 19.205,36.216 19.525,36.472C19.525,36.472 21.362,37.232 21.521,37.298C19.628,37.516 19.641,37.52 19.476,37.534C18.956,37.578 18.969,37.503 18.454,37.547C18.481,36.858 18.508,36.168 18.535,35.479Z" style="fill:rgb(137,111,125);fill-opacity:0.15;"/>
            <path d="M451.016,40.758C451.081,41.05 451.526,41.12 451.392,42.438C451.387,42.488 451.336,42.993 451.266,43.048C451.049,43.221 450.664,43.018 450.448,43.191L449.491,42.417C449.653,42.312 449.511,41.971 449.674,41.866C450.176,41.541 450.317,41.963 450.771,41.589C451.133,41.289 450.652,41.059 451.016,40.758Z" style="fill:rgb(122,122,122);fill-opacity:0.75;"/>
            <path d="M438.014,40.408C438.225,40.991 437.442,40.888 437.654,41.476C437.676,41.536 437.816,40.896 438.439,41.582C438.628,41.791 438.327,42.216 438.517,42.426C437.904,42.426 437.292,42.427 436.68,42.428C436.85,42.075 436.314,41.659 437.592,40.539C437.703,40.442 437.904,40.505 438.014,40.408Z" style="fill:rgb(155,155,155);fill-opacity:0.33;"/>
            <path d="M18.499,8.418L19.518,7.973C22.006,7.877 21.992,7.836 24.465,7.946L25.5,8.402C22.496,8.295 22.518,8.294 19.498,8.391L18.499,8.418Z" style="fill:rgb(210,78,86);fill-opacity:0.56;"/>
            <path d="M60.592,41.499C60.69,41.889 61.064,41.908 61.098,43.511C61.102,43.67 61.116,44.339 61.113,45.497C61.11,47.198 60.642,47.071 60.513,47.504C60.711,44.495 60.632,44.516 60.592,41.499Z" style="fill:rgb(26,32,39);fill-opacity:0.01;"/>
            <path d="M48.9,54.62C49.054,55.126 49.284,54.983 49.436,55.482C49.46,55.56 49.546,55.843 49.472,56.494C49.433,56.84 49.245,57.158 49.206,57.503L48.543,58.503C48.692,55.112 48.827,55.132 48.9,54.62Z" style="fill:rgb(49,112,166);fill-opacity:0.33;"/>
            <path d="M282.478,21.511C282.619,21.983 283.05,21.865 283.074,23.504C283.078,23.74 283.075,23.723 283.088,26.453C283.036,26.112 282.715,25.85 282.663,25.509C282.615,25.193 282.768,25.185 282.478,21.511Z" style="fill:rgb(31,31,31);fill-opacity:0;"/>
            <path d="M18.499,47.499L19.454,47.42C19.242,47.63 19.567,48.099 19.356,48.309C19.356,48.309 17.647,48.484 17.499,48.499C17.832,48.166 18.166,47.832 18.499,47.499Z" style="fill:rgb(216,43,62);fill-opacity:0.87;"/>
            <path d="M4.828,35.562C4.845,35.714 5.041,37.473 5.041,37.473C4.878,38.062 4.597,37.912 4.435,38.5L3.97,37.517C4.256,36.865 4.542,36.213 4.828,35.562Z" style="fill:rgb(23,119,196);fill-opacity:0.8;"/>
            <path d="M28.507,38.685C29.839,38.64 31.171,38.594 32.502,38.548C32.445,38.558 31.235,39.236 29.483,39.049C29.138,39.013 28.852,38.722 28.507,38.685Z" style="fill:rgb(11,114,193);fill-opacity:0.85;"/>
            <path d="M50.306,20.56C50.365,21.54 50.424,22.52 50.482,23.501C50.386,23.13 50.056,22.847 49.96,22.476C49.852,22.06 49.943,21.554 49.958,21.476C50.047,20.98 50.217,21.053 50.306,20.56Z" style="fill:rgb(106,109,153);fill-opacity:0.35;"/>
            <path d="M51.583,24.498C51.702,25.047 51.899,24.952 52.019,25.503C52.035,25.58 52.128,26.005 52.014,26.487C51.929,26.85 51.634,27.141 51.549,27.503C51.56,26.501 51.571,25.5 51.583,24.498Z" style="fill:rgb(11,116,194);fill-opacity:0.87;"/>
        </g>
    </g>
</svg>
