<?xml version="1.0" encoding="UTF-8" standalone="no"?>
<!DOCTYPE svg PUBLIC "-//W3C//DTD SVG 1.1//EN" "http://www.w3.org/Graphics/SVG/1.1/DTD/svg11.dtd">
<svg width="100%" height="100%" viewBox="0 0 1225 223" version="1.1" xmlns="http://www.w3.org/2000/svg" xmlns:xlink="http://www.w3.org/1999/xlink" xml:space="preserve" xmlns:serif="http://www.serif.com/" style="fill-rule:evenodd;clip-rule:evenodd;stroke-linejoin:round;stroke-miterlimit:2;">
    <g transform="matrix(1,0,0,1,-637.684155,0)">
        <g transform="matrix(0.725557,0,0,0.725557,632.830177,-114.231723)">
            <path d="M665.88,192.86L640.65,314.04C637.35,322.1 635.02,330.75 627.59,336.87C617.8,344.76 602.5,345.61 591.29,340.55C584.6,336.27 581.62,329.21 581.98,321.36L607.74,192.92L545.82,192.92L520.48,313.95L518,332.21C516.7,350.47 523.84,366.15 538.6,376.68C569.31,395.6 613.88,395.43 648.59,385.86C673.69,379.28 693.03,354.07 698.22,329.7L726.72,192.93L665.87,192.85L665.88,192.86ZM877.07,192.85C875.89,192.85 875.91,193.7 875.91,193.7L860.33,274.26L853.83,315.32L852.48,320.62C849.91,314.95 850.07,308.26 848.09,302.38L818.58,194.01C818.21,192.83 817.91,192.85 817.09,192.85L756.66,192.85C755.98,192.85 755.92,192.99 755.76,193.41L716.22,387.7C715.99,388.75 715.85,389.69 717.11,389.69L768.36,389.69C769.61,389.69 769.69,389.71 769.91,388.51L792.13,273.64L793.46,265.27C793.98,267.71 794.57,270.13 795.24,272.53C802.28,298.24 826.52,386.13 827.09,387.77C827.76,389.69 827.46,389.69 829.16,389.69L889.08,389.69C890.77,389.69 891.07,389.25 891.37,387.99L932.84,192.83L877.06,192.85L877.07,192.85ZM1151.34,192.85L1074.4,192.87L1005.52,260.72C1004.64,261.49 1004.34,260.91 1004.54,259.94L1013.75,214.92L1017.62,193.54C1017.69,192.95 1017.51,192.88 1016.84,192.88L964.01,192.88C962.7,192.88 962.57,193.16 962.25,194.16L921.52,387.93C921.24,389.26 921.31,389.71 922.05,389.71L976.55,389.71C976.99,389.71 976.99,389.34 977.18,388.67L987.18,342.09L1016.72,315.08C1017.13,314.77 1017.59,314.31 1018.09,315.47L1048.97,388.91C1049.1,389.21 1049.34,389.72 1050.24,389.72L1110.45,389.72L1062.49,273.87L1151.33,192.88L1151.34,192.85ZM460.25,192.86L433.29,320.57C431.75,327.25 430.21,333.94 424.53,339.07C420.42,342.62 414.14,344.22 409.03,341.88C400.06,337.14 400.64,328.3 402.19,319.46L404.16,304.41L343.55,304.53C338.92,327.12 336.64,356.91 355.37,373.54C379.21,393.27 415.54,395.47 445.55,387.29C470.27,381.89 487.44,355.7 491.27,332.33L520.2,192.85L460.26,192.87L460.25,192.86ZM1620.93,236.84C1626.83,238.33 1629.05,244.48 1629.91,248.17L1693.97,248.17C1694.54,239.86 1693.11,231.29 1690.71,223.79C1686.28,208.39 1670.43,197.78 1655.99,194.08C1620.57,186.52 1576.67,186.11 1548.7,210.14C1531.97,226.82 1524.36,249.78 1530.77,273.09C1535.6,291.06 1555.01,302.45 1571.06,307.91C1597.77,316.75 1611.7,317.7 1618.19,323.33C1621.36,326.09 1620.99,331.23 1620,334.79C1617.05,341.13 1610.34,343.33 1604.42,344.74C1593.16,345.98 1579.71,345.64 1574.12,334.59C1572.53,331.23 1571.51,326.89 1571.51,323.92L1508.52,323.92C1508.52,365.55 1528.43,378.14 1542.9,384.93C1576.35,398.04 1623.8,397.46 1653.96,377.55C1678.82,361.44 1688.59,334.31 1684.91,306.05C1676.63,263.18 1628.78,267.74 1598.29,254.41C1597.11,253.9 1593.58,251.37 1592.93,250.09C1591.735,247.663 1591.727,244.814 1592.91,242.38C1599.39,233.06 1614.78,235.27 1620.92,236.83L1620.93,236.84ZM1192.22,311.5L1281.91,311.5L1291.17,266.02L1201.55,266.02L1206.58,241.68L1308.13,241.65L1318.05,192.85L1157.85,192.86L1117.56,389.69L1284.12,389.69L1294.57,338.9L1186.65,338.9L1192.22,311.5ZM1509.02,225.14C1501.81,203.22 1478.09,192.87 1449.34,192.87L1346.69,192.87L1329.89,276.32L1306.85,389.71L1367.66,389.71L1381.37,323.65C1381.59,322.77 1382.05,322.61 1382.99,322.61L1408.48,322.61C1417.43,322.74 1425.71,324.71 1429.81,333.81C1433.82,352.37 1423.32,372.16 1432.1,389.7L1493.56,389.7C1491.97,386.34 1491.29,382.97 1491.27,379.02L1493.43,329.19C1494,319.11 1490.8,310.62 1483.85,303.53C1481.06,300.98 1477.79,298.39 1475.2,297.42C1474,296.91 1476.01,296.4 1476.31,296.25C1485.38,291.66 1494.05,285.7 1501.13,276.77C1512.35,262.68 1515.43,242.7 1509.02,225.13L1509.02,225.14ZM1433.72,273.64C1425.52,277.12 1413.65,276.31 1413.65,276.31L1391.2,276.31L1399.27,237.79L1418.25,237.79C1418.25,237.79 1440.54,237.28 1445.34,244.38C1452.65,255.17 1446.08,268.38 1433.71,273.64L1433.72,273.64Z" style="fill-rule:nonzero;"/>
        </g>
        <g transform="matrix(0.725557,0,0,0.725557,632.830177,-114.231723)">
            <path d="M182.93,464.79L6.69,157.44L359.16,157.44L182.93,464.79ZM297.04,217.6L197.16,217.6L197.16,192.72L212.11,192.72L182.92,163.03L153.76,192.72L168.71,192.72L168.71,217.6L68.82,217.6L83.65,243.09L168.7,243.09L168.7,271.77L100.07,271.77L114.77,297.14L168.7,297.14L168.7,325.94L131.45,325.94L146.15,351.43L168.7,351.43L168.7,390.04L197.15,390.04L197.15,351.43L219.7,351.43L234.4,325.94L197.14,325.94L197.14,297.14L251.07,297.14L265.77,271.77L197.14,271.77L197.14,243.09L282.19,243.09L297.03,217.6L297.04,217.6Z" style="fill:rgb(41,91,167);"/>
        </g>
    </g>
</svg>
