<?xml version="1.0" encoding="UTF-8" standalone="no"?>
<!-- Created with Inkscape (http://www.inkscape.org/) -->

<svg
   xmlns:dc="http://purl.org/dc/elements/1.1/"
   xmlns:cc="http://creativecommons.org/ns#"
   xmlns:rdf="http://www.w3.org/1999/02/22-rdf-syntax-ns#"
   xmlns:svg="http://www.w3.org/2000/svg"
   xmlns="http://www.w3.org/2000/svg"
   xmlns:sodipodi="http://sodipodi.sourceforge.net/DTD/sodipodi-0.dtd"
   xmlns:inkscape="http://www.inkscape.org/namespaces/inkscape"
   width="150.61758"
   height="44.292702"
   viewBox="0 0 39.850902 11.71911"
   version="1.1"
   id="svg8640"
   inkscape:version="0.92.4 (5da689c313, 2019-01-14)"
   sodipodi:docname="lennox.svg">
  <defs
     id="defs8634" />
  <sodipodi:namedview
     id="base"
     pagecolor="#ffffff"
     bordercolor="#666666"
     borderopacity="1.0"
     inkscape:pageopacity="0.0"
     inkscape:pageshadow="2"
     inkscape:zoom="9.7047417"
     inkscape:cx="74.808792"
     inkscape:cy="21.646323"
     inkscape:document-units="mm"
     inkscape:current-layer="layer1"
     showgrid="false"
     fit-margin-top="0"
     fit-margin-left="0"
     fit-margin-right="0"
     fit-margin-bottom="0"
     units="px"
     inkscape:window-width="1920"
     inkscape:window-height="1001"
     inkscape:window-x="-9"
     inkscape:window-y="-9"
     inkscape:window-maximized="1" />
  <metadata
     id="metadata8637">
    <rdf:RDF>
      <cc:Work
         rdf:about="">
        <dc:format>image/svg+xml</dc:format>
        <dc:type
           rdf:resource="http://purl.org/dc/dcmitype/StillImage" />
        <dc:title></dc:title>
      </cc:Work>
    </rdf:RDF>
  </metadata>
  <g
     inkscape:label="Layer 1"
     inkscape:groupmode="layer"
     id="layer1"
     transform="translate(38.31399,-142.84148)">
    <g
       id="g9223"
       transform="translate(0.13229192,-0.13228966)">
      <path
         id="path8548"
         d="m -5.43793,153.9457 c -6.29893,1.38351 -14.60235,-0.027 -14.60235,-0.027 0,0 19.36088,1.05278 18.87643,-5.35887 -0.50641,-6.70295 -27.85771,-4.18121 -27.85771,-4.18121 15.9258,-2.78368 24.248,-0.14922 24.85469,-0.0381 3.15965,0.84138 5.2107,2.39078 5.39856,4.09019 0.50482,3.12024 -3.8063,4.88554 -6.66962,5.51498 z"
         style="fill:#c9202f;stroke-width:0.26458332"
         inkscape:connector-curvature="0" />
      <path
         id="path8550"
         d="m -16.35887,152.43176 c -0.63923,0 -1.07368,-0.14632 -1.3036,-0.43815 -0.22992,-0.29184 -0.27041,-0.73369 -0.0796,-1.33006 l 1.10278,-3.36762 c 0.22781,-0.71014 0.52123,-1.1848 0.87948,-1.42399 0.35798,-0.23918 0.91784,-0.35904 1.6801,-0.35904 h 0.78211 c 0.76121,0 1.0967,0.0796 1.38403,0.40614 0.24713,0.28046 0.25718,0.66701 0.0286,1.37715 l -1.09776,3.36498 c -0.19129,0.59637 -0.39872,1.08928 -0.81624,1.38191 -0.41751,0.29263 -1.04325,0.38868 -1.68222,0.38868 z m 3.55362,-5.23902 c 0.0799,-0.27225 0.14764,-0.52361 0.0299,-0.703 -0.0865,-0.13282 -0.21273,-0.17462 -0.45271,-0.19341 -0.21933,-0.031 -0.60483,-0.0164 -0.60483,-0.0164 -0.33285,0.01 -0.53473,0.0706 -0.70115,0.20426 -0.16642,0.13388 -0.25268,0.27464 -0.39132,0.70618 l -1.1639,3.57055 c -0.10742,0.33337 -0.12038,0.567 -0.04,0.70114 0.0799,0.13388 0.32914,0.21749 0.72681,0.21749 0.37518,-0.001 0.72813,-0.0156 1.04113,-0.25268 0.18045,-0.11377 0.26961,-0.33284 0.38603,-0.66357 z"
         style="fill:#c9202f;stroke-width:0.26458332"
         inkscape:connector-curvature="0" />
      <path
         id="path8552"
         d="m -34.4397,152.32063 c 0,0 -3.87509,0.004 -3.87429,5.3e-4 l 2.19974,-6.70904 h 1.64068 c 0,0 -1.98649,5.95762 -1.97061,5.95762 h 2.25451 z"
         style="fill:#c9202f;stroke-width:0.26458332"
         inkscape:connector-curvature="0" />
      <path
         id="path8554"
         d="m -28.04366,146.37306 c -0.002,0 0.25003,-0.7567 0.25003,-0.7567 h -3.84599 c -5.2e-4,0 -10e-4,0 -10e-4,0 l -2.19869,6.70427 h 3.83858 l 0.25162,-0.75089 c 0,0 -2.0492,0 -2.21853,0 -0.007,0 0.4011,-1.23613 0.84693,-2.5818 0.88291,0 1.93093,0 1.92987,0 -0.002,0 0.24818,-0.75644 0.24818,-0.75644 0,0 -1.01098,0 -1.9267,-2.7e-4 0.23178,-0.6985 0.45509,-1.37054 0.61727,-1.85817 1.04167,0 2.21007,0 2.20875,0 z"
         style="fill:#c9202f;stroke-width:0.26458332"
         inkscape:connector-curvature="0" />
      <path
         id="path8556"
         d="m -17.92547,145.61106 -1.45732,4.48998 -0.61145,-4.48918 -1.60682,7.9e-4 -2.18361,6.70878 h 1.60708 l 1.465,-4.49236 c 0,0 0.59928,4.42515 0.60987,4.49024 l -5.3e-4,0.002 0.93265,5.3e-4 2.1807,-6.71063 z"
         style="fill:#c9202f;stroke-width:0.26458332"
         inkscape:connector-curvature="0" />
      <path
         id="path8558"
         d="m -6.30841,145.61106 h -1.17131 l -1.39541,1.76001 -0.34634,-1.76001 -1.71873,0.002 0.63314,3.048 -2.7887,3.66078 h 1.15279 l 1.88171,-2.47544 0.51329,2.47438 1.6473,5.3e-4 -0.73475,-3.73327 z"
         style="fill:#c9202f;stroke-width:0.26458332"
         inkscape:connector-curvature="0" />
      <path
         id="path8560"
         d="m -23.46002,145.61133 -1.45812,4.49024 -0.61066,-4.48865 -1.60734,7.9e-4 -2.18334,6.70904 h 1.60707 l 1.46447,-4.49289 c 0,0 0.60008,4.42886 0.60987,4.48998 l -5.3e-4,0.003 h 0.93318 l 2.18044,-6.71116 h -0.93504 z"
         style="fill:#c9202f;stroke-width:0.26458332"
         inkscape:connector-curvature="0" />
      <path
         id="path8562"
         d="m -1.67026,153.93221 c 0,0.34528 -0.28311,0.62838 -0.62865,0.62838 -0.34528,0 -0.62786,-0.2831 -0.62786,-0.62838 0,-0.34528 0.28258,-0.62786 0.62786,-0.62786 0.34528,0 0.62865,0.28284 0.62865,0.62786 z m -1.15253,0 c 0,0.28469 0.23892,0.52255 0.52361,0.5244 0.28443,-0.002 0.52414,-0.23971 0.52414,-0.5244 0,-0.28416 -0.23971,-0.52387 -0.52414,-0.52387 -0.28469,0 -0.52361,0.23971 -0.52361,0.52387 z m 0.35904,-0.34158 h 0.27041 c 0.1479,0 0.2032,0.078 0.2032,0.15081 0,0.14103 -0.0884,0.18389 -0.16299,0.22067 l 0.11113,0.28575 -0.18018,0.0243 -0.0839,-0.27543 h -0.0762 l -0.0558,0.26564 h -0.16431 z m 0.10769,0.3056 h 0.059 c 0.0849,0 0.13864,-0.05 0.13864,-0.127 0,-0.0413 -0.0328,-0.078 -0.0865,-0.078 h -0.0693 z"
         style="fill:#c9202f;stroke-width:0.26458332"
         inkscape:connector-curvature="0" />
    </g>
  </g>
</svg>
