<?xml version="1.0" encoding="UTF-8" standalone="no"?><!DOCTYPE svg PUBLIC "-//W3C//DTD SVG 1.1//EN" "http://www.w3.org/Graphics/SVG/1.1/DTD/svg11.dtd"><svg width="100%" height="100%" viewBox="0 0 15897 1785" version="1.1" xmlns="http://www.w3.org/2000/svg" xmlns:xlink="http://www.w3.org/1999/xlink" xml:space="preserve" xmlns:serif="http://www.serif.com/" style="fill-rule:evenodd;clip-rule:evenodd;stroke-linejoin:round;stroke-miterlimit:2;"><g><g><clipPath id="_clip1"><path d="M7414.974,1528.971c-36.111,0 -65.386,29.275 -65.386,65.386c0,36.111 29.275,65.386 65.386,65.386c36.111,0 65.386,-29.275 65.386,-65.386c0,-36.111 -29.275,-65.386 -65.386,-65.386Z"/></clipPath><g clip-path="url(#_clip1)"><g><g><g><g><clipPath id="_clip2"><path d="M7414.974,1528.971c-36.111,0 -65.386,29.275 -65.386,65.386c0,36.111 29.275,65.386 65.386,65.386c36.111,0 65.386,-29.275 65.386,-65.386c0,-36.111 -29.275,-65.386 -65.386,-65.386Z"/></clipPath><g clip-path="url(#_clip2)"><rect x="7349.588" y="1528.971" width="130.773" height="130.773" style="fill:#fff;fill-rule:nonzero;"/></g></g></g></g></g></g></g></g><g><g><clipPath id="_clip3"><path d="M11793.186,1528.971c-36.111,0 -65.365,29.275 -65.365,65.386c0,36.111 29.253,65.386 65.365,65.386c36.111,0 65.386,-29.275 65.386,-65.386c0,-36.111 -29.275,-65.386 -65.386,-65.386Z"/></clipPath><g clip-path="url(#_clip3)"><g><g><g><g><clipPath id="_clip4"><path d="M11793.186,1528.971c-36.111,0 -65.365,29.275 -65.365,65.386c0,36.111 29.253,65.386 65.365,65.386c36.111,0 65.386,-29.275 65.386,-65.386c0,-36.111 -29.275,-65.386 -65.386,-65.386Z"/></clipPath><g clip-path="url(#_clip4)"><rect x="11727.821" y="1528.971" width="130.751" height="130.773" style="fill:#fff;fill-rule:nonzero;"/></g></g></g></g></g></g></g></g><g><g><g><g><g><g><path d="M5300.733,1202.26c206.163,0 341.949,-129.622 371.593,-340.712l-113.585,0c-20.985,158.008 -116.037,238.26 -254.297,238.26c-179.015,0 -283.941,-138.281 -283.941,-358.008c0,-219.748 106.163,-353.082 283.941,-353.082c120.985,0 212.326,62.956 239.497,179.015l117.274,0c-27.17,-172.83 -177.778,-281.467 -361.719,-281.467c-241.97,0 -396.267,186.393 -396.267,455.534c0,266.645 150.608,460.46 397.504,460.46Z" style="fill:#fff;fill-rule:nonzero;"/></g></g></g><g><g><g><path d="M6074.608,302.303l-114.822,0l0,878.971l572.808,0l0,-100l-457.986,0l0,-778.971Z" style="fill:#fff;fill-rule:nonzero;"/></g></g></g><g><g><g><rect x="6820.105" y="302.303" width="114.822" height="878.971" style="fill:#fff;fill-rule:nonzero;"/></g></g></g><g><g><g><path d="M7742.242,973.874l-29.622,87.652l-29.644,-87.652l-249.371,-671.571l-161.719,0l0,878.971l104.948,0l0,-582.682l-3.711,-159.266l58.03,138.281l227.148,603.668l108.637,0l209.852,-583.919l62.956,-156.793l-2.452,158.03l0,582.682l104.926,0l0,-878.971l-159.245,0l-240.734,671.571Z" style="fill:#fff;fill-rule:nonzero;"/></g></g></g><g><g><g><path d="M9220.979,1181.274l-339.497,-878.971l-129.622,0l-340.712,878.971l122.201,0l95.074,-258.008l372.808,0l92.6,258.008l127.148,0Zm-433.312,-691.319l29.622,-91.363l28.385,91.363l119.748,333.312l-299.978,0l122.222,-333.312Z" style="fill:#fff;fill-rule:nonzero;"/></g></g></g><g><g><g><path d="M10267.623,1199.786c243.207,0 339.497,-120.985 339.497,-260.482c0,-137.023 -88.889,-214.8 -251.845,-249.371l-154.319,-33.333c-109.874,-23.438 -153.082,-62.956 -153.082,-132.075c0,-92.6 74.067,-145.681 200,-145.681c134.549,0 212.326,59.266 222.201,170.356l109.874,0c-14.8,-169.119 -133.312,-264.171 -328.364,-264.171c-202.474,0 -312.348,101.215 -312.348,249.371c0,139.497 103.711,198.741 246.918,228.385l123.438,25.911c137.044,28.407 186.415,74.067 186.415,156.793c0,98.763 -74.067,160.482 -224.674,160.482c-151.845,0 -240.734,-62.956 -253.082,-208.637l-109.874,0c14.822,202.474 139.497,302.452 359.245,302.452Z" style="fill:#fff;fill-rule:nonzero;"/></g></g></g><g><g><g><path d="M11016.824,778.822l467.882,0l0,-100l-467.882,0l0,-276.519l507.378,0l0,-100l-622.201,0l0,878.971l633.312,0l0,-100l-518.49,0l0,-302.452Z" style="fill:#fff;fill-rule:nonzero;"/></g></g></g><g><g><g><path d="M12501.781,901.044c-8.637,-81.489 -58.03,-132.096 -134.57,-146.918c92.6,-25.911 156.793,-106.163 156.793,-219.727c0,-140.734 -101.237,-232.096 -269.119,-232.096l-407.4,0l0,878.971l114.822,0l0,-378.993l271.593,0c102.452,0 146.897,40.734 158.008,144.444l25.933,234.549l116.037,0l-32.096,-280.23Zm-539.475,-198.763l0,-299.978l272.83,0c111.089,0 171.593,50.608 171.593,143.207c0,99.978 -71.615,156.771 -191.363,156.771l-253.06,0Z" style="fill:#fff;fill-rule:nonzero;"/></g></g></g><g><g><g><path d="M13175.657,926.956l-43.207,133.333l-43.207,-133.333l-214.8,-624.653l-127.148,0l317.253,878.971l132.096,0l314.8,-878.971l-122.222,0l-213.563,624.653Z" style="fill:#fff;fill-rule:nonzero;"/></g></g></g><g><g><g><rect x="13780.405" y="302.303" width="114.822" height="878.971" style="fill:#fff;fill-rule:nonzero;"/></g></g></g><g><g><g><path d="M14603.779,1202.26c206.163,0 341.949,-129.622 371.593,-340.712l-113.585,0c-20.985,158.008 -116.037,238.26 -254.297,238.26c-179.015,0 -283.941,-138.281 -283.941,-358.008c0,-219.748 106.163,-353.082 283.941,-353.082c120.985,0 212.326,62.956 239.497,179.015l117.274,0c-27.17,-172.83 -177.778,-281.467 -361.719,-281.467c-241.97,0 -396.267,186.393 -396.267,455.534c0,266.645 150.608,460.46 397.504,460.46Z" style="fill:#fff;fill-rule:nonzero;"/></g></g></g><g><g><g><path d="M15377.654,778.822l467.882,0l0,-100l-467.882,0l0,-276.519l507.378,0l0,-100l-622.201,0l0,878.971l633.312,0l0,-100l-518.49,0l0,-302.452Z" style="fill:#fff;fill-rule:nonzero;"/></g></g></g></g><g><g><g><g><path d="M4953.038,1557.637l156.771,0l0,-20.942l-156.771,0l0,-103.841l169.01,0l0,-20.942l-192.687,0l0,281.163l197.83,0l0,-20.92l-174.154,0l0,-114.518Z" style="fill:#fff;fill-rule:nonzero;"/></g></g></g><g><g><g><path d="M5426.515,1629.1c0,11.849 0,21.723 0.391,30.816l-16.58,-26.476l-152.04,-221.528l-25.651,0l0,281.163l22.504,0l0,-217.188c0,-11.458 0,-21.332 -0.391,-30.404l16.97,26.454l150.846,221.137l26.845,0l0,-281.163l-22.895,0l0,217.188Z" style="fill:#fff;fill-rule:nonzero;"/></g></g></g><g><g><g><path d="M5588.806,1557.637l156.771,0l0,-20.942l-156.771,0l0,-103.841l169.01,0l0,-20.942l-192.687,0l0,281.163l197.83,0l0,-20.92l-174.154,0l0,-114.518Z" style="fill:#fff;fill-rule:nonzero;"/></g></g></g><g><g><g><path d="M6070.964,1609.351c-3.537,-29.601 -18.164,-48.177 -48.568,-52.908c33.963,-7.096 56.076,-32.378 56.076,-70.681c0,-45.421 -31.988,-73.85 -83.312,-73.85l-126.758,0l0,281.163l23.676,0l0,-126.367l93.989,0c45.812,0 58.051,18.555 62.001,51.736l8.29,74.631l24.089,0l-9.484,-83.724Zm-178.885,-63.954l0,-112.543l99.132,0c40.278,0 62.782,20.139 62.782,54.883c0,36.719 -25.673,57.661 -68.707,57.661l-93.207,0Z" style="fill:#fff;fill-rule:nonzero;"/></g></g></g><g><g><g><path d="M6438.218,1548.154l-120.052,0l0,20.92l96.354,0l0,18.967c-8.29,56.076 -45.399,89.236 -100.694,89.236c-67.925,0 -106.619,-51.324 -106.619,-124.783c0,-76.215 39.497,-124.002 108.594,-124.002c54.883,0 88.064,27.648 95.573,67.925l22.895,-1.584c-9.484,-55.273 -55.273,-88.043 -119.64,-88.043c-82.943,0 -131.901,57.639 -131.901,144.922c0,88.845 51.736,147.287 130.707,147.287c47.786,0 82.921,-21.332 102.279,-58.442l4.34,52.517l18.164,0l0,-144.922Z" style="fill:#fff;fill-rule:nonzero;"/></g></g></g><g><g><g><rect x="6553.929" y="1411.912" width="23.676" height="281.163" style="fill:#fff;fill-rule:nonzero;"/></g></g></g><g><g><g><path d="M6925.116,1693.075l-114.518,-281.163l-26.454,0l-114.909,281.163l25.651,0l35.156,-88.064l133.854,0l34.766,88.064l26.454,0Zm-133.876,-240.885l6.315,-19.748l6.337,19.748l51.714,131.901l-117.274,0l52.908,-131.901Z" style="fill:#fff;fill-rule:nonzero;"/></g></g></g><g><g><g><path d="M8045.645,1699c63.976,0 109.787,-42.253 116.493,-105.035l-23.676,0c-5.534,52.517 -42.665,83.312 -92.014,83.312c-64.366,0 -101.888,-50.152 -101.888,-125.174c0,-76.606 39.497,-123.611 101.497,-123.611c46.202,0 81.337,26.476 89.627,68.316l24.479,0c-7.899,-53.299 -55.273,-90.017 -114.909,-90.017c-75.825,0 -125.174,58.442 -125.174,145.312c0,84.896 46.984,146.897 125.564,146.897Z" style="fill:#fff;fill-rule:nonzero;"/></g></g></g><g><g><g><path d="M8283.761,1411.912l-23.676,0l0,281.163l180.859,0l0,-20.92l-157.183,0l0,-260.243Z" style="fill:#fff;fill-rule:nonzero;"/></g></g></g><g><g><g><rect x="8538.48" y="1411.912" width="23.676" height="281.163" style="fill:#fff;fill-rule:nonzero;"/></g></g></g><g><g><g><path d="M8823.578,1646.483l-7.509,21.723l-7.487,-21.723l-97.548,-234.57l-33.16,0l0,281.163l21.701,0l0,-217.578l-0.781,-35.156l105.838,252.734l22.504,0l89.627,-217.969l13.824,-34.353l-0.781,34.744l0,217.578l22.114,0l0,-281.163l-32.769,0l-95.573,234.57Z" style="fill:#fff;fill-rule:nonzero;"/></g></g></g><g><g><g><path d="M9299.422,1693.075l-114.518,-281.163l-26.454,0l-114.909,281.163l25.651,0l35.156,-88.064l133.854,0l34.766,88.064l26.454,0Zm-133.876,-240.885l6.315,-19.748l6.337,19.748l51.714,131.901l-117.274,0l52.908,-131.901Z" style="fill:#fff;fill-rule:nonzero;"/></g></g></g><g><g><g><path d="M9332.582,1411.912l0,20.942l97.938,0l0,260.221l24.089,0l0,-260.221l98.329,0l0,-20.942l-220.356,0Z" style="fill:#fff;fill-rule:nonzero;"/></g></g></g><g><g><g><rect x="9648.114" y="1411.912" width="23.676" height="281.163" style="fill:#fff;fill-rule:nonzero;"/></g></g></g><g><g><g><path d="M9868.455,1671.352c-21.723,0 -47.396,0 -67.122,1.194c13.802,-16.992 27.626,-34.353 40.668,-51.345l143.338,-189.931l0,-19.358l-199.023,0l0,21.723l106.619,0c20.53,0 44.227,0 63.976,-0.781c-12.24,14.996 -24.479,30.013 -35.547,45.009l-145.312,191.905l0,23.307l215.213,0l0,-21.723l-122.808,0Z" style="fill:#fff;fill-rule:nonzero;"/></g></g></g><g><g><g><path d="M10327.314,1693.075l-114.518,-281.163l-26.454,0l-114.909,281.163l25.651,0l35.156,-88.064l133.854,0l34.766,88.064l26.454,0Zm-133.876,-240.885l6.315,-19.748l6.337,19.748l51.714,131.901l-117.274,0l52.908,-131.901Z" style="fill:#fff;fill-rule:nonzero;"/></g></g></g><g><g><g><path d="M10615.985,1593.965c-5.534,52.517 -42.665,83.312 -92.014,83.312c-64.366,0 -101.888,-50.152 -101.888,-125.174c0,-76.606 39.497,-123.611 101.497,-123.611c46.202,0 81.337,26.476 89.627,68.316l24.479,0c-7.899,-53.299 -55.273,-90.017 -114.909,-90.017c-75.825,0 -125.174,58.442 -125.174,145.312c0,79.774 41.471,139.388 112.153,146.115l-15.017,24.089l7.509,12.24l16.58,0c15.408,0 21.723,5.924 21.723,16.189c0,11.437 -8.681,18.945 -31.207,18.945l-12.24,0l0,15.017l13.824,0c30.816,0 48.568,-13.433 48.568,-34.766c0,-19.748 -13.411,-31.185 -37.109,-31.185l-10.655,0l12.63,-19.748c63.173,-0.391 108.594,-42.643 115.299,-105.035l-23.676,0Z" style="fill:#fff;fill-rule:nonzero;"/></g></g></g><g><g><g><path d="M10809.071,1340.84c26.866,0 28.038,41.059 63.976,41.059c23.698,0 39.887,-16.58 40.668,-59.223l-18.164,0c-1.172,30.013 -8.29,41.059 -22.504,41.059c-26.454,0 -28.038,-41.059 -63.976,-41.059c-22.895,0 -39.887,16.97 -40.668,59.223l18.164,0c1.194,-29.601 8.681,-41.059 22.504,-41.059Zm160.33,352.235l-114.518,-281.163l-26.454,0l-114.909,281.163l25.651,0l35.156,-88.064l133.854,0l34.766,88.064l26.454,0Zm-133.876,-240.885l6.315,-19.748l6.337,19.748l51.714,131.901l-117.274,0l52.908,-131.901Z" style="fill:#fff;fill-rule:nonzero;"/></g></g></g><g><g><g><path d="M11170.789,1699c79.384,0 131.489,-60.807 131.489,-146.506c0,-85.286 -52.105,-145.703 -131.489,-145.703c-78.971,0 -131.098,60.417 -131.098,145.703c0,85.308 52.127,146.506 131.098,146.506Zm0,-21.723c-63.976,0 -106.619,-50.152 -106.619,-124.783c0,-74.631 42.643,-124.002 106.619,-124.002c64.366,0 107.01,49.371 107.01,124.002c0,75.022 -41.84,124.783 -107.01,124.783Z" style="fill:#fff;fill-rule:nonzero;"/></g></g></g><g><g><g><path d="M12524.196,1609.351c-3.537,-29.601 -18.164,-48.177 -48.568,-52.908c33.963,-7.096 56.076,-32.378 56.076,-70.681c0,-45.421 -31.988,-73.85 -83.312,-73.85l-126.758,0l0,281.163l23.676,0l0,-126.367l93.989,0c45.812,0 58.051,18.555 62.001,51.736l8.29,74.631l24.089,0l-9.484,-83.724Zm-178.885,-63.954l0,-112.543l99.132,0c40.278,0 62.782,20.139 62.782,54.883c0,36.719 -25.673,57.661 -68.707,57.661l-93.207,0Z" style="fill:#fff;fill-rule:nonzero;"/></g></g></g><g><g><g><path d="M12669.119,1557.637l156.771,0l0,-20.942l-156.771,0l0,-103.841l169.01,0l0,-20.942l-192.687,0l0,281.163l197.83,0l0,-20.92l-174.154,0l0,-114.518Z" style="fill:#fff;fill-rule:nonzero;"/></g></g></g><g><g><g><path d="M13138.647,1411.912l-189.931,0l0,281.163l23.676,0l0,-134.657l140.994,0l0,-21.332l-140.994,0l0,-104.232l166.254,0l0,-20.942Z" style="fill:#fff;fill-rule:nonzero;"/></g></g></g><g><g><g><path d="M13430.858,1609.351c-3.537,-29.601 -18.164,-48.177 -48.568,-52.908c33.963,-7.096 56.076,-32.378 56.076,-70.681c0,-45.421 -31.988,-73.85 -83.312,-73.85l-126.758,0l0,281.163l23.676,0l0,-126.367l93.989,0c45.812,0 58.051,18.555 62.001,51.736l8.29,74.631l24.089,0l-9.484,-83.724Zm-178.885,-63.954l0,-112.543l99.132,0c40.278,0 62.782,20.139 62.782,54.883c0,36.719 -25.673,57.661 -68.707,57.661l-93.207,0Z" style="fill:#fff;fill-rule:nonzero;"/></g></g></g><g><g><g><rect x="13552.105" y="1411.912" width="23.676" height="281.163" style="fill:#fff;fill-rule:nonzero;"/></g></g></g><g><g><g><path d="M13937.507,1548.154l-120.052,0l0,20.92l96.354,0l0,18.967c-8.29,56.076 -45.399,89.236 -100.694,89.236c-67.925,0 -106.619,-51.324 -106.619,-124.783c0,-76.215 39.497,-124.002 108.594,-124.002c54.883,0 88.064,27.648 95.573,67.925l22.895,-1.584c-9.484,-55.273 -55.273,-88.043 -119.64,-88.043c-82.943,0 -131.901,57.639 -131.901,144.922c0,88.845 51.736,147.287 130.707,147.287c47.786,0 82.921,-21.332 102.279,-58.442l4.34,52.517l18.164,0l0,-144.922Z" style="fill:#fff;fill-rule:nonzero;"/></g></g></g><g><g><g><path d="M14076.893,1557.637l156.771,0l0,-20.942l-156.771,0l0,-103.841l169.01,0l0,-20.942l-192.687,0l0,281.163l197.83,0l0,-20.92l-174.154,0l0,-114.518Z" style="fill:#fff;fill-rule:nonzero;"/></g></g></g><g><g><g><path d="M14559.051,1609.351c-3.537,-29.601 -18.164,-48.177 -48.568,-52.908c33.963,-7.096 56.076,-32.378 56.076,-70.681c0,-45.421 -31.988,-73.85 -83.312,-73.85l-126.758,0l0,281.163l23.676,0l0,-126.367l93.989,0c45.812,0 58.051,18.555 62.001,51.736l8.29,74.631l24.089,0l-9.484,-83.724Zm-178.885,-63.954l0,-112.543l99.132,0c40.278,0 62.782,20.139 62.782,54.883c0,36.719 -25.673,57.661 -68.707,57.661l-93.207,0Z" style="fill:#fff;fill-rule:nonzero;"/></g></g></g><g><g><g><path d="M14912.091,1693.075l-114.518,-281.163l-26.454,0l-114.909,281.163l25.651,0l35.156,-88.064l133.854,0l34.766,88.064l26.454,0Zm-133.876,-240.885l6.315,-19.748l6.337,19.748l51.714,131.901l-117.274,0l52.908,-131.901Z" style="fill:#fff;fill-rule:nonzero;"/></g></g></g><g><g><g><path d="M15200.762,1593.965c-5.534,52.517 -42.665,83.312 -92.014,83.312c-64.366,0 -101.888,-50.152 -101.888,-125.174c0,-76.606 39.497,-123.611 101.497,-123.611c46.202,0 81.337,26.476 89.627,68.316l24.479,0c-7.899,-53.299 -55.273,-90.017 -114.909,-90.017c-75.825,0 -125.174,58.442 -125.174,145.312c0,79.774 41.471,139.388 112.153,146.115l-15.017,24.089l7.509,12.24l16.58,0c15.408,0 21.723,5.924 21.723,16.189c0,11.437 -8.681,18.945 -31.207,18.945l-12.24,0l0,15.017l13.824,0c30.816,0 48.568,-13.433 48.568,-34.766c0,-19.748 -13.411,-31.185 -37.109,-31.185l-10.655,0l12.63,-19.748c63.173,-0.391 108.594,-42.643 115.299,-105.035l-23.676,0Z" style="fill:#fff;fill-rule:nonzero;"/></g></g></g><g><g><g><path d="M15393.848,1340.84c26.866,0 28.038,41.059 63.976,41.059c23.698,0 39.887,-16.58 40.668,-59.223l-18.164,0c-1.172,30.013 -8.29,41.059 -22.504,41.059c-26.454,0 -28.038,-41.059 -63.976,-41.059c-22.895,0 -39.887,16.97 -40.668,59.223l18.164,0c1.194,-29.601 8.681,-41.059 22.504,-41.059Zm160.33,352.235l-114.518,-281.163l-26.454,0l-114.909,281.163l25.651,0l35.156,-88.064l133.854,0l34.766,88.064l26.454,0Zm-133.876,-240.885l6.315,-19.748l6.337,19.748l51.714,131.901l-117.274,0l52.908,-131.901Z" style="fill:#fff;fill-rule:nonzero;"/></g></g></g><g><g><g><path d="M15755.566,1699c79.384,0 131.489,-60.807 131.489,-146.506c0,-85.286 -52.105,-145.703 -131.489,-145.703c-78.971,0 -131.098,60.417 -131.098,145.703c0,85.308 52.127,146.506 131.098,146.506Zm0,-21.723c-63.976,0 -106.619,-50.152 -106.619,-124.783c0,-74.631 42.643,-124.002 106.619,-124.002c64.366,0 107.01,49.371 107.01,124.002c0,75.022 -41.84,124.783 -107.01,124.783Z" style="fill:#fff;fill-rule:nonzero;"/></g></g></g></g><path d="M799.913,0.065c439.931,0.043 802.387,1.801 805.447,3.885c3.038,2.083 90.582,113.867 194.51,248.394l188.954,244.618l-0.043,503.147c0,326.367 -1.866,509.766 -5.273,522.092c-8.116,29.232 -44.401,80.143 -88.151,123.655c-30.816,30.642 -50.26,44.77 -86.979,63.151l-47.309,23.72l-1428.689,0l473.872,-474.371l700.825,-2.648l2.648,-776.128l-1030.534,0l0,693.663l-479.188,479.492l0,-1652.734l799.913,0.065Z" style="fill:#fff;fill-rule:nonzero;"/><path d="M4255.859,479.579l-1509.635,0l0,154.709l1306.12,0.26l29.21,12.023c63.346,26.085 124.957,81.467 155.512,139.844l16.211,30.946l2.799,915.365l-1989.041,0l0,-474.436l1509.657,0l0,-149.566l-1509.657,0l0,-613.477l382.726,-495.247l1606.098,0l0,479.579Z" style="fill:#fff;fill-rule:nonzero;"/><path d="M1767.274,0l718.75,0c-0.109,0 -66.992,100.564 -66.992,100.564l-60.265,90.234l-462.066,0l-62.457,-90.234l-66.97,-100.564Z" style="fill:#1d7cb4;fill-rule:nonzero;"/></g></g><path d="M2331.445,226.91l-203.863,288.303c0,0 -205.078,-288.477 -205.751,-288.303l409.614,0Z" style="fill:#3ec2f4;fill-rule:nonzero;"/></svg>