<?xml version="1.0" encoding="UTF-8" standalone="no"?>
<!DOCTYPE svg PUBLIC "-//W3C//DTD SVG 1.1//EN" "http://www.w3.org/Graphics/SVG/1.1/DTD/svg11.dtd">
<svg width="100%" height="100%" viewBox="0 0 717 154" version="1.1" xmlns="http://www.w3.org/2000/svg" xmlns:xlink="http://www.w3.org/1999/xlink" xml:space="preserve" xmlns:serif="http://www.serif.com/" style="fill-rule:evenodd;clip-rule:evenodd;stroke-linejoin:round;stroke-miterlimit:2;">
    <g transform="matrix(1,0,0,1,-21,-97.569575)">
        <g transform="matrix(1.009555,0,0,1.009555,21,97.569575)">
            <rect x="0" y="0" width="710" height="152" style="fill:none;"/>
            <clipPath id="_clip1">
                <rect x="0" y="0" width="710" height="152"/>
            </clipPath>
            <g clip-path="url(#_clip1)">
                <g id="Fundo" transform="matrix(1,0,0,1,-2,-2)">
                    <path d="M95.028,66.965C95.2,67.137 95.239,67.414 95.41,67.587C95.58,67.758 95.856,67.795 96.024,67.967C96.194,68.143 96.224,68.426 96.396,68.6C96.565,68.771 96.849,68.794 97.015,68.968C97.538,69.52 97.253,69.692 97.763,70.271C97.906,70.435 98.14,70.501 98.282,70.666C98.431,70.838 98.362,70.889 100.072,72.876C100.927,73.869 100.959,73.83 101.027,73.92C101.338,74.337 101.509,74.845 101.813,75.267C101.93,75.43 102.153,75.494 102.275,75.653C102.443,75.875 102.505,76.164 102.666,76.391C102.774,76.544 102.969,76.622 103.07,76.779C103.907,78.082 103.815,78.123 104.66,79.407C105.042,79.987 105.085,79.939 105.371,80.571C105.474,80.799 105.475,80.775 106.778,83.365C108.62,87.027 108.566,87.057 110.31,93.552C111.169,96.751 110.648,96.818 111.234,100.547C111.632,103.087 111.344,112.145 109.084,119.357C108.809,120.235 107.281,124.367 107.264,124.399C107.198,124.528 107.023,124.579 106.955,124.708C106.526,125.521 106.769,125.609 106.306,126.402C106.225,126.54 106.044,126.6 105.964,126.739C105.513,127.521 105.757,127.611 105.276,128.37C105.181,128.52 104.991,128.59 104.892,128.737C104.024,130.018 104.238,130.131 103.343,131.399C103.233,131.555 103.041,131.642 102.934,131.8C102.31,132.722 102.353,132.733 101.701,133.638C101.532,133.872 100.42,135.415 99.466,136.468C99.312,136.638 99.083,136.725 98.927,136.891C98.757,137.072 98.669,137.319 98.499,137.499C98.339,137.669 98.101,137.754 97.946,137.928C97.626,138.287 97.406,138.727 97.084,139.083C96.924,139.26 96.683,139.346 96.513,139.513C96.346,139.678 96.253,139.908 96.084,140.071C95.909,140.239 95.668,140.325 95.494,140.493C95.327,140.655 95.244,140.892 95.074,141.05C94.894,141.217 94.638,141.288 94.461,141.457C94.294,141.617 94.241,141.881 94.059,142.023C93.656,142.338 93.151,142.5 92.739,142.803C92.573,142.925 92.508,143.154 92.346,143.282C92.067,143.503 92.048,143.471 88.645,145.737C87.714,146.357 87.668,146.253 86.74,146.889C86.592,146.991 86.52,147.182 86.37,147.279C86.126,147.437 85.822,147.485 85.577,147.642C85.438,147.731 85.39,147.939 85.238,148.002C85.089,148.064 84.905,147.923 84.755,147.981C84.543,148.064 84.272,148.652 81.574,149.658C81.19,149.801 68.47,156.268 50.516,154.356C42.672,153.521 36.808,151.476 35.658,151.075C31.501,149.625 28.133,147.642 27.562,147.385C25.802,146.59 25.572,146.129 25.234,145.909C24.3,145.302 24.28,145.357 23.359,144.718C23.129,144.559 22.849,144.481 22.626,144.314C22.467,144.194 22.382,143.994 22.225,143.871C21.461,143.272 19.6,141.846 19.371,141.67C19.159,141.508 18.88,141.441 18.678,141.265C18.513,141.121 18.457,140.879 18.293,140.733C18.105,140.566 17.827,140.52 17.644,140.348C17.472,140.185 17.425,139.918 17.256,139.753C17.081,139.582 16.809,139.535 16.635,139.363C16.463,139.193 16.414,138.924 16.245,138.751C16.078,138.581 15.812,138.532 15.648,138.359C15.475,138.178 15.425,137.903 15.258,137.716C15.112,137.552 14.871,137.492 14.725,137.327C14.575,137.156 14.632,137.127 12.939,135.12C12.294,134.354 9.578,130.061 9.296,129.614C8.426,128.239 3.463,119.66 3.104,108.519C2.905,102.354 2.332,92.357 9.941,77.733C10.253,77.133 10.349,77.203 10.634,76.574C11.432,74.811 11.924,74.593 12.136,74.263C12.441,73.79 12.627,73.249 12.926,72.773C13.025,72.617 13.214,72.534 13.319,72.383C13.479,72.154 13.546,71.867 13.713,71.644C13.832,71.485 14.041,71.41 14.164,71.253C14.33,71.042 14.4,70.765 14.568,70.555C14.7,70.39 14.923,70.313 15.05,70.144C15.372,69.718 15.585,69.218 15.901,68.787C16.019,68.626 16.221,68.541 16.341,68.382C16.504,68.167 16.566,67.885 16.741,67.68C16.882,67.516 17.125,67.462 17.268,67.299C17.435,67.108 17.48,66.828 17.652,66.641C17.81,66.47 18.071,66.419 18.232,66.251C18.403,66.072 18.456,65.801 18.627,65.621C18.789,65.45 19.046,65.391 19.211,65.222C19.381,65.047 19.442,64.785 19.613,64.611C19.78,64.44 20.038,64.378 20.207,64.208C20.376,64.038 20.439,63.78 20.61,63.609C20.826,63.393 21.009,63.573 21.61,62.611C21.739,62.405 21.801,62.15 21.975,61.98C22.149,61.808 22.443,61.793 22.617,61.62C22.789,61.448 22.8,61.153 22.974,60.983C23.152,60.811 23.455,60.81 23.63,60.635C23.803,60.463 23.797,60.157 23.974,59.988C24.528,59.459 24.723,59.802 25.309,59.283C25.473,59.137 25.522,58.889 25.686,58.743C25.817,58.627 25.917,58.775 27.449,57.441C27.534,57.367 28.128,56.849 28.5,56.5C28.667,56.343 28.743,56.1 28.922,55.957C29.328,55.633 29.818,55.426 30.235,55.115C30.316,55.055 30.881,54.109 32.466,54.585C32.808,54.687 32.779,54.731 33.608,55.344C33.827,55.507 34.112,55.57 34.322,55.744C34.485,55.88 34.539,56.119 34.701,56.256C34.898,56.424 35.179,56.472 35.375,56.642C35.544,56.789 35.604,57.035 35.77,57.186C35.959,57.357 36.229,57.421 36.42,57.589C36.587,57.737 36.663,57.97 36.828,58.119C37.018,58.29 37.278,58.367 37.469,58.535C37.635,58.68 37.713,58.912 37.887,59.049C38.299,59.374 38.789,59.589 39.207,59.905C39.367,60.026 39.451,60.23 39.611,60.351C39.826,60.515 40.112,60.573 40.319,60.747C40.482,60.883 40.535,61.123 40.697,61.261C40.894,61.429 41.177,61.475 41.373,61.645C41.542,61.792 41.601,62.039 41.767,62.189C41.956,62.361 42.227,62.423 42.418,62.591C42.586,62.739 42.66,62.973 42.826,63.122C43.015,63.293 43.275,63.37 43.466,63.538C44.001,64.009 43.928,64.071 44.52,64.478C45.313,65.023 45.23,65.107 45.585,65.404C47.017,66.602 47.039,66.588 47.099,66.707C47.196,66.899 47.129,67.989 47.025,68.127C46.789,68.44 46.48,68.048 43.115,71.076C42.585,71.553 42.61,71.562 42.08,72.057C41.901,72.224 41.651,72.304 41.476,72.474C41.307,72.638 41.231,72.883 41.061,73.047C40.885,73.215 40.629,73.283 40.455,73.454C39.936,73.965 40.034,74.039 39.445,74.444C38.641,74.997 38.766,75.118 38.444,75.445C37.7,76.198 37.636,76.102 36.901,76.875C36.283,77.523 34.354,79.966 34.138,80.24C34.016,80.394 33.844,80.504 33.728,80.662C33.567,80.883 33.482,81.154 33.313,81.368C33.188,81.527 32.981,81.609 32.856,81.768C32.691,81.979 32.618,82.253 32.452,82.464C32.329,82.621 32.106,82.686 31.999,82.855C31.701,83.322 31.553,83.875 31.255,84.343C31.154,84.504 30.922,84.552 30.82,84.713C29.99,86.017 30.149,86.086 29.319,87.403C29.23,87.543 29.039,87.603 28.963,87.75C28.377,88.894 25.041,96.355 24.81,100.526C24.445,107.093 25.003,108.465 25.432,110.514C25.594,111.291 26.557,115.897 29.129,119.729C33.847,126.762 36.324,127.697 38.222,128.936C38.375,129.035 38.454,129.225 38.606,129.326C39.198,129.72 41.098,130.745 41.318,130.863C42.762,131.642 42.828,131.472 43.407,131.726C43.532,131.781 43.579,131.952 43.703,132.011C44.497,132.387 50.043,133.942 51.549,134.117C53.049,134.292 59.637,134.559 62.593,133.87C67.41,132.748 69.945,131.52 70.426,131.341C70.708,131.236 71.01,131.178 71.273,131.035C71.41,130.961 71.467,130.781 71.601,130.702C71.857,130.551 72.17,130.51 72.424,130.356C72.565,130.27 72.612,130.06 72.764,129.996C72.908,129.936 73.086,130.078 73.23,130.019C73.387,129.955 73.447,129.752 73.589,129.66C74.177,129.276 74.184,129.31 74.761,128.91C77.516,127 78.274,126.477 79.875,124.875C79.994,124.757 81.116,123.634 81.323,123.364C81.487,123.151 81.558,122.875 81.73,122.668C81.864,122.508 82.091,122.444 82.224,122.283C82.392,122.079 82.449,121.799 82.614,121.593C82.744,121.431 82.976,121.369 83.095,121.199C83.203,121.045 84.169,119.508 84.262,119.36C84.74,118.6 84.543,118.519 84.983,117.75C85.324,117.155 85.412,117.215 85.664,116.58C86.279,115.027 86.67,114.685 87.307,112.453C90.139,102.531 87.264,93.58 86.253,91.607C85.943,91 85.904,91.042 85.666,90.422C85.558,90.141 85.475,89.846 85.325,89.585C85.247,89.449 85.05,89.397 84.993,89.25C84.934,89.097 85.064,88.909 85.005,88.756C84.947,88.606 84.751,88.55 84.668,88.413C83.937,87.203 84.142,87.108 82.885,85.259C82.726,85.026 82.637,84.748 82.463,84.526C82.333,84.359 82.105,84.281 81.985,84.106C81.685,83.667 81.523,83.144 81.218,82.708C81.102,82.543 80.868,82.49 80.745,82.331C80.575,82.113 80.52,81.823 80.357,81.6C80.242,81.442 80.043,81.36 79.923,81.206C79.754,80.99 79.675,80.711 79.497,80.502C79.351,80.331 79.116,80.251 78.966,80.082C78.799,79.894 78.735,79.627 78.561,79.445C78.399,79.275 78.138,79.221 77.979,79.048C77.81,78.866 77.774,78.584 77.601,78.407C77.433,78.235 77.15,78.207 76.984,78.033C76.466,77.488 76.757,77.3 76.23,76.759C76.064,76.589 75.802,76.536 75.637,76.366C75.467,76.192 75.418,75.922 75.247,75.749C75.078,75.578 74.809,75.53 74.639,75.36C74.469,75.191 74.421,74.924 74.25,74.756C74.076,74.585 73.806,74.536 73.63,74.366C73.46,74.203 73.405,73.943 73.236,73.779C73.059,73.608 72.792,73.551 72.613,73.382C72.444,73.222 72.381,72.97 72.213,72.809C72.033,72.638 71.77,72.573 71.588,72.405C71.421,72.25 71.349,72.011 71.182,71.856C70.998,71.685 70.738,71.611 70.552,71.443C70.385,71.293 70.303,71.064 70.137,70.913C69.227,70.086 67.583,68.871 67.355,68.702C65.248,67.146 65.349,67.056 65.168,66.922C64.734,66.601 64.223,66.397 63.78,66.089C63.623,65.979 63.535,65.789 63.38,65.678C63.154,65.517 62.869,65.449 62.648,65.281C62.49,65.162 62.417,64.952 62.261,64.831C61.578,64.301 61.531,64.384 53.379,58.685C53.15,58.525 52.864,58.456 52.64,58.29C52.483,58.173 52.406,57.968 52.251,57.849C51.669,57.402 49.568,55.912 49.333,55.745C49.108,55.586 48.836,55.498 48.617,55.33C48.458,55.208 48.377,55 48.212,54.886C47.764,54.575 47.243,54.377 46.794,54.066C46.61,53.938 42.846,50.751 42.491,50.51C42.346,50.411 42.204,50.314 40.78,49.125C39.787,48.295 39.763,48.341 39.679,48.267C39.515,48.121 39.46,47.876 39.295,47.729C39.108,47.561 38.83,47.517 38.647,47.344C38.476,47.182 38.43,46.916 38.26,46.751C38.084,46.58 37.811,46.533 37.635,46.362C37.432,46.166 37.599,45.936 36.633,45.369C36.002,44.997 36,45.002 35.656,44.356C35.237,43.567 35.084,43.714 34.754,43.316C34.58,43.105 34.53,42.813 34.368,42.593C34.253,42.438 34.041,42.369 33.934,42.208C33.625,41.744 33.44,41.205 33.135,40.739C33.033,40.584 32.828,40.517 32.725,40.363C32.231,39.62 32.468,39.519 32.023,38.743C31.944,38.606 31.768,38.544 31.69,38.406C31.228,37.592 31.481,37.511 31.065,36.675C31.006,36.554 30.82,36.522 30.774,36.395C30.545,35.762 29.83,32.754 29.754,32.436C29.468,31.235 28.088,22.064 34.088,14.203C34.767,13.314 34.67,13.253 35.432,12.438C35.741,12.108 38.463,9.197 39.553,8.567C39.79,8.429 40.053,8.333 40.272,8.167C40.424,8.052 40.492,7.845 40.648,7.736C40.884,7.573 41.186,7.526 41.425,7.368C41.565,7.275 41.612,7.062 41.766,6.996C41.911,6.933 42.092,7.076 42.239,7.019C42.392,6.958 42.448,6.755 42.589,6.671C42.699,6.606 45.658,5.324 47.568,4.713C49.24,4.178 56.733,3.193 62.336,4.962C62.505,5.015 63.749,5.408 64.402,5.733C64.531,5.797 64.581,5.969 64.709,6.035C65.524,6.464 65.612,6.219 66.397,6.696C66.54,6.782 66.598,6.977 66.744,7.057C67.252,7.337 67.835,7.467 68.335,7.761C68.622,7.93 68.503,8.086 71.629,10.309C71.854,10.47 72.136,10.542 72.357,10.71C72.516,10.831 72.592,11.039 72.749,11.162C72.96,11.328 73.236,11.399 73.447,11.566C73.61,11.695 73.687,11.915 73.855,12.038C75.076,12.933 75.166,12.763 76.376,13.682C76.534,13.802 76.612,14.012 76.776,14.125C77.228,14.435 77.754,14.629 78.207,14.938C78.365,15.046 78.436,15.253 78.591,15.365C78.816,15.527 79.111,15.579 79.331,15.748C79.491,15.87 79.55,16.094 79.707,16.219C79.918,16.386 80.202,16.442 80.413,16.608C80.577,16.738 80.643,16.969 80.812,17.092C81.706,17.743 81.765,17.631 82.613,18.354C84.221,19.726 83.946,20.082 83.946,25.5C83.946,37.983 84.417,38.28 83.649,38.663C82.6,39.186 82.478,39.104 81.626,38.305C81.479,38.167 81.433,37.942 81.283,37.809C81.081,37.631 80.796,37.565 80.591,37.39C80.428,37.252 80.356,37.024 80.194,36.884C79.503,36.289 77.574,34.894 77.342,34.726C77.12,34.565 76.847,34.482 76.632,34.312C76.472,34.186 76.389,33.979 76.23,33.851C75.261,33.072 73.597,31.861 73.365,31.692C73.144,31.531 72.865,31.457 72.65,31.288C72.489,31.161 72.415,30.946 72.256,30.817C72.05,30.65 71.776,30.582 71.571,30.414C71.407,30.278 71.336,30.047 71.165,29.919C70.735,29.598 70.225,29.395 69.787,29.084C69.629,28.971 69.547,28.772 69.39,28.658C69.168,28.495 68.881,28.434 68.666,28.264C68.505,28.137 68.441,27.912 68.282,27.782C68.077,27.615 67.797,27.557 67.593,27.389C67.427,27.252 67.354,27.025 67.191,26.886C66.482,26.282 64.571,24.898 64.339,24.73C62.315,23.265 62.434,23.136 60.361,21.707C53.758,17.157 49.712,22.63 49.37,23.426C48.333,25.843 48.109,25.886 48.623,28.473C48.657,28.647 48.859,29.662 49.486,30.51C49.617,30.687 49.862,30.752 50.004,30.92C50.493,31.504 50.248,31.664 50.791,32.19C50.97,32.363 51.235,32.425 51.422,32.589C51.584,32.73 51.65,32.965 51.822,33.093C52.256,33.414 52.773,33.611 53.217,33.918C53.374,34.027 53.458,34.222 53.613,34.333C53.838,34.494 54.125,34.558 54.345,34.727C54.504,34.849 54.574,35.064 54.731,35.189C54.941,35.355 55.22,35.42 55.43,35.587C55.594,35.717 55.665,35.943 55.834,36.066C57.069,36.969 57.161,36.79 58.359,37.706C58.518,37.827 58.596,38.035 58.753,38.159C59.548,38.785 61.418,40.108 61.653,40.274C62.898,41.155 62.933,41.069 64.205,41.941C64.363,42.049 64.432,42.259 64.587,42.371C64.813,42.533 65.108,42.582 65.329,42.751C65.489,42.874 65.545,43.1 65.703,43.226C65.912,43.394 66.198,43.447 66.408,43.614C66.572,43.744 66.636,43.977 66.806,44.101C67.246,44.42 67.766,44.614 68.212,44.923C68.371,45.033 68.45,45.233 68.606,45.346C68.829,45.508 69.117,45.568 69.335,45.738C69.495,45.863 69.558,46.087 69.717,46.215C69.924,46.382 70.205,46.44 70.412,46.608C70.576,46.741 70.641,46.976 70.812,47.101C71.248,47.421 71.766,47.616 72.209,47.926C72.367,48.037 72.444,48.241 72.6,48.355C72.823,48.518 73.114,48.574 73.331,48.744C73.491,48.869 73.551,49.096 73.71,49.225C73.916,49.392 74.199,49.447 74.404,49.615C74.571,49.751 74.642,49.979 74.805,50.119C75.004,50.289 75.273,50.363 75.474,50.53C75.639,50.667 75.721,50.89 75.891,51.02C77.084,51.933 77.182,51.762 78.359,52.698C78.52,52.826 78.599,53.038 78.758,53.168C78.963,53.335 79.234,53.407 79.436,53.576C79.991,54.038 79.91,54.102 80.504,54.495C81.126,54.905 82.647,56.265 82.664,56.277C82.88,56.439 83.148,56.523 83.356,56.695C83.519,56.829 83.598,57.046 83.759,57.182C83.958,57.348 84.226,57.42 84.422,57.59C84.589,57.734 84.667,57.962 84.831,58.108C85.023,58.278 85.284,58.357 85.478,58.525C85.644,58.669 85.726,58.897 85.899,59.033C86.309,59.358 86.794,59.578 87.21,59.896C87.371,60.018 87.457,60.222 87.618,60.346C87.83,60.509 88.113,60.57 88.316,60.745C88.48,60.886 88.531,61.131 88.694,61.274C88.886,61.442 89.169,61.484 89.358,61.655C89.53,61.81 89.58,62.069 89.748,62.227C89.93,62.399 90.202,62.452 90.385,62.622C90.555,62.78 90.618,63.032 90.786,63.192C90.965,63.363 91.228,63.427 91.407,63.598C91.577,63.759 91.648,64.005 91.816,64.168C92.588,64.917 92.659,64.813 93.424,65.576C93.68,65.832 93.573,65.9 93.837,66.165C93.918,66.246 93.925,66.224 95.028,66.965Z" style="fill:rgb(0,81,157);fill-opacity:0.97;"/>
                    <path d="M148.892,76.118C148.129,74.89 145.196,71.181 144.623,69.448C143.712,66.698 143.225,65.872 143.119,62.522C142.813,52.836 143.967,51.91 144.154,51.382C144.74,49.724 144.579,49.696 144.648,49.562C144.719,49.427 144.959,49.422 145.006,49.277C145.066,49.096 144.868,48.892 144.927,48.71C144.977,48.558 145.209,48.534 145.293,48.398C145.448,48.146 145.511,47.846 145.628,47.574C145.904,46.93 145.991,47.005 146.429,46.45C146.602,46.229 146.685,45.948 146.846,45.719C147.475,44.825 147.334,44.76 147.948,43.878C148.075,43.695 148.34,43.655 148.493,43.494C148.661,43.317 148.712,43.044 148.892,42.881C149.247,42.56 149.714,42.382 150.072,42.064C150.25,41.906 150.304,41.64 150.477,41.476C150.66,41.302 150.933,41.245 151.117,41.071C151.284,40.915 151.333,40.656 151.506,40.507C151.708,40.331 152.004,40.292 152.211,40.123C152.371,39.992 152.419,39.751 152.584,39.627C152.825,39.446 152.826,39.469 155.321,38.163C157.163,37.2 157.168,37.222 157.327,37.137C160.465,35.474 160.498,35.426 167.538,33.628C169.236,33.194 171.888,33.16 173.588,32.849C179.715,31.728 190.924,32.094 194.407,32.858C196.367,33.287 198.119,33.2 199.468,33.605C200.985,34.061 200.969,34.036 202.532,34.353C204.102,34.672 204.023,34.889 205.555,35.318C207.093,35.748 207.019,35.9 208.495,36.51C208.726,36.606 210.126,37.184 211.31,37.861C212.29,38.421 212.308,38.355 213.287,38.89C213.434,38.97 213.506,39.155 213.651,39.239C214.958,39.992 215.025,39.882 216.14,40.889C216.31,41.042 216.405,41.265 216.57,41.423C219.967,44.684 219.966,44.676 220.128,44.851C220.655,45.418 220.467,45.542 220.975,46.111C221.12,46.273 221.364,46.33 221.501,46.499C221.674,46.712 221.711,47.014 221.881,47.229C222.005,47.386 222.246,47.425 222.363,47.587C222.532,47.821 222.555,48.137 222.711,48.38C222.803,48.523 223.009,48.571 223.089,48.721C223.369,49.244 223.504,49.834 223.772,50.363C223.843,50.502 224.027,50.563 224.095,50.704C224.358,51.245 224.487,51.846 224.752,52.386C224.819,52.521 225.008,52.566 225.077,52.7C225.216,52.967 225.272,53.269 225.361,53.556C226.202,56.28 226.407,56.209 226.716,58.47C227.136,61.551 228.996,66.263 226.611,66.853C226.363,66.915 223.749,66.913 223.5,66.913C206.524,66.905 206.467,67.008 205.474,66.539C204.205,65.941 204.098,62.187 203.246,60.607C203.175,60.475 202.992,60.43 202.919,60.299C202.18,58.961 202.571,58.696 200.856,57.118C199.453,55.828 199.337,56.009 197.531,55.412C195.1,54.609 195.036,54.933 192.531,54.381C191.514,54.157 188.295,53.447 179.517,53.892C178.648,53.936 169.959,55.105 167.885,56.951C167.526,57.27 167.389,57.776 167.089,58.151C166.957,58.318 166.722,58.387 166.6,58.562C166.469,58.749 165.611,59.98 166.631,61.412C167.517,62.655 169.232,63.402 169.493,63.516C171.7,64.478 171.8,64.104 173.455,64.637C174.961,65.121 174.948,65.11 176.518,65.406C177.9,65.667 177.944,65.966 179.551,66.158C183.074,66.581 183.007,66.92 186.523,67.291C188.74,67.525 188.778,67.93 190.554,68.142C192.631,68.389 192.591,68.477 194.621,69.002C194.857,69.063 197.491,69.319 198.464,69.616C202.105,70.728 202.155,70.496 202.468,70.598C206.082,71.768 206.144,71.522 206.455,71.63C212.734,73.808 212.787,73.655 213.297,73.925C213.432,73.997 213.471,74.196 213.609,74.264C214.147,74.53 214.751,74.648 215.291,74.912C215.434,74.982 215.489,75.17 215.625,75.252C215.879,75.405 216.171,75.482 216.44,75.604C216.602,75.678 216.736,75.739 218.295,76.824C219.185,77.444 219.243,77.324 220.133,77.941C220.312,78.065 220.38,78.306 220.54,78.455C222.92,80.671 222.934,80.653 223.129,80.858C223.662,81.416 223.471,81.534 223.979,82.093C224.128,82.257 224.37,82.32 224.512,82.49C224.686,82.699 224.734,82.993 224.904,83.206C225.028,83.364 225.259,83.416 225.376,83.579C225.545,83.813 225.584,84.12 225.739,84.363C225.829,84.505 226.019,84.568 226.098,84.717C226.377,85.24 226.53,85.824 226.798,86.353C227.104,86.958 227.193,86.898 227.419,87.535C227.596,88.032 230.175,94.376 229.489,100.499C229.469,100.679 228.428,105.445 228.419,105.471C227.162,108.977 227.238,109.005 227.079,109.287C227,109.428 226.806,109.477 226.72,109.615C226.565,109.864 226.492,110.155 226.373,110.423C226.303,110.58 226.135,110.959 225.115,112.166C222.972,114.702 223.252,114.897 223.062,115.112C222.565,115.673 222.351,115.325 221.782,115.821C221.615,115.967 221.58,116.231 221.41,116.374C221.198,116.551 220.901,116.593 220.674,116.749C220.516,116.858 220.422,117.043 220.27,117.16C219.216,117.963 219.251,117.997 219.156,118.06C218.696,118.362 218.165,118.543 217.693,118.825C217.54,118.917 215.895,119.898 215.786,119.974C215.638,120.077 215.583,120.284 215.432,120.381C215.182,120.54 214.865,120.569 214.612,120.723C214.476,120.807 214.434,121.011 214.289,121.078C213.735,121.332 213.129,121.453 212.558,121.666C211.864,121.925 211.186,122.222 210.497,122.494C209.872,122.741 209.923,122.806 209.318,123.092C208.92,123.281 202.529,125.322 199.518,125.668C196.969,125.961 196.976,125.858 194.462,126.346C194.307,126.376 193.592,126.515 192.504,126.574C182.333,127.126 178.756,126.388 177.587,126.147C174.581,125.527 174.508,126.131 171.528,125.402C166.974,124.288 166.929,124.498 166.543,124.37C166.144,124.238 165.774,124.028 165.375,123.896C164.576,123.633 160.115,122.669 155.349,119.782C155.099,119.63 154.817,119.538 154.554,119.411C153.912,119.101 153.979,119.032 153.428,118.599C153.209,118.428 152.939,118.331 152.714,118.169C151.827,117.534 151.759,117.672 150.876,117.053C150.695,116.926 150.645,116.67 150.483,116.518C150.305,116.351 150.051,116.278 149.873,116.11C149.703,115.95 149.62,115.713 149.453,115.549C149.158,115.258 149.048,115.388 148.445,114.555C148.025,113.973 147.95,114.067 147.458,113.54C147.285,113.355 147.218,113.087 147.045,112.903C146.891,112.737 146.641,112.678 146.492,112.507C146.318,112.305 146.266,112.017 146.098,111.81C145.968,111.65 145.737,111.59 145.612,111.425C145.546,111.337 145.584,111.314 144.855,110.276C144.359,109.571 144.572,109.469 144.067,108.771C143.958,108.62 143.735,108.577 143.633,108.422C143.471,108.176 143.453,107.854 143.297,107.603C143.211,107.465 142.979,107.44 142.926,107.287C142.866,107.112 143.059,106.913 143,106.739C142.95,106.591 142.713,106.577 142.639,106.44C142.491,106.165 142.465,105.84 142.359,105.547C141.442,103.021 141.558,103.01 140.844,100.394C140.613,99.549 139.813,96.619 140.136,89.467C140.245,87.056 141.07,87.331 143.496,87.29C162.452,86.969 162.65,87.008 163.206,87.718C164.207,88.996 162.12,97.069 166.682,100.247C167.362,100.721 167.49,100.461 168.144,100.959C168.312,101.087 168.359,101.334 168.524,101.465C168.751,101.643 169.05,101.708 169.293,101.864C170.808,102.834 170.792,102.9 172.555,103.251C174.112,103.561 174.073,103.66 175.606,104.067C176.019,104.177 179.037,104.377 180.464,104.651C186.914,105.886 192.678,104.599 193.497,104.48C194.978,104.265 194.978,104.402 196.448,104.168C197.128,104.059 202.835,102.512 204.713,100.724C205.246,100.216 205.14,100.15 205.585,99.551C205.691,99.41 205.918,99.382 206.005,99.229C207.036,97.419 205.643,95.771 205.45,95.543C205.293,95.358 205.04,95.279 204.862,95.114C204.697,94.962 204.605,94.736 204.429,94.597C202.461,93.053 191.023,90.842 190.465,90.773C187.929,90.459 188.015,90.09 185.464,89.779C182.926,89.47 183.015,89.096 180.464,88.771C178.454,88.515 177.603,88.054 177.379,87.996C177.165,87.94 174.498,87.674 173.539,87.376C169.894,86.246 169.85,86.488 169.536,86.388C165.92,85.236 165.864,85.45 165.555,85.336C165.158,85.189 164.795,84.96 164.394,84.825C162.87,84.312 162.808,84.514 161.368,83.813C157.99,82.166 157.859,82.508 157.576,82.348C157.429,82.264 157.391,82.037 157.235,81.971C157.11,81.919 156.955,82.091 156.833,82.034C156.654,81.95 156.593,81.715 156.436,81.596C156.209,81.425 155.931,81.332 155.694,81.175C154.75,80.555 154.706,80.674 153.722,80.108C153.571,80.021 153.508,79.82 153.357,79.733C152.886,79.463 152.328,79.355 151.878,79.05C151.692,78.925 151.676,78.64 151.513,78.485C151.335,78.315 151.061,78.27 150.882,78.101C150.71,77.94 150.652,77.682 150.484,77.516C150.313,77.346 150.055,77.281 149.883,77.112C149.713,76.945 149.643,76.694 149.475,76.525C149.307,76.357 149.059,76.286 148.892,76.118Z" style="fill:rgb(234,28,34);fill-opacity:0.97;"/>
                    <path d="M404.062,59.326C404.118,55.193 404.157,54.732 405.505,54.526C405.841,54.475 425.159,54.475 425.495,54.526C427.22,54.789 426.933,55.58 426.933,68.5C426.933,124.253 426.943,124.258 426.848,124.614C426.409,126.254 423.692,125.869 420.5,125.869C405.262,125.869 405.139,125.949 404.577,125.418C404.358,125.211 404.211,124.913 404.156,124.616C404.034,123.963 404.255,123.26 404.056,122.625C403.553,121.021 401.697,122.436 401.537,122.558C401.383,122.676 401.344,122.922 401.172,123.012C401.052,123.076 400.891,122.906 400.767,122.962C400.609,123.032 400.572,123.263 400.423,123.349C400.377,123.376 397.736,124.413 397.502,124.505C396.018,125.088 396.098,125.276 394.529,125.628C392.822,126.011 390.365,127.236 379.484,126.874C375.412,126.739 375.462,126.426 371.477,125.599C371.122,125.526 369.781,125.131 369.683,125.085C369.558,125.026 369.498,124.87 369.374,124.807C368.751,124.488 368.753,124.527 365.586,123.334C365.335,123.24 365.063,123.183 364.843,123.031C364.676,122.917 364.619,122.685 364.459,122.56C363.93,122.146 363.421,121.845 363.327,121.789C362.03,121.021 361.976,121.115 360.839,120.119C360.286,119.635 360.304,119.635 359.731,119.174C358.107,117.87 358.126,117.871 356.817,116.271C356.346,115.695 356.355,115.713 355.867,115.168C355.394,114.64 355.376,114.685 354.897,114.14C354.731,113.952 354.665,113.688 354.494,113.505C354.345,113.345 354.073,113.314 353.955,113.129C353.658,112.667 353.556,112.101 353.285,111.623C353.202,111.475 352.99,111.428 352.909,111.279C352.628,110.758 352.487,110.171 352.218,109.644C352.147,109.504 351.968,109.438 351.898,109.297C350.861,107.2 350.991,107.167 350.106,104.633C349.966,104.232 349.751,103.861 349.609,103.462C349.499,103.151 349.687,103.109 348.618,99.465C347.946,97.173 347.8,85.681 348.599,82.529C349.148,80.361 349.81,76.892 351.876,72.691C351.945,72.552 352.102,72.472 352.172,72.334C353.516,69.709 353.507,69.706 353.605,69.566C353.717,69.407 353.931,69.342 354.048,69.187C354.555,68.513 354.355,68.407 354.857,67.735C354.97,67.583 355.163,67.502 355.269,67.345C355.426,67.115 355.459,66.81 355.634,66.593C355.77,66.424 356.032,66.394 356.172,66.229C356.341,66.029 356.356,65.724 356.533,65.53C356.692,65.356 356.977,65.335 357.142,65.165C357.316,64.986 357.342,64.695 357.516,64.516C357.685,64.342 357.982,64.325 358.139,64.14C358.452,63.771 358.571,63.262 358.888,62.897C359.049,62.711 359.354,62.705 359.532,62.534C359.696,62.376 359.705,62.091 359.88,61.944C360.506,61.414 360.668,61.735 361.349,61.273C361.505,61.167 361.584,60.973 361.736,60.861C363.881,59.267 363.962,59.415 366.353,58.204C366.491,58.134 366.559,57.963 366.698,57.896C369.74,56.438 370.121,56.678 373.526,55.583C374.703,55.204 377.142,55.062 377.402,55.005C377.413,55.003 378.532,54.32 383.5,54.366C387.568,54.404 387.514,54.755 391.532,55.245C394.203,55.571 398.491,57.353 398.544,57.373C398.832,57.482 399.151,57.515 399.419,57.665C399.565,57.746 399.593,57.98 399.747,58.044C399.879,58.097 400.038,57.912 400.167,57.97C400.307,58.034 400.146,58.226 401.674,59.163C402.912,59.922 403.691,59.381 404.062,59.326L398.876,80.123C398.706,79.958 398.617,79.721 398.447,79.557C396.807,77.971 396.677,78.157 394.552,77.368C394.153,77.22 393.793,76.978 393.393,76.835C390.911,75.947 388.884,75.888 388.484,75.876C382.687,75.706 381.288,76.383 378.473,77.442C377.819,77.689 377.877,77.762 377.28,78.129C376.811,78.417 376.26,78.569 375.818,78.897C375.239,79.328 375.633,79.6 375.115,80.11C374.939,80.283 374.638,80.289 374.463,80.464C374.287,80.639 374.276,80.938 374.104,81.118C373.938,81.291 373.653,81.315 373.483,81.486C373.303,81.668 373.254,81.95 373.088,82.145C372.946,82.311 372.71,82.381 372.575,82.553C372.511,82.636 372.05,83.224 371.886,83.667C370.843,86.491 370.733,88.116 370.706,88.514C370.214,95.748 371.895,97.295 372.415,98.545C372.688,99.203 372.746,99.155 373.146,99.729C373.446,100.159 373.613,100.684 373.968,101.069C374.29,101.419 374.773,101.582 375.136,101.891C375.31,102.038 375.389,102.277 375.563,102.423C376.334,103.074 379.775,104.773 380.633,105.037C380.807,105.091 384.417,105.654 388.499,105.463C389.216,105.429 394.081,105.201 397.135,103.015C397.306,102.893 397.341,102.638 397.502,102.502C397.697,102.336 398.008,102.326 398.175,102.132C398.488,101.77 398.585,101.256 398.893,100.889C399.049,100.702 399.351,100.694 399.523,100.521C399.701,100.342 399.739,100.056 399.908,99.868C400.061,99.699 400.319,99.648 400.466,99.474C400.649,99.257 400.71,98.958 400.872,98.725C401.131,98.348 401.75,97.796 402.347,95.461C403.472,91.055 403.313,90.987 402.417,86.516C401.532,82.1 400.058,81.336 398.876,80.123L404.062,59.326Z" style="fill:rgb(234,28,34);fill-opacity:0.98;"/>
                    <path d="M524.924,120.03C523.224,118.435 519.137,113.929 518.711,113.358C518.544,113.133 518.477,112.846 518.318,112.616C518.213,112.466 518.024,112.385 517.929,112.229C517.634,111.743 517.459,111.189 517.158,110.707C517.064,110.555 516.853,110.502 516.757,110.351C516.276,109.593 516.544,109.484 516.094,108.699C516.018,108.566 515.83,108.52 515.756,108.384C515.568,108.035 514.994,106.495 514.932,106.329C508.616,89.37 514.967,75.716 515.399,74.462C515.772,73.38 515.921,73.47 516.354,72.425C516.905,71.095 519.589,67.301 520.871,65.779C522.623,63.698 525.176,61.694 525.491,61.489C526.09,61.099 526.006,61.028 526.574,60.594C526.791,60.427 527.081,60.372 527.299,60.205C527.451,60.089 527.499,59.858 527.664,59.761C528.163,59.468 528.745,59.337 529.252,59.057C529.4,58.975 529.459,58.78 529.602,58.692C530.378,58.213 530.469,58.446 531.272,58.016C531.402,57.946 531.461,57.778 531.592,57.71C531.837,57.583 535.853,56.173 536.639,55.933C538.647,55.319 544.455,54.609 545.502,54.559C554.829,54.118 560.708,56.809 562.528,57.424C563.599,57.786 563.512,57.93 564.566,58.372C565.215,58.643 565.166,58.701 565.714,59.123C567.056,60.156 568.158,59.438 568.203,59.362C568.417,58.997 568.016,56.591 568.448,55.472C568.769,54.641 569.061,55.125 569.263,55.069C569.412,55.029 569.401,54.752 569.547,54.704C569.653,54.669 590.157,54.599 590.417,54.744C590.6,54.845 590.523,55.171 590.673,55.316C590.832,55.47 591.168,55.391 591.282,55.581C591.391,55.761 591.386,57.347 591.386,57.501C591.33,77.527 591.378,116.38 591.384,121.5C591.387,124.342 592.08,125.82 588.504,125.836C587.062,125.842 572.576,125.904 570.478,125.833C567.46,125.73 568.436,123.557 568.279,122.568C568.064,121.216 566.759,121.756 566.624,121.812C566.489,121.868 566.525,122.107 566.408,122.194C566.155,122.383 565.843,122.477 565.557,122.61C564.525,123.089 564.629,123.253 563.575,123.657C562.519,124.062 562.577,124.153 561.518,124.553C556.765,126.349 552.827,127.212 543.48,126.832C535.434,126.505 528.668,122.422 528.569,122.377C527.939,122.087 527.99,122.039 527.411,121.645C527.178,121.486 526.882,121.432 526.655,121.265C526.495,121.149 526.433,120.927 526.273,120.813C525.85,120.511 525.347,120.332 524.924,120.03L539.031,80.024C537.179,81.247 537.445,81.495 536.302,83.401C536.223,83.532 536.037,83.584 535.975,83.724C535.392,85.023 533.724,90.306 535.277,95.569C536.325,99.12 536.794,99.377 538.087,100.876C539.049,101.992 538.981,102.041 539.562,102.426C540.037,102.741 543.996,106.408 553.506,105.575C561.896,104.84 567.08,99.529 567.23,91.494C567.327,86.236 566.089,83.883 564.934,82.227C562.45,78.668 561.9,78.832 560.737,78.102C559.896,77.575 556.392,75.378 548.533,75.873C548.208,75.893 547.638,75.929 544.536,76.648C542.766,77.058 542.775,77.098 541.254,78.086C541.014,78.243 540.722,78.317 540.496,78.495C540.323,78.632 540.25,78.87 540.081,79.012C539.779,79.267 539.704,79.128 539.415,79.406C539.143,79.669 539.3,79.765 539.031,80.024L524.924,120.03Z" style="fill:rgb(0,81,158);fill-opacity:0.97;"/>
                    <path d="M306.104,114.121C305.97,114.243 305.326,114.428 304.542,115.542C303.979,116.341 303.86,116.217 303.536,116.538C303.369,116.704 303.292,116.947 303.122,117.11C302.947,117.279 302.69,117.347 302.517,117.518C302.35,117.683 302.291,117.94 302.119,118.1C301.939,118.269 301.664,118.313 301.486,118.484C301.323,118.639 301.308,118.925 301.122,119.051C300.674,119.355 300.115,119.459 299.648,119.732C299.488,119.825 299.417,120.026 299.267,120.134C299.039,120.299 298.747,120.363 298.529,120.54C298.366,120.672 298.326,120.93 298.147,121.039C297.671,121.33 297.1,121.437 296.613,121.709C296.468,121.79 296.43,122.007 296.282,122.083C295.752,122.357 295.15,122.472 294.617,122.739C294.264,122.916 294.375,123.12 292.555,123.665C292.128,123.794 287.279,125.506 286.532,125.651C281.517,126.623 281.544,127.006 271.492,126.909C265.092,126.848 263.125,126.531 256.532,124.415C256.292,124.338 254.051,123.619 253.563,123.354C253.425,123.28 253.419,123.035 253.269,122.986C253.091,122.927 252.891,123.132 252.713,123.072C252.559,123.021 252.54,122.782 252.402,122.696C252.15,122.54 251.826,122.527 251.577,122.366C251.424,122.267 251.4,122.017 251.234,121.942C251.111,121.888 250.964,122.095 250.842,122.038C250.701,121.97 250.862,121.782 249.321,120.804C249.079,120.651 248.786,120.585 248.551,120.42C247.979,120.017 248.055,119.939 247.438,119.58C246.834,119.228 246.916,119.146 246.332,118.747C246.103,118.591 245.804,118.548 245.589,118.374C245.42,118.237 245.381,117.981 245.216,117.841C245.017,117.672 244.719,117.647 244.527,117.471C244.353,117.311 244.338,117.017 244.156,116.865C243.779,116.55 243.269,116.423 242.893,116.107C242.707,115.951 242.686,115.657 242.514,115.486C242.344,115.316 242.065,115.284 241.897,115.111C241.726,114.935 241.701,114.649 241.531,114.472C241.373,114.308 241.092,114.294 240.945,114.12C240.413,113.49 240.728,113.342 240.263,112.659C240.157,112.503 239.967,112.418 239.854,112.266C238.25,110.12 238.391,110.053 237.172,107.665C236.096,105.558 235.903,105.648 235.313,103.557C234.745,101.543 234.477,101.622 234.204,99.542C234.15,99.137 232.763,93.839 233.356,86.491C233.585,83.65 235.422,77.623 235.881,76.676C238.161,71.974 239.445,70.23 239.824,69.714C240.242,69.146 240.17,69.112 240.598,68.568C240.73,68.401 240.961,68.334 241.097,68.171C241.265,67.97 241.32,67.689 241.495,67.495C241.651,67.323 241.907,67.267 242.067,67.099C242.239,66.92 242.3,66.652 242.473,66.474C242.639,66.302 242.905,66.246 243.064,66.068C243.382,65.711 243.562,65.245 243.882,64.889C244.043,64.709 244.313,64.654 244.485,64.484C244.652,64.318 244.711,64.06 244.883,63.898C245.061,63.729 245.334,63.682 245.512,63.513C245.674,63.358 245.707,63.092 245.88,62.949C246.012,62.839 246.12,63.026 247.729,61.853C247.954,61.689 248.234,61.609 248.452,61.435C248.614,61.305 248.674,61.066 248.85,60.956C249.321,60.661 249.874,60.517 250.357,60.242C250.501,60.161 250.566,59.974 250.712,59.898C251.237,59.621 251.818,59.463 252.347,59.194C252.485,59.124 252.558,58.958 252.696,58.89C259.514,55.566 267.556,54.867 267.59,54.86C273.779,53.56 280.534,55.022 281.531,55.116C282.173,55.177 285.505,55.49 289.452,56.633C290.3,56.879 290.781,57.286 293.561,58.326C294.131,58.539 294.735,58.664 295.287,58.922C295.434,58.99 295.474,59.198 295.611,59.283C295.862,59.438 296.18,59.464 296.426,59.626C296.58,59.727 296.63,59.943 296.78,60.05C298.041,60.951 298.192,60.684 299.438,61.594C299.601,61.713 299.673,61.928 299.831,62.053C300.448,62.54 300.554,62.355 301.156,62.885C301.708,63.37 301.69,63.37 302.266,63.832C302.42,63.956 302.516,64.145 302.677,64.26C302.898,64.417 303.195,64.456 303.397,64.636C303.571,64.79 303.601,65.064 303.766,65.227C303.934,65.394 304.21,65.427 304.371,65.601C304.525,65.768 304.38,65.877 306.142,67.826C306.877,68.64 306.795,68.686 307.526,69.478C307.673,69.638 307.928,69.688 308.047,69.869C308.348,70.327 308.484,70.876 308.757,71.35C308.841,71.497 309.029,71.566 309.11,71.715C309.281,72.027 309.232,72.049 311.125,75.681C311.551,76.499 311.368,76.562 311.795,77.375C312.108,77.971 312.178,77.921 312.362,78.552C312.939,80.528 312.788,80.555 313.382,82.535C313.944,84.41 314.482,95.961 313.11,100.369C312.725,101.607 311.167,106.154 311.09,106.3C311.019,106.435 310.843,106.496 310.775,106.632C310.508,107.166 310.367,107.757 310.095,108.288C310.02,108.433 309.834,108.495 309.748,108.634C309.595,108.882 309.552,109.19 309.388,109.432C309.283,109.589 309.071,109.649 308.96,109.802C308.456,110.492 308.645,110.589 308.152,111.276C307.409,112.31 307.454,112.335 307.386,112.423C307.186,112.682 307.041,112.556 306.104,114.121L286.889,100.886C287.055,100.716 287.308,100.646 287.474,100.475C287.956,99.98 288.732,98.851 288.834,98.704C289.371,97.923 289.719,98.028 290.849,92.584C291.559,89.165 289.277,83.611 289.276,83.61C289.195,83.469 288.999,83.421 288.915,83.283C288.315,82.299 288.531,82.19 287.817,81.28C285.587,78.437 284.894,78.791 283.705,78.101C283.57,78.022 283.501,77.856 283.365,77.781C281.289,76.636 281.179,76.976 278.537,76.368C271.685,74.791 266.861,76.916 266.349,77.095C264.123,77.875 263.957,77.568 262.161,79.11C261.102,80.019 260.994,79.846 260.914,79.935C260.537,80.356 259.282,82.083 259.144,82.273C258.465,83.208 258.648,83.286 258.09,84.301C258.018,84.431 257.85,84.491 257.78,84.622C256.454,87.137 256.162,94.116 258.153,97.672C258.433,98.171 258.615,98.725 258.926,99.205C259.034,99.371 259.269,99.418 259.388,99.574C260.104,100.513 259.897,100.681 261.27,101.812C262.583,102.894 262.836,102.752 263.155,102.959C263.326,103.069 263.388,103.302 263.551,103.423C263.635,103.485 264.245,103.936 264.67,104.092C267.559,105.148 269.119,105.274 269.518,105.307C277.585,105.962 280.606,104.85 281.508,104.518C283.197,103.896 286.074,102.048 286.092,102.032C286.437,101.72 286.544,101.198 286.889,100.886L306.104,114.121Z" style="fill:rgb(233,28,34);fill-opacity:0.97;"/>
                    <path d="M463.354,77.348C463.023,77.692 462.692,78.035 462.361,78.378C462.226,78.544 461.982,78.596 461.846,78.762C460.491,80.418 459.884,84.049 459.804,84.532C459.56,85.992 459.879,123.54 459.612,124.537C459.209,126.043 457.732,125.759 449.5,125.759C437.537,125.759 436.874,126.007 436.568,124.481C436.473,124.003 436.431,33.872 436.591,33.53C436.681,33.336 436.975,33.323 437.12,33.166C437.288,32.982 437.295,32.652 437.512,32.53C437.762,32.388 439.34,32.388 439.499,32.388C458.595,32.387 458.704,32.337 459.211,32.804C459.712,33.267 459.714,36.202 459.714,36.5C459.724,51.543 459.629,51.54 459.665,52.479C459.746,54.649 462.237,53.497 464.461,53.225C467.008,52.913 466.954,52.657 469.5,52.492C476.949,52.008 480.266,52.931 482.539,53.226C483.266,53.321 486.583,53.752 491.297,55.921C492.919,56.668 492.816,56.835 494.441,57.604C495.076,57.905 495.03,57.952 495.6,58.336C495.834,58.494 496.127,58.555 496.356,58.72C497.086,59.247 501.588,63.394 502.035,63.915C502.554,64.52 502.34,64.644 502.825,65.272C502.943,65.425 503.153,65.493 503.264,65.651C503.429,65.884 503.477,66.184 503.635,66.422C503.729,66.563 503.941,66.612 504.008,66.767C504.07,66.909 503.931,67.087 503.989,67.23C504.05,67.384 504.252,67.443 504.337,67.585C504.491,67.841 504.544,68.147 504.694,68.405C504.77,68.537 504.946,68.597 505.007,68.737C505.251,69.295 505.407,69.888 505.594,70.468C506.778,74.148 506.584,74.179 507.229,78.545C507.431,79.909 507.32,124.373 507.294,124.449C507.24,124.602 506.999,124.609 506.904,124.74C506.732,124.976 506.748,125.351 506.512,125.524C506.113,125.817 503.946,125.759 496.5,125.759C485.52,125.759 484.706,126.005 484.282,124.579C484.001,123.639 484.28,83.117 484.121,80.532C483.953,77.813 482.329,75.97 481.487,75.518C476.382,72.777 468.414,73.86 465.557,75.609C465.405,75.703 465.372,75.945 465.207,76.016C465.076,76.072 464.914,75.88 464.785,75.941C464.61,76.025 464.57,76.272 464.418,76.392C464.213,76.555 463.928,76.601 463.734,76.775C463.563,76.928 463.524,77.195 463.354,77.348Z" style="fill:rgb(0,81,158);fill-opacity:0.97;"/>
                    <path d="M664.5,55.034C665.506,55 665.489,54.978 666.509,54.965C669.709,54.926 669.241,53.705 669.241,50.5C669.243,39.672 668.977,38.834 670.492,38.474C670.934,38.369 691.017,38.262 691.482,38.543C691.699,38.675 691.69,39.014 691.858,39.204C691.992,39.357 692.282,39.357 692.365,39.542C692.662,40.197 692.077,53.341 692.751,54.308C693.566,55.478 699.312,54.921 702.537,55.039C704.056,55.095 704.428,54.962 704.752,56.446C704.844,56.869 704.789,74.524 704.788,74.535C704.637,75.881 704.221,75.635 703.77,75.961C703.638,76.057 703.616,76.289 703.461,76.341C703.127,76.454 693.762,76.297 693.484,76.454C693.258,76.581 693.304,76.955 693.125,77.142C692.957,77.317 692.599,77.28 692.487,77.496C692.346,77.769 692.538,123.618 692.384,124.469C692.101,126.033 691.048,125.759 681.5,125.759C670.578,125.759 669.757,126.01 669.349,124.551C669.114,123.712 669.297,80.849 669.243,78.515C669.227,77.83 669.262,77.814 668.84,77.255C668.688,77.054 668.65,76.752 668.438,76.615C667.598,76.071 658.677,76.71 657.766,76.136C656.964,75.63 657.075,75.375 657.077,59.5C657.078,56.336 656.356,55.005 659.509,54.966C662.018,54.935 662.002,55.034 664.5,55.034Z" style="fill:rgb(0,81,158);fill-opacity:0.96;"/>
                    <path d="M629.089,80.078C628.93,80.257 628.681,80.34 628.522,80.519C628.34,80.723 628.252,80.995 628.083,81.209C626.023,83.822 625.861,84.617 625.064,87.361C623.546,92.585 623.862,93.719 623.835,121.5C623.835,121.747 623.833,124.194 623.718,124.579C623.294,126.005 622.48,125.759 611.5,125.759C602.983,125.759 601.603,126.017 601.165,124.642C600.828,123.583 601.204,65.44 600.965,58.501C600.875,55.877 600.874,55.118 603.489,55.078C603.491,55.078 621.336,55.075 621.528,55.081C625.765,55.215 622.443,59.475 624.43,59.677C625.77,59.813 626.93,58.332 627.726,57.931C632.338,55.608 635.733,55.262 636.462,55.187C640.034,54.823 640.465,54.402 647.5,54.502C649.851,54.536 649.935,55.138 649.946,57.494C649.952,58.773 650.017,73.439 650.013,73.484C649.751,76.528 648.562,75.794 645.501,75.8C640.479,75.81 640.487,75.851 635.554,76.759C635.31,76.804 633.862,77.071 632.602,77.729C631.995,78.047 632.037,78.088 631.424,78.354C631.26,78.425 630.414,78.793 629.533,79.54C629.356,79.691 629.267,79.928 629.089,80.078Z" style="fill:rgb(0,81,157);fill-opacity:0.97;"/>
                    <path d="M342.844,36.5C342.844,124.204 342.856,124.206 342.755,124.583C342.303,126.269 338.872,125.816 338.5,125.816C320.432,125.816 320.254,125.908 319.745,125.284C319.412,124.875 319.449,124.801 319.449,67.5C319.449,33.575 319.445,33.57 319.479,33.494C319.568,33.295 319.896,33.32 320.038,33.155C320.231,32.932 320.198,32.527 320.448,32.369C320.8,32.147 341.209,32.232 341.553,32.314C342.49,32.536 342.703,33.29 342.738,33.414C342.805,33.652 342.746,33.642 342.844,36.5Z" style="fill:rgb(236,29,35);fill-opacity:0.98;"/>
                    <path d="M64.112,77.909C64.427,78.249 64.607,78.7 64.922,79.04C65.091,79.223 65.361,79.285 65.543,79.455C65.713,79.614 65.794,79.851 65.962,80.013C66.138,80.183 66.386,80.266 66.562,80.436C66.732,80.601 66.813,80.846 66.988,81.006C67.34,81.328 67.776,81.549 68.129,81.869C68.255,81.984 68.177,82.051 69.55,83.452C69.714,83.619 69.947,83.708 70.107,83.877C70.275,84.054 70.353,84.304 70.523,84.479C70.686,84.646 70.933,84.714 71.092,84.885C71.259,85.067 71.311,85.337 71.481,85.516C71.635,85.679 71.897,85.714 72.039,85.887C72.148,86.02 71.96,86.123 73.138,87.736C73.302,87.96 73.381,88.242 73.555,88.459C73.684,88.621 73.924,88.68 74.034,88.856C74.329,89.327 74.471,89.881 74.745,90.363C74.827,90.508 75.016,90.572 75.094,90.719C75.372,91.242 75.531,91.822 75.8,92.351C75.87,92.488 76.035,92.561 76.102,92.699C77.341,95.257 79.498,99.962 78.675,107.517C78.469,109.402 78.166,110.02 77.37,112.447C77.277,112.731 77.213,113.03 77.076,113.296C77.005,113.431 76.827,113.489 76.759,113.625C76.492,114.156 76.357,114.749 76.08,115.276C76.002,115.425 75.802,115.479 75.711,115.62C75.556,115.863 75.523,116.173 75.354,116.407C75.237,116.57 75.003,116.618 74.877,116.775C74.708,116.987 74.663,117.283 74.488,117.49C74.343,117.662 74.094,117.721 73.941,117.886C73.769,118.072 73.702,118.341 73.528,118.526C73.366,118.699 73.11,118.764 72.952,118.94C72.633,119.297 72.439,119.752 72.116,120.106C71.953,120.285 71.692,120.35 71.515,120.516C71.354,120.668 71.299,120.92 71.118,121.048C69.881,121.919 69.744,121.672 68.558,122.583C68.347,122.744 68.502,123.015 66.559,123.661C64.418,124.372 60.813,126.344 53.488,125.656C49.392,125.271 45.937,123.136 45.349,122.773C43.189,121.438 43.255,121.374 41.316,119.724C39.392,118.088 39.417,117.583 38.467,116.527C38.324,116.369 38.078,116.311 37.964,116.131C37.669,115.663 37.539,115.107 37.266,114.626C37.186,114.484 36.992,114.428 36.919,114.283C36.65,113.747 36.523,113.148 36.258,112.61C36.191,112.476 36.003,112.43 35.935,112.296C35.881,112.19 34.37,106.707 34.398,103.499C34.432,99.522 36.165,94.929 36.626,93.553C36.721,93.269 36.785,92.97 36.924,92.705C36.995,92.57 37.173,92.513 37.241,92.376C37.508,91.842 37.645,91.249 37.915,90.715C37.988,90.571 38.171,90.508 38.255,90.37C38.321,90.263 39.146,88.425 42.825,83.728C43.263,83.169 43.178,83.128 43.627,82.592C43.767,82.424 44.014,82.371 44.157,82.205C44.325,82.011 44.362,81.722 44.537,81.535C44.7,81.362 44.974,81.326 45.14,81.156C45.312,80.979 45.351,80.699 45.524,80.524C45.694,80.351 45.983,80.324 46.14,80.14C46.453,79.772 46.584,79.271 46.901,78.905C47.06,78.72 47.358,78.705 47.531,78.532C47.702,78.361 47.724,78.075 47.898,77.907C48.075,77.736 48.368,77.721 48.546,77.55C48.712,77.39 48.715,77.102 48.89,76.953C49.07,76.798 49.314,77.206 51.43,75.415C51.6,75.272 51.69,75.049 51.858,74.903C52.048,74.738 52.307,74.662 52.493,74.491C52.654,74.343 52.698,74.084 52.88,73.962C53.336,73.655 53.884,73.513 54.359,73.237C54.435,73.193 54.735,72.773 55.537,72.676C55.678,72.659 56.56,72.552 57.286,72.93C57.431,73.005 57.473,73.21 57.61,73.298C57.853,73.456 58.169,73.482 58.403,73.652C58.564,73.769 58.604,74.009 58.76,74.132C58.976,74.302 59.276,74.34 59.491,74.511C59.657,74.642 59.708,74.887 59.876,75.014C60.308,75.34 60.822,75.542 61.267,75.848C61.422,75.955 61.513,76.141 61.669,76.248C61.898,76.405 62.192,76.459 62.41,76.631C62.575,76.761 62.629,76.999 62.79,77.133C62.885,77.212 62.888,77.191 64.112,77.909Z" style="fill:rgb(221,45,45);fill-opacity:0.97;"/>
                </g>
            </g>
        </g>
    </g>
</svg>
